solid ASCII
  facet normal -8.660254e-01 -5.000000e-01 0.000000e+00
    outer loop
      vertex   5.134595e+01 9.318729e+01 6.600000e+00
      vertex   5.195217e+01 9.213729e+01 6.600000e+00
      vertex   5.134595e+01 9.318729e+01 8.600000e+00
    endloop
  endfacet
  facet normal -8.660254e-01 -5.000000e-01 0.000000e+00
    outer loop
      vertex   5.134595e+01 9.318729e+01 8.600000e+00
      vertex   5.195217e+01 9.213729e+01 6.600000e+00
      vertex   5.195217e+01 9.213729e+01 8.600000e+00
    endloop
  endfacet
  facet normal 0.000000e+00 -1.000000e+00 0.000000e+00
    outer loop
      vertex   5.013351e+01 9.318729e+01 6.600000e+00
      vertex   5.134595e+01 9.318729e+01 6.600000e+00
      vertex   5.013351e+01 9.318729e+01 8.600000e+00
    endloop
  endfacet
  facet normal 0.000000e+00 -1.000000e+00 0.000000e+00
    outer loop
      vertex   5.013351e+01 9.318729e+01 8.600000e+00
      vertex   5.134595e+01 9.318729e+01 6.600000e+00
      vertex   5.134595e+01 9.318729e+01 8.600000e+00
    endloop
  endfacet
  facet normal 8.660254e-01 -5.000000e-01 0.000000e+00
    outer loop
      vertex   4.952729e+01 9.213729e+01 6.600000e+00
      vertex   5.013351e+01 9.318729e+01 6.600000e+00
      vertex   4.952729e+01 9.213729e+01 8.600000e+00
    endloop
  endfacet
  facet normal 8.660254e-01 -5.000000e-01 0.000000e+00
    outer loop
      vertex   4.952729e+01 9.213729e+01 8.600000e+00
      vertex   5.013351e+01 9.318729e+01 6.600000e+00
      vertex   5.013351e+01 9.318729e+01 8.600000e+00
    endloop
  endfacet
  facet normal 8.660254e-01 5.000000e-01 -0.000000e+00
    outer loop
      vertex   5.013351e+01 9.108729e+01 6.600000e+00
      vertex   4.952729e+01 9.213729e+01 6.600000e+00
      vertex   5.013351e+01 9.108729e+01 8.600000e+00
    endloop
  endfacet
  facet normal 8.660254e-01 5.000000e-01 0.000000e+00
    outer loop
      vertex   5.013351e+01 9.108729e+01 8.600000e+00
      vertex   4.952729e+01 9.213729e+01 6.600000e+00
      vertex   4.952729e+01 9.213729e+01 8.600000e+00
    endloop
  endfacet
  facet normal -8.660254e-01 5.000000e-01 0.000000e+00
    outer loop
      vertex   5.195217e+01 9.213729e+01 6.600000e+00
      vertex   5.134595e+01 9.108729e+01 6.600000e+00
      vertex   5.195217e+01 9.213729e+01 8.600000e+00
    endloop
  endfacet
  facet normal -8.660254e-01 5.000000e-01 0.000000e+00
    outer loop
      vertex   5.195217e+01 9.213729e+01 8.600000e+00
      vertex   5.134595e+01 9.108729e+01 6.600000e+00
      vertex   5.134595e+01 9.108729e+01 8.600000e+00
    endloop
  endfacet
  facet normal 0.000000e+00 1.000000e+00 -0.000000e+00
    outer loop
      vertex   5.134595e+01 9.108729e+01 6.600000e+00
      vertex   5.013351e+01 9.108729e+01 6.600000e+00
      vertex   5.134595e+01 9.108729e+01 8.600000e+00
    endloop
  endfacet
  facet normal 0.000000e+00 1.000000e+00 0.000000e+00
    outer loop
      vertex   5.134595e+01 9.108729e+01 8.600000e+00
      vertex   5.013351e+01 9.108729e+01 6.600000e+00
      vertex   5.013351e+01 9.108729e+01 8.600000e+00
    endloop
  endfacet
  facet normal -8.660254e-01 -5.000000e-01 0.000000e+00
    outer loop
      vertex   5.134595e+01 7.818729e+01 6.600000e+00
      vertex   5.195217e+01 7.713729e+01 6.600000e+00
      vertex   5.134595e+01 7.818729e+01 8.600000e+00
    endloop
  endfacet
  facet normal -8.660254e-01 -5.000000e-01 0.000000e+00
    outer loop
      vertex   5.134595e+01 7.818729e+01 8.600000e+00
      vertex   5.195217e+01 7.713729e+01 6.600000e+00
      vertex   5.195217e+01 7.713729e+01 8.600000e+00
    endloop
  endfacet
  facet normal 0.000000e+00 -1.000000e+00 0.000000e+00
    outer loop
      vertex   5.013351e+01 7.818729e+01 6.600000e+00
      vertex   5.134595e+01 7.818729e+01 6.600000e+00
      vertex   5.013351e+01 7.818729e+01 8.600000e+00
    endloop
  endfacet
  facet normal 0.000000e+00 -1.000000e+00 0.000000e+00
    outer loop
      vertex   5.013351e+01 7.818729e+01 8.600000e+00
      vertex   5.134595e+01 7.818729e+01 6.600000e+00
      vertex   5.134595e+01 7.818729e+01 8.600000e+00
    endloop
  endfacet
  facet normal 8.660254e-01 -5.000000e-01 0.000000e+00
    outer loop
      vertex   4.952729e+01 7.713729e+01 6.600000e+00
      vertex   5.013351e+01 7.818729e+01 6.600000e+00
      vertex   4.952729e+01 7.713729e+01 8.600000e+00
    endloop
  endfacet
  facet normal 8.660254e-01 -5.000000e-01 0.000000e+00
    outer loop
      vertex   4.952729e+01 7.713729e+01 8.600000e+00
      vertex   5.013351e+01 7.818729e+01 6.600000e+00
      vertex   5.013351e+01 7.818729e+01 8.600000e+00
    endloop
  endfacet
  facet normal 8.660254e-01 5.000000e-01 -0.000000e+00
    outer loop
      vertex   5.013351e+01 7.608729e+01 6.600000e+00
      vertex   4.952729e+01 7.713729e+01 6.600000e+00
      vertex   5.013351e+01 7.608729e+01 8.600000e+00
    endloop
  endfacet
  facet normal 8.660254e-01 5.000000e-01 0.000000e+00
    outer loop
      vertex   5.013351e+01 7.608729e+01 8.600000e+00
      vertex   4.952729e+01 7.713729e+01 6.600000e+00
      vertex   4.952729e+01 7.713729e+01 8.600000e+00
    endloop
  endfacet
  facet normal -8.660254e-01 5.000000e-01 0.000000e+00
    outer loop
      vertex   5.195217e+01 7.713729e+01 6.600000e+00
      vertex   5.134595e+01 7.608729e+01 6.600000e+00
      vertex   5.195217e+01 7.713729e+01 8.600000e+00
    endloop
  endfacet
  facet normal -8.660254e-01 5.000000e-01 0.000000e+00
    outer loop
      vertex   5.195217e+01 7.713729e+01 8.600000e+00
      vertex   5.134595e+01 7.608729e+01 6.600000e+00
      vertex   5.134595e+01 7.608729e+01 8.600000e+00
    endloop
  endfacet
  facet normal 0.000000e+00 1.000000e+00 -0.000000e+00
    outer loop
      vertex   5.134595e+01 7.608729e+01 6.600000e+00
      vertex   5.013351e+01 7.608729e+01 6.600000e+00
      vertex   5.134595e+01 7.608729e+01 8.600000e+00
    endloop
  endfacet
  facet normal 0.000000e+00 1.000000e+00 0.000000e+00
    outer loop
      vertex   5.134595e+01 7.608729e+01 8.600000e+00
      vertex   5.013351e+01 7.608729e+01 6.600000e+00
      vertex   5.013351e+01 7.608729e+01 8.600000e+00
    endloop
  endfacet
  facet normal -8.660254e-01 -5.000000e-01 0.000000e+00
    outer loop
      vertex   -8.654052e+00 9.318729e+01 6.600000e+00
      vertex   -8.047834e+00 9.213729e+01 6.600000e+00
      vertex   -8.654052e+00 9.318729e+01 8.600000e+00
    endloop
  endfacet
  facet normal -8.660254e-01 -5.000000e-01 0.000000e+00
    outer loop
      vertex   -8.654052e+00 9.318729e+01 8.600000e+00
      vertex   -8.047834e+00 9.213729e+01 6.600000e+00
      vertex   -8.047834e+00 9.213729e+01 8.600000e+00
    endloop
  endfacet
  facet normal 0.000000e+00 -1.000000e+00 0.000000e+00
    outer loop
      vertex   -9.866487e+00 9.318729e+01 6.600000e+00
      vertex   -8.654052e+00 9.318729e+01 6.600000e+00
      vertex   -9.866487e+00 9.318729e+01 8.600000e+00
    endloop
  endfacet
  facet normal 0.000000e+00 -1.000000e+00 0.000000e+00
    outer loop
      vertex   -9.866487e+00 9.318729e+01 8.600000e+00
      vertex   -8.654052e+00 9.318729e+01 6.600000e+00
      vertex   -8.654052e+00 9.318729e+01 8.600000e+00
    endloop
  endfacet
  facet normal 8.660254e-01 -5.000000e-01 0.000000e+00
    outer loop
      vertex   -1.047271e+01 9.213729e+01 6.600000e+00
      vertex   -9.866487e+00 9.318729e+01 6.600000e+00
      vertex   -1.047271e+01 9.213729e+01 8.600000e+00
    endloop
  endfacet
  facet normal 8.660254e-01 -5.000000e-01 0.000000e+00
    outer loop
      vertex   -1.047271e+01 9.213729e+01 8.600000e+00
      vertex   -9.866487e+00 9.318729e+01 6.600000e+00
      vertex   -9.866487e+00 9.318729e+01 8.600000e+00
    endloop
  endfacet
  facet normal 8.660254e-01 5.000000e-01 -0.000000e+00
    outer loop
      vertex   -9.866487e+00 9.108729e+01 6.600000e+00
      vertex   -1.047271e+01 9.213729e+01 6.600000e+00
      vertex   -9.866487e+00 9.108729e+01 8.600000e+00
    endloop
  endfacet
  facet normal 8.660254e-01 5.000000e-01 0.000000e+00
    outer loop
      vertex   -9.866487e+00 9.108729e+01 8.600000e+00
      vertex   -1.047271e+01 9.213729e+01 6.600000e+00
      vertex   -1.047271e+01 9.213729e+01 8.600000e+00
    endloop
  endfacet
  facet normal -8.660254e-01 5.000000e-01 0.000000e+00
    outer loop
      vertex   -8.047834e+00 9.213729e+01 6.600000e+00
      vertex   -8.654052e+00 9.108729e+01 6.600000e+00
      vertex   -8.047834e+00 9.213729e+01 8.600000e+00
    endloop
  endfacet
  facet normal -8.660254e-01 5.000000e-01 0.000000e+00
    outer loop
      vertex   -8.047834e+00 9.213729e+01 8.600000e+00
      vertex   -8.654052e+00 9.108729e+01 6.600000e+00
      vertex   -8.654052e+00 9.108729e+01 8.600000e+00
    endloop
  endfacet
  facet normal 0.000000e+00 1.000000e+00 -0.000000e+00
    outer loop
      vertex   -8.654052e+00 9.108729e+01 6.600000e+00
      vertex   -9.866487e+00 9.108729e+01 6.600000e+00
      vertex   -8.654052e+00 9.108729e+01 8.600000e+00
    endloop
  endfacet
  facet normal 0.000000e+00 1.000000e+00 0.000000e+00
    outer loop
      vertex   -8.654052e+00 9.108729e+01 8.600000e+00
      vertex   -9.866487e+00 9.108729e+01 6.600000e+00
      vertex   -9.866487e+00 9.108729e+01 8.600000e+00
    endloop
  endfacet
  facet normal 7.071068e-01 7.071068e-01 0.000000e+00
    outer loop
      vertex   5.173973e+01 9.413729e+01 8.600000e+00
      vertex   5.273973e+01 9.313729e+01 8.600000e+00
      vertex   5.173973e+01 9.413729e+01 6.600000e+00
    endloop
  endfacet
  facet normal 7.071068e-01 7.071068e-01 0.000000e+00
    outer loop
      vertex   5.173973e+01 9.413729e+01 6.600000e+00
      vertex   5.273973e+01 9.313729e+01 8.600000e+00
      vertex   5.273973e+01 9.313729e+01 6.600000e+00
    endloop
  endfacet
  facet normal -0.000000e+00 1.000000e+00 0.000000e+00
    outer loop
      vertex   -1.026027e+01 9.413729e+01 8.600000e+00
      vertex   5.173973e+01 9.413729e+01 8.600000e+00
      vertex   -1.026027e+01 9.413729e+01 6.600000e+00
    endloop
  endfacet
  facet normal 0.000000e+00 1.000000e+00 0.000000e+00
    outer loop
      vertex   -1.026027e+01 9.413729e+01 6.600000e+00
      vertex   5.173973e+01 9.413729e+01 8.600000e+00
      vertex   5.173973e+01 9.413729e+01 6.600000e+00
    endloop
  endfacet
  facet normal -7.071068e-01 7.071068e-01 1.256074e-15
    outer loop
      vertex   -1.126027e+01 9.313729e+01 8.600000e+00
      vertex   -1.026027e+01 9.413729e+01 8.600000e+00
      vertex   -1.126027e+01 9.313729e+01 6.600000e+00
    endloop
  endfacet
  facet normal -7.071068e-01 7.071068e-01 0.000000e+00
    outer loop
      vertex   -1.126027e+01 9.313729e+01 6.600000e+00
      vertex   -1.026027e+01 9.413729e+01 8.600000e+00
      vertex   -1.026027e+01 9.413729e+01 6.600000e+00
    endloop
  endfacet
  facet normal -1.000000e+00 1.691768e-16 0.000000e+00
    outer loop
      vertex   -1.126027e+01 7.213729e+01 8.600000e+00
      vertex   -1.126027e+01 9.313729e+01 8.600000e+00
      vertex   -1.126027e+01 7.213729e+01 6.600000e+00
    endloop
  endfacet
  facet normal -1.000000e+00 0.000000e+00 1.776357e-15
    outer loop
      vertex   -1.126027e+01 7.213729e+01 6.600000e+00
      vertex   -1.126027e+01 9.313729e+01 8.600000e+00
      vertex   -1.126027e+01 9.313729e+01 6.600000e+00
    endloop
  endfacet
  facet normal -0.000000e+00 -1.000000e+00 -0.000000e+00
    outer loop
      vertex   5.273973e+01 7.213729e+01 8.600000e+00
      vertex   -1.126027e+01 7.213729e+01 8.600000e+00
      vertex   5.273973e+01 7.213729e+01 6.600000e+00
    endloop
  endfacet
  facet normal 0.000000e+00 -1.000000e+00 0.000000e+00
    outer loop
      vertex   5.273973e+01 7.213729e+01 6.600000e+00
      vertex   -1.126027e+01 7.213729e+01 8.600000e+00
      vertex   -1.126027e+01 7.213729e+01 6.600000e+00
    endloop
  endfacet
  facet normal 1.000000e+00 0.000000e+00 0.000000e+00
    outer loop
      vertex   5.273973e+01 9.313729e+01 8.600000e+00
      vertex   5.273973e+01 7.213729e+01 8.600000e+00
      vertex   5.273973e+01 9.313729e+01 6.600000e+00
    endloop
  endfacet
  facet normal 1.000000e+00 0.000000e+00 0.000000e+00
    outer loop
      vertex   5.273973e+01 9.313729e+01 6.600000e+00
      vertex   5.273973e+01 7.213729e+01 8.600000e+00
      vertex   5.273973e+01 7.213729e+01 6.600000e+00
    endloop
  endfacet
  facet normal 0.000000e+00 0.000000e+00 -1.000000e+00
    outer loop
      vertex   5.013351e+01 9.108729e+01 6.600000e+00
      vertex   -8.654052e+00 9.108729e+01 6.600000e+00
      vertex   4.952729e+01 9.213729e+01 6.600000e+00
    endloop
  endfacet
  facet normal -0.000000e+00 0.000000e+00 -1.000000e+00
    outer loop
      vertex   4.952729e+01 9.213729e+01 6.600000e+00
      vertex   -8.654052e+00 9.108729e+01 6.600000e+00
      vertex   -8.047834e+00 9.213729e+01 6.600000e+00
    endloop
  endfacet
  facet normal 0.000000e+00 0.000000e+00 -1.000000e+00
    outer loop
      vertex   4.952729e+01 9.213729e+01 6.600000e+00
      vertex   -8.047834e+00 9.213729e+01 6.600000e+00
      vertex   5.013351e+01 9.318729e+01 6.600000e+00
    endloop
  endfacet
  facet normal -0.000000e+00 0.000000e+00 -1.000000e+00
    outer loop
      vertex   5.013351e+01 9.318729e+01 6.600000e+00
      vertex   -8.047834e+00 9.213729e+01 6.600000e+00
      vertex   -8.654052e+00 9.318729e+01 6.600000e+00
    endloop
  endfacet
  facet normal 0.000000e+00 0.000000e+00 -1.000000e+00
    outer loop
      vertex   5.013351e+01 9.318729e+01 6.600000e+00
      vertex   -8.654052e+00 9.318729e+01 6.600000e+00
      vertex   5.173973e+01 9.413729e+01 6.600000e+00
    endloop
  endfacet
  facet normal -0.000000e+00 0.000000e+00 -1.000000e+00
    outer loop
      vertex   5.173973e+01 9.413729e+01 6.600000e+00
      vertex   -8.654052e+00 9.318729e+01 6.600000e+00
      vertex   -1.026027e+01 9.413729e+01 6.600000e+00
    endloop
  endfacet
  facet normal 0.000000e+00 0.000000e+00 -1.000000e+00
    outer loop
      vertex   -1.026027e+01 9.413729e+01 6.600000e+00
      vertex   -8.654052e+00 9.318729e+01 6.600000e+00
      vertex   -9.866487e+00 9.318729e+01 6.600000e+00
    endloop
  endfacet
  facet normal 0.000000e+00 -0.000000e+00 -1.000000e+00
    outer loop
      vertex   -1.026027e+01 9.413729e+01 6.600000e+00
      vertex   -9.866487e+00 9.318729e+01 6.600000e+00
      vertex   -1.126027e+01 9.313729e+01 6.600000e+00
    endloop
  endfacet
  facet normal 0.000000e+00 0.000000e+00 -1.000000e+00
    outer loop
      vertex   -1.126027e+01 9.313729e+01 6.600000e+00
      vertex   -9.866487e+00 9.318729e+01 6.600000e+00
      vertex   -1.047271e+01 9.213729e+01 6.600000e+00
    endloop
  endfacet
  facet normal 0.000000e+00 0.000000e+00 -1.000000e+00
    outer loop
      vertex   -1.126027e+01 9.313729e+01 6.600000e+00
      vertex   -1.047271e+01 9.213729e+01 6.600000e+00
      vertex   -9.866487e+00 9.108729e+01 6.600000e+00
    endloop
  endfacet
  facet normal 0.000000e+00 0.000000e+00 -1.000000e+00
    outer loop
      vertex   -8.654052e+00 9.108729e+01 6.600000e+00
      vertex   5.013351e+01 9.108729e+01 6.600000e+00
      vertex   5.013351e+01 7.818729e+01 6.600000e+00
    endloop
  endfacet
  facet normal 0.000000e+00 0.000000e+00 -1.000000e+00
    outer loop
      vertex   5.013351e+01 7.818729e+01 6.600000e+00
      vertex   5.013351e+01 9.108729e+01 6.600000e+00
      vertex   5.134595e+01 9.108729e+01 6.600000e+00
    endloop
  endfacet
  facet normal 0.000000e+00 0.000000e+00 -1.000000e+00
    outer loop
      vertex   5.013351e+01 7.818729e+01 6.600000e+00
      vertex   5.134595e+01 9.108729e+01 6.600000e+00
      vertex   5.134595e+01 7.818729e+01 6.600000e+00
    endloop
  endfacet
  facet normal 0.000000e+00 0.000000e+00 -1.000000e+00
    outer loop
      vertex   5.134595e+01 7.818729e+01 6.600000e+00
      vertex   5.134595e+01 9.108729e+01 6.600000e+00
      vertex   5.273973e+01 9.313729e+01 6.600000e+00
    endloop
  endfacet
  facet normal 0.000000e+00 0.000000e+00 -1.000000e+00
    outer loop
      vertex   5.134595e+01 7.818729e+01 6.600000e+00
      vertex   5.273973e+01 9.313729e+01 6.600000e+00
      vertex   5.195217e+01 7.713729e+01 6.600000e+00
    endloop
  endfacet
  facet normal 0.000000e+00 0.000000e+00 -1.000000e+00
    outer loop
      vertex   5.195217e+01 7.713729e+01 6.600000e+00
      vertex   5.273973e+01 9.313729e+01 6.600000e+00
      vertex   5.273973e+01 7.213729e+01 6.600000e+00
    endloop
  endfacet
  facet normal 0.000000e+00 -0.000000e+00 -1.000000e+00
    outer loop
      vertex   5.195217e+01 7.713729e+01 6.600000e+00
      vertex   5.273973e+01 7.213729e+01 6.600000e+00
      vertex   5.134595e+01 7.608729e+01 6.600000e+00
    endloop
  endfacet
  facet normal -0.000000e+00 -0.000000e+00 -1.000000e+00
    outer loop
      vertex   5.134595e+01 7.608729e+01 6.600000e+00
      vertex   5.273973e+01 7.213729e+01 6.600000e+00
      vertex   5.013351e+01 7.608729e+01 6.600000e+00
    endloop
  endfacet
  facet normal 0.000000e+00 -0.000000e+00 -1.000000e+00
    outer loop
      vertex   5.013351e+01 7.608729e+01 6.600000e+00
      vertex   5.273973e+01 7.213729e+01 6.600000e+00
      vertex   -1.126027e+01 7.213729e+01 6.600000e+00
    endloop
  endfacet
  facet normal -0.000000e+00 0.000000e+00 -1.000000e+00
    outer loop
      vertex   5.013351e+01 7.608729e+01 6.600000e+00
      vertex   -1.126027e+01 7.213729e+01 6.600000e+00
      vertex   4.952729e+01 7.713729e+01 6.600000e+00
    endloop
  endfacet
  facet normal -0.000000e+00 0.000000e+00 -1.000000e+00
    outer loop
      vertex   4.952729e+01 7.713729e+01 6.600000e+00
      vertex   -1.126027e+01 7.213729e+01 6.600000e+00
      vertex   5.013351e+01 7.818729e+01 6.600000e+00
    endloop
  endfacet
  facet normal -0.000000e+00 0.000000e+00 -1.000000e+00
    outer loop
      vertex   5.013351e+01 7.818729e+01 6.600000e+00
      vertex   -1.126027e+01 7.213729e+01 6.600000e+00
      vertex   -8.654052e+00 9.108729e+01 6.600000e+00
    endloop
  endfacet
  facet normal 0.000000e+00 0.000000e+00 -1.000000e+00
    outer loop
      vertex   5.134595e+01 9.108729e+01 6.600000e+00
      vertex   5.195217e+01 9.213729e+01 6.600000e+00
      vertex   5.273973e+01 9.313729e+01 6.600000e+00
    endloop
  endfacet
  facet normal -0.000000e+00 0.000000e+00 -1.000000e+00
    outer loop
      vertex   5.273973e+01 9.313729e+01 6.600000e+00
      vertex   5.195217e+01 9.213729e+01 6.600000e+00
      vertex   5.134595e+01 9.318729e+01 6.600000e+00
    endloop
  endfacet
  facet normal 0.000000e+00 0.000000e+00 -1.000000e+00
    outer loop
      vertex   5.273973e+01 9.313729e+01 6.600000e+00
      vertex   5.134595e+01 9.318729e+01 6.600000e+00
      vertex   5.173973e+01 9.413729e+01 6.600000e+00
    endloop
  endfacet
  facet normal 0.000000e+00 0.000000e+00 -1.000000e+00
    outer loop
      vertex   5.173973e+01 9.413729e+01 6.600000e+00
      vertex   5.134595e+01 9.318729e+01 6.600000e+00
      vertex   5.013351e+01 9.318729e+01 6.600000e+00
    endloop
  endfacet
  facet normal 0.000000e+00 0.000000e+00 -1.000000e+00
    outer loop
      vertex   -1.126027e+01 9.313729e+01 6.600000e+00
      vertex   -9.866487e+00 9.108729e+01 6.600000e+00
      vertex   -1.126027e+01 7.213729e+01 6.600000e+00
    endloop
  endfacet
  facet normal 0.000000e+00 0.000000e+00 -1.000000e+00
    outer loop
      vertex   -1.126027e+01 7.213729e+01 6.600000e+00
      vertex   -9.866487e+00 9.108729e+01 6.600000e+00
      vertex   -8.654052e+00 9.108729e+01 6.600000e+00
    endloop
  endfacet
  facet normal 0.000000e+00 0.000000e+00 1.000000e+00
    outer loop
      vertex   4.952729e+01 9.213729e+01 8.600000e+00
      vertex   -8.047834e+00 9.213729e+01 8.600000e+00
      vertex   5.013351e+01 9.108729e+01 8.600000e+00
    endloop
  endfacet
  facet normal 0.000000e+00 0.000000e+00 1.000000e+00
    outer loop
      vertex   5.013351e+01 9.108729e+01 8.600000e+00
      vertex   -8.047834e+00 9.213729e+01 8.600000e+00
      vertex   -8.654052e+00 9.108729e+01 8.600000e+00
    endloop
  endfacet
  facet normal 0.000000e+00 0.000000e+00 1.000000e+00
    outer loop
      vertex   5.013351e+01 9.108729e+01 8.600000e+00
      vertex   -8.654052e+00 9.108729e+01 8.600000e+00
      vertex   5.013351e+01 7.818729e+01 8.600000e+00
    endloop
  endfacet
  facet normal 0.000000e+00 0.000000e+00 1.000000e+00
    outer loop
      vertex   5.013351e+01 7.818729e+01 8.600000e+00
      vertex   -8.654052e+00 9.108729e+01 8.600000e+00
      vertex   -1.126027e+01 7.213729e+01 8.600000e+00
    endloop
  endfacet
  facet normal 0.000000e+00 0.000000e+00 1.000000e+00
    outer loop
      vertex   5.013351e+01 7.818729e+01 8.600000e+00
      vertex   -1.126027e+01 7.213729e+01 8.600000e+00
      vertex   4.952729e+01 7.713729e+01 8.600000e+00
    endloop
  endfacet
  facet normal 0.000000e+00 0.000000e+00 1.000000e+00
    outer loop
      vertex   4.952729e+01 7.713729e+01 8.600000e+00
      vertex   -1.126027e+01 7.213729e+01 8.600000e+00
      vertex   5.013351e+01 7.608729e+01 8.600000e+00
    endloop
  endfacet
  facet normal 0.000000e+00 0.000000e+00 1.000000e+00
    outer loop
      vertex   5.013351e+01 7.608729e+01 8.600000e+00
      vertex   -1.126027e+01 7.213729e+01 8.600000e+00
      vertex   5.273973e+01 7.213729e+01 8.600000e+00
    endloop
  endfacet
  facet normal -0.000000e+00 0.000000e+00 1.000000e+00
    outer loop
      vertex   5.013351e+01 7.608729e+01 8.600000e+00
      vertex   5.273973e+01 7.213729e+01 8.600000e+00
      vertex   5.134595e+01 7.608729e+01 8.600000e+00
    endloop
  endfacet
  facet normal -0.000000e+00 0.000000e+00 1.000000e+00
    outer loop
      vertex   5.134595e+01 7.608729e+01 8.600000e+00
      vertex   5.273973e+01 7.213729e+01 8.600000e+00
      vertex   5.195217e+01 7.713729e+01 8.600000e+00
    endloop
  endfacet
  facet normal -0.000000e+00 0.000000e+00 1.000000e+00
    outer loop
      vertex   5.195217e+01 7.713729e+01 8.600000e+00
      vertex   5.273973e+01 7.213729e+01 8.600000e+00
      vertex   5.273973e+01 9.313729e+01 8.600000e+00
    endloop
  endfacet
  facet normal 0.000000e+00 -0.000000e+00 1.000000e+00
    outer loop
      vertex   5.195217e+01 7.713729e+01 8.600000e+00
      vertex   5.273973e+01 9.313729e+01 8.600000e+00
      vertex   5.134595e+01 7.818729e+01 8.600000e+00
    endloop
  endfacet
  facet normal 0.000000e+00 -0.000000e+00 1.000000e+00
    outer loop
      vertex   5.134595e+01 7.818729e+01 8.600000e+00
      vertex   5.273973e+01 9.313729e+01 8.600000e+00
      vertex   5.134595e+01 9.108729e+01 8.600000e+00
    endloop
  endfacet
  facet normal 0.000000e+00 0.000000e+00 1.000000e+00
    outer loop
      vertex   5.134595e+01 7.818729e+01 8.600000e+00
      vertex   5.134595e+01 9.108729e+01 8.600000e+00
      vertex   5.013351e+01 9.108729e+01 8.600000e+00
    endloop
  endfacet
  facet normal 0.000000e+00 -0.000000e+00 1.000000e+00
    outer loop
      vertex   -8.047834e+00 9.213729e+01 8.600000e+00
      vertex   4.952729e+01 9.213729e+01 8.600000e+00
      vertex   -8.654052e+00 9.318729e+01 8.600000e+00
    endloop
  endfacet
  facet normal -0.000000e+00 0.000000e+00 1.000000e+00
    outer loop
      vertex   -8.654052e+00 9.318729e+01 8.600000e+00
      vertex   4.952729e+01 9.213729e+01 8.600000e+00
      vertex   5.013351e+01 9.318729e+01 8.600000e+00
    endloop
  endfacet
  facet normal 0.000000e+00 -0.000000e+00 1.000000e+00
    outer loop
      vertex   -8.654052e+00 9.318729e+01 8.600000e+00
      vertex   5.013351e+01 9.318729e+01 8.600000e+00
      vertex   -1.026027e+01 9.413729e+01 8.600000e+00
    endloop
  endfacet
  facet normal -0.000000e+00 0.000000e+00 1.000000e+00
    outer loop
      vertex   -1.026027e+01 9.413729e+01 8.600000e+00
      vertex   5.013351e+01 9.318729e+01 8.600000e+00
      vertex   5.173973e+01 9.413729e+01 8.600000e+00
    endloop
  endfacet
  facet normal 0.000000e+00 0.000000e+00 1.000000e+00
    outer loop
      vertex   5.173973e+01 9.413729e+01 8.600000e+00
      vertex   5.013351e+01 9.318729e+01 8.600000e+00
      vertex   5.134595e+01 9.318729e+01 8.600000e+00
    endloop
  endfacet
  facet normal 0.000000e+00 0.000000e+00 1.000000e+00
    outer loop
      vertex   5.173973e+01 9.413729e+01 8.600000e+00
      vertex   5.134595e+01 9.318729e+01 8.600000e+00
      vertex   5.273973e+01 9.313729e+01 8.600000e+00
    endloop
  endfacet
  facet normal 0.000000e+00 0.000000e+00 1.000000e+00
    outer loop
      vertex   5.273973e+01 9.313729e+01 8.600000e+00
      vertex   5.134595e+01 9.318729e+01 8.600000e+00
      vertex   5.195217e+01 9.213729e+01 8.600000e+00
    endloop
  endfacet
  facet normal 0.000000e+00 0.000000e+00 1.000000e+00
    outer loop
      vertex   5.273973e+01 9.313729e+01 8.600000e+00
      vertex   5.195217e+01 9.213729e+01 8.600000e+00
      vertex   5.134595e+01 9.108729e+01 8.600000e+00
    endloop
  endfacet
  facet normal 0.000000e+00 -0.000000e+00 1.000000e+00
    outer loop
      vertex   5.013351e+01 7.818729e+01 8.600000e+00
      vertex   5.134595e+01 7.818729e+01 8.600000e+00
      vertex   5.013351e+01 9.108729e+01 8.600000e+00
    endloop
  endfacet
  facet normal 0.000000e+00 0.000000e+00 1.000000e+00
    outer loop
      vertex   -1.047271e+01 9.213729e+01 8.600000e+00
      vertex   -1.126027e+01 9.313729e+01 8.600000e+00
      vertex   -9.866487e+00 9.108729e+01 8.600000e+00
    endloop
  endfacet
  facet normal 0.000000e+00 0.000000e+00 1.000000e+00
    outer loop
      vertex   -9.866487e+00 9.108729e+01 8.600000e+00
      vertex   -1.126027e+01 9.313729e+01 8.600000e+00
      vertex   -1.126027e+01 7.213729e+01 8.600000e+00
    endloop
  endfacet
  facet normal -0.000000e+00 0.000000e+00 1.000000e+00
    outer loop
      vertex   -9.866487e+00 9.108729e+01 8.600000e+00
      vertex   -1.126027e+01 7.213729e+01 8.600000e+00
      vertex   -8.654052e+00 9.108729e+01 8.600000e+00
    endloop
  endfacet
  facet normal 0.000000e+00 -0.000000e+00 1.000000e+00
    outer loop
      vertex   -1.047271e+01 9.213729e+01 8.600000e+00
      vertex   -9.866487e+00 9.318729e+01 8.600000e+00
      vertex   -1.126027e+01 9.313729e+01 8.600000e+00
    endloop
  endfacet
  facet normal 0.000000e+00 0.000000e+00 1.000000e+00
    outer loop
      vertex   -1.126027e+01 9.313729e+01 8.600000e+00
      vertex   -9.866487e+00 9.318729e+01 8.600000e+00
      vertex   -1.026027e+01 9.413729e+01 8.600000e+00
    endloop
  endfacet
  facet normal 0.000000e+00 0.000000e+00 1.000000e+00
    outer loop
      vertex   -1.026027e+01 9.413729e+01 8.600000e+00
      vertex   -9.866487e+00 9.318729e+01 8.600000e+00
      vertex   -8.654052e+00 9.318729e+01 8.600000e+00
    endloop
  endfacet
endsolid
