0
SECTION
2
HEADER
9
$INSUNITS
70
4
9
$ACADVER
1
AC1014
9
$HANDSEED
5
FFFF
0
ENDSEC
0
SECTION
2
TABLES
0
TABLE
2
VPORT
5
8
100
AcDbSymbolTable
0
ENDTAB
0
TABLE
2
LTYPE
5
5
100
AcDbSymbolTable
0
LTYPE
5
14
100
AcDbSymbolTableRecord
100
AcDbLinetypeTableRecord
2
BYBLOCK
70
0
0
LTYPE
5
15
100
AcDbSymbolTableRecord
100
AcDbLinetypeTableRecord
2
BYLAYER
70
0
0
ENDTAB
0
TABLE
2
LAYER
5
2
100
AcDbSymbolTable
70
2
0
LAYER
5
50
100
AcDbSymbolTableRecord
100
AcDbLayerTableRecord
2
0
70
0
6
CONTINUOUS
0
ENDTAB
0
TABLE
2
STYLE
5
3
100
AcDbSymbolTable
70
1
0
STYLE
5
11
100
AcDbSymbolTableRecord
100
AcDbTextStyleTableRecord
2
STANDARD
70
0
0
ENDTAB
0
TABLE
2
VIEW
5
6
100
AcDbSymbolTable
70
0
0
ENDTAB
0
TABLE
2
UCS
5
7
100
AcDbSymbolTable
70
0
0
ENDTAB
0
TABLE
2
APPID
5
9
100
AcDbSymbolTable
70
2
0
APPID
5
12
100
AcDbSymbolTableRecord
100
AcDbRegAppTableRecord
2
ACAD
70
0
0
ENDTAB
0
TABLE
2
DIMSTYLE
5
A
100
AcDbSymbolTable
70
1
0
ENDTAB
0
TABLE
2
BLOCK_RECORD
5
1
100
AcDbSymbolTable
70
1
0
BLOCK_RECORD
5
1F
100
AcDbSymbolTableRecord
100
AcDbBlockTableRecord
2
*MODEL_SPACE
0
BLOCK_RECORD
5
1B
100
AcDbSymbolTableRecord
100
AcDbBlockTableRecord
2
*PAPER_SPACE
0
ENDTAB
0
ENDSEC
0
SECTION
2
BLOCKS
0
BLOCK
5
20
100
AcDbEntity
100
AcDbBlockBegin
2
*MODEL_SPACE
0
ENDBLK
5
21
100
AcDbEntity
100
AcDbBlockEnd
0
BLOCK
5
1C
100
AcDbEntity
100
AcDbBlockBegin
2
*PAPER_SPACE
0
ENDBLK
5
1D
100
AcDbEntity
100
AcDbBlockEnd
0
ENDSEC
0
SECTION
2
ENTITIES
0
LWPOLYLINE
5
100
100
AcDbEntity
8
0
100
AcDbPolyline
90
4
70
1
43
0.0
10
49.29840972132736
20
-6.445178140972132
10
35.298409721327353
20
-6.445178140972132
10
35.298409721327353
20
-20.445178140972118
10
49.29840972132736
20
-20.445178140972118
0
LWPOLYLINE
5
101
100
AcDbEntity
8
0
100
AcDbPolyline
90
4
70
1
43
0.0
10
68.226777668067172
20
-6.4715494903904158
10
54.226777668067143
20
-6.4715494903904158
10
54.226777668067143
20
-20.471549490390437
10
68.226777668067172
20
-20.471549490390437
0
LWPOLYLINE
5
102
100
AcDbEntity
8
0
100
AcDbPolyline
90
4
70
1
43
0.0
10
-31.619257331932822
20
-25.449141490390446
10
-45.619257331932843
20
-25.449141490390446
10
-45.619257331932843
20
-39.449141490390431
10
-31.619257331932822
20
-39.449141490390431
0
LWPOLYLINE
5
103
100
AcDbEntity
8
0
100
AcDbPolyline
90
4
70
1
43
0.0
10
-12.569275331932879
20
-25.449141490390446
10
-26.569275331932829
20
-25.449141490390446
10
-26.569275331932829
20
-39.449141490390431
10
-12.569275331932879
20
-39.449141490390431
0
LWPOLYLINE
5
104
100
AcDbEntity
8
0
100
AcDbPolyline
90
4
70
1
43
0.0
10
68.465537668067157
20
-44.429273490390457
10
54.465537668067157
20
-44.429273490390457
10
54.465537668067157
20
-58.429273490390443
10
68.465537668067157
20
-58.429273490390443
0
LWPOLYLINE
5
105
100
AcDbEntity
8
0
100
AcDbPolyline
90
4
70
1
43
0.0
10
49.344435668067192
20
-44.500393490390451
10
35.344435668067185
20
-44.500393490390451
10
35.344435668067185
20
-58.500393490390437
10
49.344435668067192
20
-58.500393490390437
0
LWPOLYLINE
5
106
100
AcDbEntity
8
0
100
AcDbPolyline
90
4
70
1
43
0.0
10
30.294453668067192
20
-44.500393490390451
10
16.29445366806717
20
-44.500393490390451
10
16.29445366806717
20
-58.500393490390437
10
30.294453668067192
20
-58.500393490390437
0
LWPOLYLINE
5
107
100
AcDbEntity
8
0
100
AcDbPolyline
90
4
70
1
43
0.0
10
11.244472168067166
20
-44.500393490390451
10
-2.755527831932838
20
-44.500393490390451
10
-2.755527831932838
20
-58.500393490390437
10
11.244472168067166
20
-58.500393490390437
0
LWPOLYLINE
5
108
100
AcDbEntity
8
0
100
AcDbPolyline
90
4
70
1
43
0.0
10
-7.8055098319328309
20
-44.500393490390451
10
-21.805509831932817
20
-44.500393490390451
10
-21.805509831932817
20
-58.500393490390437
10
-7.8055098319328309
20
-58.500393490390437
0
LWPOLYLINE
5
109
100
AcDbEntity
8
0
100
AcDbPolyline
90
4
70
1
43
0.0
10
-26.855491331932839
20
-44.500393490390451
10
-40.855491331932825
20
-44.500393490390451
10
-40.855491331932825
20
-58.500393490390437
10
-26.855491331932839
20
-58.500393490390437
0
LWPOLYLINE
5
110
100
AcDbEntity
8
0
100
AcDbPolyline
90
4
70
1
43
0.0
10
63.631922168067177
20
-25.449141490390446
10
49.631922168067177
20
-25.449141490390446
10
49.631922168067177
20
-39.449141490390431
10
63.631922168067177
20
-39.449141490390431
0
LWPOLYLINE
5
111
100
AcDbEntity
8
0
100
AcDbPolyline
90
4
70
1
43
0.0
10
25.531958668067176
20
-25.449141490390446
10
11.531958668067173
20
-25.449141490390446
10
11.531958668067173
20
-39.449141490390431
10
25.531958668067176
20
-39.449141490390431
0
LWPOLYLINE
5
112
100
AcDbEntity
8
0
100
AcDbPolyline
90
4
70
1
43
0.0
10
44.581940168067185
20
-25.449141490390446
10
30.581940168067181
20
-25.449141490390446
10
30.581940168067181
20
-39.449141490390431
10
44.581940168067185
20
-39.449141490390431
0
LWPOLYLINE
5
113
100
AcDbEntity
8
0
100
AcDbPolyline
90
4
70
1
43
0.0
10
6.481976668067162
20
-25.449141490390446
10
-7.5180233319328238
20
-25.449141490390446
10
-7.5180233319328238
20
-39.449141490390431
10
6.481976668067162
20
-39.449141490390431
0
CIRCLE
5
114
100
AcDbEntity
8
0
100
AcDbCircle
10
74.759914668067168
20
-1.649730018690363
30
0
40
1.0500000000000131
210
0
220
-0
230
1
0
CIRCLE
5
115
100
AcDbEntity
8
0
100
AcDbCircle
10
74.759914668067168
20
-33.143510254540445
30
0
40
1.0500000000000043
210
0
220
-0
230
1
0
CIRCLE
5
116
100
AcDbEntity
8
0
100
AcDbCircle
10
59.275288031019628
20
19.363516231778277
30
0
40
1.0500000000000043
210
0
220
-0
230
1
0
CIRCLE
5
117
100
AcDbEntity
8
0
100
AcDbCircle
10
13.018522849543377
20
19.362883876423318
30
0
40
1.0500000000000043
210
0
220
-0
230
1
0
CIRCLE
5
118
100
AcDbEntity
8
0
100
AcDbCircle
10
-33.238242331932852
20
21.862231015453233
30
0
40
1.0500000000000043
210
0
220
-0
230
1
0
CIRCLE
5
119
100
AcDbEntity
8
0
100
AcDbCircle
10
-61.239701331932821
20
24.362210509609561
30
0
40
1.0500000000000043
210
0
220
-0
230
1
0
CIRCLE
5
120
100
AcDbEntity
8
0
100
AcDbCircle
10
-56.239715831932848
20
-2.635949490390459
30
0
40
1.0500000000000043
210
0
220
-0
230
1
0
CIRCLE
5
121
100
AcDbEntity
8
0
100
AcDbCircle
10
-51.23973033193284
20
-33.636619990390457
30
0
40
1.0500000000000043
210
0
220
-0
230
1
0
CIRCLE
5
122
100
AcDbEntity
8
0
100
AcDbCircle
10
-51.23973033193284
20
-64.637290490390484
30
0
40
1.0500000000000043
210
0
220
-0
230
1
0
LWPOLYLINE
5
123
100
AcDbEntity
8
0
100
AcDbPolyline
90
4
70
1
43
0.0
10
-26.855491331932839
20
-6.3991599903904373
10
-40.855491331932825
20
-6.3991599903904373
10
-40.855491331932825
20
-20.399159990390459
10
-26.855491331932839
20
-20.399159990390459
0
LWPOLYLINE
5
124
100
AcDbEntity
8
0
100
AcDbPolyline
90
4
70
1
43
0.0
10
54.106931168067192
20
12.650822009609541
10
40.106931168067192
20
12.650822009609541
10
40.106931168067192
20
-1.3491779903904444
10
54.106931168067192
20
-1.3491779903904444
0
LWPOLYLINE
5
125
100
AcDbEntity
8
0
100
AcDbPolyline
90
4
70
1
43
0.0
10
35.056949668067183
20
12.650822009609541
10
21.056949668067162
20
12.650822009609541
10
21.056949668067162
20
-1.3491779903904444
10
35.056949668067183
20
-1.3491779903904444
0
LWPOLYLINE
5
126
100
AcDbEntity
8
0
100
AcDbPolyline
90
4
70
1
43
0.0
10
16.006967668067169
20
12.650822009609541
10
2.0069676680671655
20
12.650822009609541
10
2.0069676680671655
20
-1.3491779903904444
10
16.006967668067169
20
-1.3491779903904444
0
LWPOLYLINE
5
127
100
AcDbEntity
8
0
100
AcDbPolyline
90
4
70
1
43
0.0
10
-3.0430143319328273
20
12.650822009609541
10
-17.043014331932831
20
12.650822009609541
10
-17.043014331932831
20
-1.3491779903904444
10
-3.0430143319328273
20
-1.3491779903904444
0
LWPOLYLINE
5
128
100
AcDbEntity
8
0
100
AcDbPolyline
90
4
70
1
43
0.0
10
-22.09426633193285
20
12.650822009609541
10
-36.094266331932836
20
12.650822009609541
10
-36.094266331932836
20
-1.3491779903904444
10
-22.09426633193285
20
-1.3491779903904444
0
LWPOLYLINE
5
129
100
AcDbEntity
8
0
100
AcDbPolyline
90
4
70
1
43
0.0
10
-41.144248331932829
20
17.412047509609536
10
-55.14424833193285
20
17.412047509609536
10
-55.14424833193285
20
3.4120475096095504
10
-41.144248331932829
20
3.4120475096095504
0
CIRCLE
5
130
100
AcDbEntity
8
0
100
AcDbCircle
10
74.759914668067168
20
-64.637290490390484
30
0
40
1.0500000000000043
210
0
220
-0
230
1
0
CIRCLE
5
131
100
AcDbEntity
8
0
100
AcDbCircle
10
11.760092168067207
20
-64.637290490390484
30
0
40
1.0500000000000043
210
0
220
-0
230
1
0
LWPOLYLINE
5
132
100
AcDbEntity
8
0
100
AcDbPolyline
90
4
70
1
43
0.0
10
-7.8055098319328309
20
-6.3991599903904373
10
-21.805509831932817
20
-6.3991599903904373
10
-21.805509831932817
20
-20.399159990390459
10
-7.8055098319328309
20
-20.399159990390459
0
LWPOLYLINE
5
133
100
AcDbEntity
8
0
100
AcDbPolyline
90
4
70
1
43
0.0
10
11.244472168067166
20
-6.3991599903904373
10
-2.755527831932838
20
-6.3991599903904373
10
-2.755527831932838
20
-20.399159990390459
10
11.244472168067166
20
-20.399159990390459
0
LWPOLYLINE
5
134
100
AcDbEntity
8
0
100
AcDbPolyline
90
4
70
1
43
0.0
10
30.294453668067192
20
-6.3991599903904373
10
16.29445366806717
20
-6.3991599903904373
10
16.29445366806717
20
-20.399159990390459
10
30.294453668067192
20
-20.399159990390459
0
LWPOLYLINE
5
135
100
AcDbEntity
8
0
100
AcDbPolyline
90
9
70
1
43
0.0
10
60.538487499859727
20
21.863533500641594
10
77.259914668067168
20
-0.82809962560698835
10
77.259914668067168
20
-67.137290490390484
10
-53.73973033193284
20
-67.137290490390484
10
-53.73973033193284
20
-5.135949490390459
10
-63.739701331932821
20
-5.135949490390459
10
-63.739701331932821
20
26.862210509609561
10
-30.738242331932852
20
26.862210509609561
10
-30.738242331932852
20
21.862285697673407
0
ENDSEC
0
SECTION
2
OBJECTS
0
DICTIONARY
5
C
100
AcDbDictionary
3
ACAD_GROUP
350
D
3
ACAD_MLINESTYLE
350
17
0
DICTIONARY
5
D
100
AcDbDictionary
0
DICTIONARY
5
1A
330
C
100
AcDbDictionary
0
DICTIONARY
5
17
100
AcDbDictionary
0
ENDSEC
0
EOF
