M48
; DRILL file {KiCad (5.1.2)-2} date 2020/04/10 0:13:08
; FORMAT={3:3/ absolute / metric / suppress leading zeros}
; #@! TF.CreationDate,2020-04-10T00:13:08+09:00
; #@! TF.GenerationSoftware,Kicad,Pcbnew,(5.1.2)-2
FMAT,2
METRIC,TZ
T1C0.400
T2C0.813
T3C1.000
T4C1.300
T5C1.499
T6C1.200
T7C1.702
T8C3.988
%
G90
G05
T1
X19000Y-98000
X19000Y-135000
X23654Y-89139
X33000Y-154000
X78750Y-154250
X83344Y-52388
X84535Y-78582
X86916Y-78582
X91679Y-82153
X94060Y-133351
X98822Y-82153
X100013Y-78582
X102394Y-76200
X104500Y-63000
X104500Y-75500
X108347Y-60722
X108347Y-63103
X108347Y-75010
X110729Y-77391
X115570Y-118110
X117872Y-66675
X118110Y-116840
X119063Y-70247
X119063Y-72628
X120254Y-60722
X120254Y-67866
X122635Y-101775
X123826Y-76200
X124000Y-154000
X126207Y-76200
X126207Y-80963
X129779Y-77391
X132160Y-77391
X133000Y-98000
X133000Y-133000
X134541Y-91679
X165750Y-97500
X166250Y-133500
X170260Y-86916
X174750Y-154500
X175023Y-102394
X179785Y-70247
X192882Y-83344
X194500Y-64000
X203598Y-95250
X209551Y-57150
X209551Y-90488
X220250Y-154500
X227410Y-89297
X246460Y-89297
X265500Y-154500
X280000Y-97750
X280000Y-135250
T2
X35719Y-85107
X35719Y-91107
X113110Y-120826
X113110Y-126826
X188120Y-123206
X188120Y-129206
X88107Y-142257
X88107Y-148257
X211773Y-142256
X211773Y-148256
X182992Y-54349
X182992Y-69569
X185532Y-54349
X185532Y-69569
X188072Y-54349
X188072Y-69569
X190612Y-54349
X190612Y-69569
X193152Y-54349
X193152Y-69569
X195692Y-54349
X195692Y-69569
X198232Y-54349
X198232Y-69569
X200772Y-54349
X200772Y-69569
X203312Y-54349
X203312Y-69569
X205852Y-54349
X205852Y-69569
X208392Y-54349
X208392Y-69569
X210932Y-54349
X210932Y-69569
X206693Y-85106
X206693Y-91106
X73819Y-85107
X73819Y-91107
X192723Y-142256
X192723Y-148256
X87916Y-54256
X87916Y-69476
X90456Y-54256
X90456Y-69476
X92996Y-54256
X92996Y-69476
X95536Y-54256
X95536Y-69476
X98076Y-54256
X98076Y-69476
X100616Y-54256
X100616Y-69476
X103156Y-54256
X103156Y-69476
X105696Y-54256
X105696Y-69476
X108236Y-54256
X108236Y-69476
X110776Y-54256
X110776Y-69476
X113316Y-54256
X113316Y-69476
X115856Y-54256
X115856Y-69476
X73819Y-123207
X73819Y-129207
X206693Y-123206
X206693Y-129206
X125016Y-142257
X125016Y-148257
X244793Y-123206
X244793Y-129206
X244793Y-85106
X244793Y-91106
X249873Y-142256
X249873Y-148256
X97632Y-104157
X97632Y-110157
X59532Y-104157
X59532Y-110157
X185738Y-120207
X185738Y-126207
X35719Y-123207
X35719Y-129207
X50007Y-142257
X50007Y-148257
X115491Y-104157
X115491Y-110157
X107157Y-142257
X107157Y-148257
X183357Y-104156
X183357Y-110156
X225743Y-85106
X225743Y-91106
X220663Y-104156
X220663Y-110156
X185738Y-82725
X185738Y-88725
X188120Y-85107
X188120Y-91107
X173673Y-142256
X173673Y-148256
X92869Y-123207
X92869Y-129207
X258763Y-104156
X258763Y-110156
X40481Y-104157
X40481Y-110157
X263843Y-123206
X263843Y-129206
X171133Y-146066
X171133Y-152066
X117872Y-101775
X117872Y-107775
X54769Y-85107
X54769Y-91107
X127397Y-145829
X127397Y-151829
X110729Y-85107
X110729Y-91107
X92869Y-85107
X92869Y-91107
X181293Y-101157
X181293Y-107157
X225743Y-123206
X225743Y-129206
X69057Y-142257
X69057Y-148257
X201613Y-104156
X201613Y-110156
X78582Y-104157
X78582Y-110157
X239713Y-104156
X239713Y-110156
X110729Y-123207
X110729Y-129207
X54769Y-123207
X54769Y-129207
X263843Y-85106
X263843Y-91106
X230823Y-142256
X230823Y-148256
X113110Y-82725
X113110Y-88725
T4
X121766Y-70247
X128266Y-70247
X171693Y-76676
X178193Y-76676
T5
X133192Y-155099
X139542Y-152559
X66517Y-112237
X72867Y-109697
X189231Y-112236
X195581Y-109696
X61754Y-93187
X68104Y-90647
X95091Y-150337
X101441Y-147797
X170180Y-112236
X176530Y-109696
X118904Y-93187
X125254Y-90647
X85567Y-112237
X91917Y-109697
X270193Y-93186
X276543Y-90646
X251143Y-93186
X257493Y-90646
X28416Y-112237
X34766Y-109697
X179705Y-150336
X186055Y-147796
X42704Y-131287
X49054Y-128747
X217805Y-150336
X224155Y-147796
X270193Y-131286
X276543Y-128746
X227331Y-112236
X233681Y-109696
X123667Y-112237
X130017Y-109697
X99854Y-131287
X106204Y-128747
X37941Y-150337
X44291Y-147797
X23654Y-93187
X30004Y-90647
X193993Y-131286
X200343Y-128746
X118904Y-131287
X125254Y-128747
X246381Y-112236
X252731Y-109696
X174943Y-93186
X181293Y-90646
X47466Y-112237
X53816Y-109697
X76041Y-150337
X82391Y-147797
X236855Y-150336
X243205Y-147796
X265431Y-112236
X271781Y-109696
X56991Y-150337
X63341Y-147797
X208281Y-112236
X214631Y-109696
X193993Y-93186
X200343Y-90646
X80804Y-131287
X87154Y-128747
X213043Y-93186
X219393Y-90646
X160655Y-155098
X167005Y-152558
X213043Y-131286
X219393Y-128746
X255905Y-150336
X262255Y-147796
X42704Y-93187
X49054Y-90647
X80804Y-93187
X87154Y-90647
X99854Y-93187
X106204Y-90647
X232093Y-93186
X238443Y-90646
X23654Y-131287
X30004Y-128747
X232093Y-131286
X238443Y-128746
X104617Y-112237
X110967Y-109697
X198755Y-150336
X205105Y-147796
X174943Y-131286
X181293Y-128746
X114142Y-150337
X120492Y-147797
X61754Y-131287
X68104Y-128747
X251143Y-131286
X257493Y-128746
T6
X173673Y-53888
X173673Y-60888
X125016Y-53888
X125016Y-60888
T7
X248603Y-126206
X258763Y-126206
X130652Y-150019
X140812Y-150019
X63977Y-107157
X74137Y-107157
X186691Y-107156
X196851Y-107156
X59214Y-88107
X69374Y-88107
X92551Y-145257
X102711Y-145257
X167640Y-107156
X177800Y-107156
X116364Y-88107
X126524Y-88107
X83027Y-107157
X93187Y-107157
X267653Y-88106
X277813Y-88106
X248603Y-88106
X258763Y-88106
X25876Y-107157
X36036Y-107157
X177165Y-145256
X187325Y-145256
X40164Y-126207
X50324Y-126207
X215265Y-145256
X225425Y-145256
X267653Y-126206
X277813Y-126206
X224791Y-107156
X234951Y-107156
X121127Y-107157
X131287Y-107157
X97314Y-126207
X107474Y-126207
X35401Y-145257
X45561Y-145257
X21114Y-88107
X31274Y-88107
X191453Y-126206
X201613Y-126206
X116364Y-126207
X126524Y-126207
X243841Y-107156
X254001Y-107156
X172403Y-88106
X182563Y-88106
X44926Y-107157
X55086Y-107157
X73501Y-145257
X83661Y-145257
X234315Y-145256
X244475Y-145256
X262891Y-107156
X273051Y-107156
X54451Y-145257
X64611Y-145257
X205741Y-107156
X215901Y-107156
X191453Y-88106
X201613Y-88106
X78264Y-126207
X88424Y-126207
X210503Y-88106
X220663Y-88106
X158115Y-150018
X168275Y-150018
X210503Y-126206
X220663Y-126206
X253365Y-145256
X263525Y-145256
X40164Y-88107
X50324Y-88107
X78264Y-88107
X88424Y-88107
X97314Y-88107
X107474Y-88107
X229553Y-88106
X239713Y-88106
X21114Y-126207
X31274Y-126207
X229553Y-126206
X239713Y-126206
X102077Y-107157
X112237Y-107157
X196215Y-145256
X206375Y-145256
X172403Y-126206
X182563Y-126206
X111602Y-145257
X121762Y-145257
X59214Y-126207
X69374Y-126207
T8
X253683Y-126206
X135732Y-150019
X69057Y-107157
X191771Y-107156
X64294Y-88107
X97631Y-145257
X172720Y-107156
X121444Y-88107
X88107Y-107157
X272733Y-88106
X253683Y-88106
X30956Y-107157
X182245Y-145256
X45244Y-126207
X220345Y-145256
X272733Y-126206
X229871Y-107156
X126207Y-107157
X102394Y-126207
X40481Y-145257
X26194Y-88107
X196533Y-126206
X121444Y-126207
X248921Y-107156
X177483Y-88106
X50006Y-107157
X78581Y-145257
X239395Y-145256
X267971Y-107156
X59531Y-145257
X210821Y-107156
X196533Y-88106
X83344Y-126207
X215583Y-88106
X163195Y-150018
X215583Y-126206
X258445Y-145256
X45244Y-88107
X83344Y-88107
X102394Y-88107
X234633Y-88106
X26194Y-126207
X234633Y-126206
X107157Y-107157
X201295Y-145256
X177483Y-126206
X116682Y-145257
X64294Y-126207
T3
G00X171573Y-63938
M15
G01X171573Y-64438
M16
G05
G00X175773Y-55438
M15
G01X175773Y-55938
M16
G05
G00X175773Y-58438
M15
G01X175773Y-58938
M16
G05
G00X175773Y-62438
M15
G01X175773Y-62938
M16
G05
G00X122916Y-63938
M15
G01X122916Y-64438
M16
G05
G00X127116Y-55438
M15
G01X127116Y-55938
M16
G05
G00X127116Y-58438
M15
G01X127116Y-58938
M16
G05
G00X127116Y-62438
M15
G01X127116Y-62938
M16
G05
T0
M30
