G04 #@! TF.GenerationSoftware,KiCad,Pcbnew,(5.1.2)-2*
G04 #@! TF.CreationDate,2020-04-10T00:12:26+09:00*
G04 #@! TF.ProjectId,original_keyboard,6f726967-696e-4616-9c5f-6b6579626f61,0.1*
G04 #@! TF.SameCoordinates,Original*
G04 #@! TF.FileFunction,Profile,NP*
%FSLAX46Y46*%
G04 Gerber Fmt 4.6, Leading zero omitted, Abs format (unit mm)*
G04 Created by KiCad (PCBNEW (5.1.2)-2) date 2020-04-10 00:12:26*
%MOMM*%
%LPD*%
G04 APERTURE LIST*
%ADD10C,0.050000*%
G04 APERTURE END LIST*
D10*
X269000000Y-156000000D02*
X283000000Y-137000000D01*
X266000000Y-156000000D02*
X269000000Y-156000000D01*
X283000000Y-137000000D02*
X283000000Y-134000000D01*
X162000000Y-48815830D02*
X162000000Y-140000000D01*
X162000000Y-48815830D02*
X218000000Y-48815830D01*
X218000000Y-48815830D02*
X218000000Y-78000000D01*
X175000000Y-161000000D02*
X175000000Y-156000000D01*
X283000000Y-78000000D02*
X283000000Y-134000000D01*
X175000000Y-156000000D02*
X266000000Y-156000000D01*
X153000000Y-140000000D02*
X162000000Y-140000000D01*
X153000000Y-161000000D02*
X175000000Y-161000000D01*
X153000000Y-140000000D02*
X153000000Y-161000000D01*
X218000000Y-78000000D02*
X283000000Y-78000000D01*
X81000000Y-48815830D02*
X80962840Y-48815830D01*
X146000000Y-140000000D02*
X136000000Y-140000000D01*
X136000000Y-48815830D02*
X136000000Y-140000000D01*
X136000000Y-48815830D02*
X81000000Y-48815830D01*
X30000000Y-156000000D02*
X124000000Y-156000000D01*
X30000000Y-156000000D02*
X16000000Y-137000000D01*
X16000000Y-78000000D02*
X16000000Y-137000000D01*
X146000000Y-158000000D02*
X146000000Y-140000000D01*
X146000000Y-161000000D02*
X146000000Y-158000000D01*
X124000000Y-161000000D02*
X146000000Y-161000000D01*
X124000000Y-156000000D02*
X124000000Y-161000000D01*
X81000000Y-78000000D02*
X16000000Y-78000000D01*
X80962840Y-48815830D02*
X81000000Y-78000000D01*
M02*
