G04 #@! TF.GenerationSoftware,KiCad,Pcbnew,(5.1.2)-2*
G04 #@! TF.CreationDate,2020-04-10T00:12:26+09:00*
G04 #@! TF.ProjectId,original_keyboard,6f726967-696e-4616-9c5f-6b6579626f61,0.1*
G04 #@! TF.SameCoordinates,Original*
G04 #@! TF.FileFunction,Legend,Top*
G04 #@! TF.FilePolarity,Positive*
%FSLAX46Y46*%
G04 Gerber Fmt 4.6, Leading zero omitted, Abs format (unit mm)*
G04 Created by KiCad (PCBNEW (5.1.2)-2) date 2020-04-10 00:12:26*
%MOMM*%
%LPD*%
G04 APERTURE LIST*
%ADD10C,0.150000*%
%ADD11C,0.125000*%
G04 APERTURE END LIST*
D10*
X269802633Y-140430267D02*
X269135967Y-140430267D01*
X269005014Y-141477886D02*
X269255014Y-139477886D01*
X270207395Y-139477886D01*
X270719300Y-141477886D02*
X270885967Y-140144553D01*
X270838348Y-140525505D02*
X270957395Y-140335029D01*
X271064538Y-140239791D01*
X271266919Y-140144553D01*
X271457395Y-140144553D01*
X272243110Y-141477886D02*
X272064538Y-141382648D01*
X271981205Y-141287410D01*
X271909776Y-141096934D01*
X271981205Y-140525505D01*
X272100252Y-140335029D01*
X272207395Y-140239791D01*
X272409776Y-140144553D01*
X272695491Y-140144553D01*
X272874062Y-140239791D01*
X272957395Y-140335029D01*
X273028824Y-140525505D01*
X272957395Y-141096934D01*
X272838348Y-141287410D01*
X272731205Y-141382648D01*
X272528824Y-141477886D01*
X272243110Y-141477886D01*
X273933586Y-140144553D02*
X273766919Y-141477886D01*
X273909776Y-140335029D02*
X274016919Y-140239791D01*
X274219300Y-140144553D01*
X274505014Y-140144553D01*
X274683586Y-140239791D01*
X274755014Y-140430267D01*
X274624062Y-141477886D01*
X275457395Y-140144553D02*
X276219300Y-140144553D01*
X275826443Y-139477886D02*
X275612157Y-141192172D01*
X275683586Y-141382648D01*
X275862157Y-141477886D01*
X276052633Y-141477886D01*
X23422633Y-139160267D02*
X22755967Y-139160267D01*
X22625014Y-140207886D02*
X22875014Y-138207886D01*
X23827395Y-138207886D01*
X24339300Y-140207886D02*
X24505967Y-138874553D01*
X24458348Y-139255505D02*
X24577395Y-139065029D01*
X24684538Y-138969791D01*
X24886919Y-138874553D01*
X25077395Y-138874553D01*
X25863110Y-140207886D02*
X25684538Y-140112648D01*
X25601205Y-140017410D01*
X25529776Y-139826934D01*
X25601205Y-139255505D01*
X25720252Y-139065029D01*
X25827395Y-138969791D01*
X26029776Y-138874553D01*
X26315491Y-138874553D01*
X26494062Y-138969791D01*
X26577395Y-139065029D01*
X26648824Y-139255505D01*
X26577395Y-139826934D01*
X26458348Y-140017410D01*
X26351205Y-140112648D01*
X26148824Y-140207886D01*
X25863110Y-140207886D01*
X27553586Y-138874553D02*
X27386919Y-140207886D01*
X27529776Y-139065029D02*
X27636919Y-138969791D01*
X27839300Y-138874553D01*
X28125014Y-138874553D01*
X28303586Y-138969791D01*
X28375014Y-139160267D01*
X28244062Y-140207886D01*
X29077395Y-138874553D02*
X29839300Y-138874553D01*
X29446443Y-138207886D02*
X29232157Y-139922172D01*
X29303586Y-140112648D01*
X29482157Y-140207886D01*
X29672633Y-140207886D01*
X246683000Y-133206000D02*
X246683000Y-132206000D01*
X247683000Y-119206000D02*
X246683000Y-119206000D01*
X246683000Y-133206000D02*
X247683000Y-133206000D01*
X246683000Y-120206000D02*
X246683000Y-119206000D01*
X260683000Y-119206000D02*
X260683000Y-120206000D01*
X259683000Y-133206000D02*
X260683000Y-133206000D01*
X260683000Y-119206000D02*
X259683000Y-119206000D01*
X260683000Y-132206000D02*
X260683000Y-133206000D01*
X265733000Y-133206000D02*
X265733000Y-132206000D01*
X266733000Y-119206000D02*
X265733000Y-119206000D01*
X265733000Y-133206000D02*
X266733000Y-133206000D01*
X265733000Y-120206000D02*
X265733000Y-119206000D01*
X279733000Y-119206000D02*
X279733000Y-120206000D01*
X278733000Y-133206000D02*
X279733000Y-133206000D01*
X279733000Y-119206000D02*
X278733000Y-119206000D01*
X279733000Y-132206000D02*
X279733000Y-133206000D01*
X156195000Y-157018000D02*
X156195000Y-156018000D01*
X157195000Y-143018000D02*
X156195000Y-143018000D01*
X156195000Y-157018000D02*
X157195000Y-157018000D01*
X156195000Y-144018000D02*
X156195000Y-143018000D01*
X170195000Y-143018000D02*
X170195000Y-144018000D01*
X169195000Y-157018000D02*
X170195000Y-157018000D01*
X170195000Y-143018000D02*
X169195000Y-143018000D01*
X170195000Y-156018000D02*
X170195000Y-157018000D01*
X251445000Y-152256000D02*
X251445000Y-151256000D01*
X252445000Y-138256000D02*
X251445000Y-138256000D01*
X251445000Y-152256000D02*
X252445000Y-152256000D01*
X251445000Y-139256000D02*
X251445000Y-138256000D01*
X265445000Y-138256000D02*
X265445000Y-139256000D01*
X264445000Y-152256000D02*
X265445000Y-152256000D01*
X265445000Y-138256000D02*
X264445000Y-138256000D01*
X265445000Y-151256000D02*
X265445000Y-152256000D01*
X260971000Y-114156000D02*
X260971000Y-113156000D01*
X261971000Y-100156000D02*
X260971000Y-100156000D01*
X260971000Y-114156000D02*
X261971000Y-114156000D01*
X260971000Y-101156000D02*
X260971000Y-100156000D01*
X274971000Y-100156000D02*
X274971000Y-101156000D01*
X273971000Y-114156000D02*
X274971000Y-114156000D01*
X274971000Y-100156000D02*
X273971000Y-100156000D01*
X274971000Y-113156000D02*
X274971000Y-114156000D01*
X165720000Y-114156000D02*
X165720000Y-113156000D01*
X166720000Y-100156000D02*
X165720000Y-100156000D01*
X165720000Y-114156000D02*
X166720000Y-114156000D01*
X165720000Y-101156000D02*
X165720000Y-100156000D01*
X179720000Y-100156000D02*
X179720000Y-101156000D01*
X178720000Y-114156000D02*
X179720000Y-114156000D01*
X179720000Y-100156000D02*
X178720000Y-100156000D01*
X179720000Y-113156000D02*
X179720000Y-114156000D01*
X170483000Y-95106300D02*
X170483000Y-94106300D01*
X171483000Y-81106300D02*
X170483000Y-81106300D01*
X170483000Y-95106300D02*
X171483000Y-95106300D01*
X170483000Y-82106300D02*
X170483000Y-81106300D01*
X184483000Y-81106300D02*
X184483000Y-82106300D01*
X183483000Y-95106300D02*
X184483000Y-95106300D01*
X184483000Y-81106300D02*
X183483000Y-81106300D01*
X184483000Y-94106300D02*
X184483000Y-95106300D01*
X170483000Y-133206000D02*
X170483000Y-132206000D01*
X171483000Y-119206000D02*
X170483000Y-119206000D01*
X170483000Y-133206000D02*
X171483000Y-133206000D01*
X170483000Y-120206000D02*
X170483000Y-119206000D01*
X184483000Y-119206000D02*
X184483000Y-120206000D01*
X183483000Y-133206000D02*
X184483000Y-133206000D01*
X184483000Y-119206000D02*
X183483000Y-119206000D01*
X184483000Y-132206000D02*
X184483000Y-133206000D01*
X175245000Y-152256000D02*
X175245000Y-151256000D01*
X176245000Y-138256000D02*
X175245000Y-138256000D01*
X175245000Y-152256000D02*
X176245000Y-152256000D01*
X175245000Y-139256000D02*
X175245000Y-138256000D01*
X189245000Y-138256000D02*
X189245000Y-139256000D01*
X188245000Y-152256000D02*
X189245000Y-152256000D01*
X189245000Y-138256000D02*
X188245000Y-138256000D01*
X189245000Y-151256000D02*
X189245000Y-152256000D01*
X246683000Y-95106300D02*
X246683000Y-94106300D01*
X247683000Y-81106300D02*
X246683000Y-81106300D01*
X246683000Y-95106300D02*
X247683000Y-95106300D01*
X246683000Y-82106300D02*
X246683000Y-81106300D01*
X260683000Y-81106300D02*
X260683000Y-82106300D01*
X259683000Y-95106300D02*
X260683000Y-95106300D01*
X260683000Y-81106300D02*
X259683000Y-81106300D01*
X260683000Y-94106300D02*
X260683000Y-95106300D01*
X189533000Y-95106300D02*
X189533000Y-94106300D01*
X190533000Y-81106300D02*
X189533000Y-81106300D01*
X189533000Y-95106300D02*
X190533000Y-95106300D01*
X189533000Y-82106300D02*
X189533000Y-81106300D01*
X203533000Y-81106300D02*
X203533000Y-82106300D01*
X202533000Y-95106300D02*
X203533000Y-95106300D01*
X203533000Y-81106300D02*
X202533000Y-81106300D01*
X203533000Y-94106300D02*
X203533000Y-95106300D01*
X208583000Y-133206000D02*
X208583000Y-132206000D01*
X209583000Y-119206000D02*
X208583000Y-119206000D01*
X208583000Y-133206000D02*
X209583000Y-133206000D01*
X208583000Y-120206000D02*
X208583000Y-119206000D01*
X222583000Y-119206000D02*
X222583000Y-120206000D01*
X221583000Y-133206000D02*
X222583000Y-133206000D01*
X222583000Y-119206000D02*
X221583000Y-119206000D01*
X222583000Y-132206000D02*
X222583000Y-133206000D01*
X203821000Y-114156000D02*
X203821000Y-113156000D01*
X204821000Y-100156000D02*
X203821000Y-100156000D01*
X203821000Y-114156000D02*
X204821000Y-114156000D01*
X203821000Y-101156000D02*
X203821000Y-100156000D01*
X217821000Y-100156000D02*
X217821000Y-101156000D01*
X216821000Y-114156000D02*
X217821000Y-114156000D01*
X217821000Y-100156000D02*
X216821000Y-100156000D01*
X217821000Y-113156000D02*
X217821000Y-114156000D01*
X194295000Y-152256000D02*
X194295000Y-151256000D01*
X195295000Y-138256000D02*
X194295000Y-138256000D01*
X194295000Y-152256000D02*
X195295000Y-152256000D01*
X194295000Y-139256000D02*
X194295000Y-138256000D01*
X208295000Y-138256000D02*
X208295000Y-139256000D01*
X207295000Y-152256000D02*
X208295000Y-152256000D01*
X208295000Y-138256000D02*
X207295000Y-138256000D01*
X208295000Y-151256000D02*
X208295000Y-152256000D01*
X265733000Y-95106300D02*
X265733000Y-94106300D01*
X266733000Y-81106300D02*
X265733000Y-81106300D01*
X265733000Y-95106300D02*
X266733000Y-95106300D01*
X265733000Y-82106300D02*
X265733000Y-81106300D01*
X279733000Y-81106300D02*
X279733000Y-82106300D01*
X278733000Y-95106300D02*
X279733000Y-95106300D01*
X279733000Y-81106300D02*
X278733000Y-81106300D01*
X279733000Y-94106300D02*
X279733000Y-95106300D01*
X189533000Y-133206000D02*
X189533000Y-132206000D01*
X190533000Y-119206000D02*
X189533000Y-119206000D01*
X189533000Y-133206000D02*
X190533000Y-133206000D01*
X189533000Y-120206000D02*
X189533000Y-119206000D01*
X203533000Y-119206000D02*
X203533000Y-120206000D01*
X202533000Y-133206000D02*
X203533000Y-133206000D01*
X203533000Y-119206000D02*
X202533000Y-119206000D01*
X203533000Y-132206000D02*
X203533000Y-133206000D01*
X208583000Y-95106300D02*
X208583000Y-94106300D01*
X209583000Y-81106300D02*
X208583000Y-81106300D01*
X208583000Y-95106300D02*
X209583000Y-95106300D01*
X208583000Y-82106300D02*
X208583000Y-81106300D01*
X222583000Y-81106300D02*
X222583000Y-82106300D01*
X221583000Y-95106300D02*
X222583000Y-95106300D01*
X222583000Y-81106300D02*
X221583000Y-81106300D01*
X222583000Y-94106300D02*
X222583000Y-95106300D01*
X227633000Y-133206000D02*
X227633000Y-132206000D01*
X228633000Y-119206000D02*
X227633000Y-119206000D01*
X227633000Y-133206000D02*
X228633000Y-133206000D01*
X227633000Y-120206000D02*
X227633000Y-119206000D01*
X241633000Y-119206000D02*
X241633000Y-120206000D01*
X240633000Y-133206000D02*
X241633000Y-133206000D01*
X241633000Y-119206000D02*
X240633000Y-119206000D01*
X241633000Y-132206000D02*
X241633000Y-133206000D01*
X212201950Y-53079160D02*
X212201950Y-55619160D01*
X212201950Y-55619160D02*
X181721950Y-55619160D01*
X181721950Y-55619160D02*
X181721950Y-53079160D01*
X181721950Y-53079160D02*
X212201950Y-53079160D01*
X212201950Y-68299160D02*
X212201950Y-70839160D01*
X212201950Y-70839160D02*
X181721950Y-70839160D01*
X181721950Y-70839160D02*
X181721950Y-68299160D01*
X181721950Y-68299160D02*
X212201950Y-68299160D01*
X241921000Y-114156000D02*
X241921000Y-113156000D01*
X242921000Y-100156000D02*
X241921000Y-100156000D01*
X241921000Y-114156000D02*
X242921000Y-114156000D01*
X241921000Y-101156000D02*
X241921000Y-100156000D01*
X255921000Y-100156000D02*
X255921000Y-101156000D01*
X254921000Y-114156000D02*
X255921000Y-114156000D01*
X255921000Y-100156000D02*
X254921000Y-100156000D01*
X255921000Y-113156000D02*
X255921000Y-114156000D01*
X184771000Y-114156000D02*
X184771000Y-113156000D01*
X185771000Y-100156000D02*
X184771000Y-100156000D01*
X184771000Y-114156000D02*
X185771000Y-114156000D01*
X184771000Y-101156000D02*
X184771000Y-100156000D01*
X198771000Y-100156000D02*
X198771000Y-101156000D01*
X197771000Y-114156000D02*
X198771000Y-114156000D01*
X198771000Y-100156000D02*
X197771000Y-100156000D01*
X198771000Y-113156000D02*
X198771000Y-114156000D01*
X232395000Y-152256000D02*
X232395000Y-151256000D01*
X233395000Y-138256000D02*
X232395000Y-138256000D01*
X232395000Y-152256000D02*
X233395000Y-152256000D01*
X232395000Y-139256000D02*
X232395000Y-138256000D01*
X246395000Y-138256000D02*
X246395000Y-139256000D01*
X245395000Y-152256000D02*
X246395000Y-152256000D01*
X246395000Y-138256000D02*
X245395000Y-138256000D01*
X246395000Y-151256000D02*
X246395000Y-152256000D01*
X186238000Y-86225400D02*
X185238000Y-86225400D01*
X185238000Y-85225400D02*
X185738000Y-86125400D01*
X186238000Y-85225400D02*
X185238000Y-85225400D01*
X185738000Y-86125400D02*
X186238000Y-85225400D01*
X213345000Y-152256000D02*
X213345000Y-151256000D01*
X214345000Y-138256000D02*
X213345000Y-138256000D01*
X213345000Y-152256000D02*
X214345000Y-152256000D01*
X213345000Y-139256000D02*
X213345000Y-138256000D01*
X227345000Y-138256000D02*
X227345000Y-139256000D01*
X226345000Y-152256000D02*
X227345000Y-152256000D01*
X227345000Y-138256000D02*
X226345000Y-138256000D01*
X227345000Y-151256000D02*
X227345000Y-152256000D01*
X245293000Y-88606300D02*
X244293000Y-88606300D01*
X244293000Y-87606300D02*
X244793000Y-88506300D01*
X245293000Y-87606300D02*
X244293000Y-87606300D01*
X244793000Y-88506300D02*
X245293000Y-87606300D01*
X227633000Y-95106300D02*
X227633000Y-94106300D01*
X228633000Y-81106300D02*
X227633000Y-81106300D01*
X227633000Y-95106300D02*
X228633000Y-95106300D01*
X227633000Y-82106300D02*
X227633000Y-81106300D01*
X241633000Y-81106300D02*
X241633000Y-82106300D01*
X240633000Y-95106300D02*
X241633000Y-95106300D01*
X241633000Y-81106300D02*
X240633000Y-81106300D01*
X241633000Y-94106300D02*
X241633000Y-95106300D01*
X171633000Y-149566000D02*
X170633000Y-149566000D01*
X170633000Y-148566000D02*
X171133000Y-149466000D01*
X171633000Y-148566000D02*
X170633000Y-148566000D01*
X171133000Y-149466000D02*
X171633000Y-148566000D01*
X186238000Y-123707000D02*
X185238000Y-123707000D01*
X185238000Y-122707000D02*
X185738000Y-123607000D01*
X186238000Y-122707000D02*
X185238000Y-122707000D01*
X185738000Y-123607000D02*
X186238000Y-122707000D01*
X181793000Y-104657000D02*
X180793000Y-104657000D01*
X180793000Y-103657000D02*
X181293000Y-104557000D01*
X181793000Y-103657000D02*
X180793000Y-103657000D01*
X181293000Y-104557000D02*
X181793000Y-103657000D01*
X174173000Y-145756000D02*
X173173000Y-145756000D01*
X173173000Y-144756000D02*
X173673000Y-145656000D01*
X174173000Y-144756000D02*
X173173000Y-144756000D01*
X173673000Y-145656000D02*
X174173000Y-144756000D01*
X188620000Y-126706000D02*
X187620000Y-126706000D01*
X187620000Y-125706000D02*
X188120000Y-126606000D01*
X188620000Y-125706000D02*
X187620000Y-125706000D01*
X188120000Y-126606000D02*
X188620000Y-125706000D01*
X183857000Y-107656000D02*
X182857000Y-107656000D01*
X182857000Y-106656000D02*
X183357000Y-107556000D01*
X183857000Y-106656000D02*
X182857000Y-106656000D01*
X183357000Y-107556000D02*
X183857000Y-106656000D01*
X171943000Y-78426300D02*
X171943000Y-78176300D01*
X177943000Y-78426300D02*
X171943000Y-78426300D01*
X177943000Y-78426300D02*
X177943000Y-78176300D01*
X177943000Y-74926300D02*
X177943000Y-75176300D01*
X171943000Y-74926300D02*
X171943000Y-75176300D01*
X177943000Y-74926300D02*
X171943000Y-74926300D01*
X170673000Y-64387720D02*
X170673000Y-52387720D01*
X176673000Y-64387720D02*
X170673000Y-64387720D01*
X176673000Y-52387720D02*
X176673000Y-64387720D01*
X170673000Y-52387720D02*
X176673000Y-52387720D01*
X222871000Y-114156000D02*
X222871000Y-113156000D01*
X223871000Y-100156000D02*
X222871000Y-100156000D01*
X222871000Y-114156000D02*
X223871000Y-114156000D01*
X222871000Y-101156000D02*
X222871000Y-100156000D01*
X236871000Y-100156000D02*
X236871000Y-101156000D01*
X235871000Y-114156000D02*
X236871000Y-114156000D01*
X236871000Y-100156000D02*
X235871000Y-100156000D01*
X236871000Y-113156000D02*
X236871000Y-114156000D01*
X207193000Y-126706000D02*
X206193000Y-126706000D01*
X206193000Y-125706000D02*
X206693000Y-126606000D01*
X207193000Y-125706000D02*
X206193000Y-125706000D01*
X206693000Y-126606000D02*
X207193000Y-125706000D01*
X240213000Y-107656000D02*
X239213000Y-107656000D01*
X239213000Y-106656000D02*
X239713000Y-107556000D01*
X240213000Y-106656000D02*
X239213000Y-106656000D01*
X239713000Y-107556000D02*
X240213000Y-106656000D01*
X221163000Y-107656000D02*
X220163000Y-107656000D01*
X220163000Y-106656000D02*
X220663000Y-107556000D01*
X221163000Y-106656000D02*
X220163000Y-106656000D01*
X220663000Y-107556000D02*
X221163000Y-106656000D01*
X202113000Y-107656000D02*
X201113000Y-107656000D01*
X201113000Y-106656000D02*
X201613000Y-107556000D01*
X202113000Y-106656000D02*
X201113000Y-106656000D01*
X201613000Y-107556000D02*
X202113000Y-106656000D01*
X226243000Y-126706000D02*
X225243000Y-126706000D01*
X225243000Y-125706000D02*
X225743000Y-126606000D01*
X226243000Y-125706000D02*
X225243000Y-125706000D01*
X225743000Y-126606000D02*
X226243000Y-125706000D01*
X264343000Y-126706000D02*
X263343000Y-126706000D01*
X263343000Y-125706000D02*
X263843000Y-126606000D01*
X264343000Y-125706000D02*
X263343000Y-125706000D01*
X263843000Y-126606000D02*
X264343000Y-125706000D01*
X259263000Y-107656000D02*
X258263000Y-107656000D01*
X258263000Y-106656000D02*
X258763000Y-107556000D01*
X259263000Y-106656000D02*
X258263000Y-106656000D01*
X258763000Y-107556000D02*
X259263000Y-106656000D01*
X245293000Y-126706000D02*
X244293000Y-126706000D01*
X244293000Y-125706000D02*
X244793000Y-126606000D01*
X245293000Y-125706000D02*
X244293000Y-125706000D01*
X244793000Y-126606000D02*
X245293000Y-125706000D01*
X264343000Y-88606300D02*
X263343000Y-88606300D01*
X263343000Y-87606300D02*
X263843000Y-88506300D01*
X264343000Y-87606300D02*
X263343000Y-87606300D01*
X263843000Y-88506300D02*
X264343000Y-87606300D01*
X212273000Y-145756000D02*
X211273000Y-145756000D01*
X211273000Y-144756000D02*
X211773000Y-145656000D01*
X212273000Y-144756000D02*
X211273000Y-144756000D01*
X211773000Y-145656000D02*
X212273000Y-144756000D01*
X226243000Y-88606300D02*
X225243000Y-88606300D01*
X225243000Y-87606300D02*
X225743000Y-88506300D01*
X226243000Y-87606300D02*
X225243000Y-87606300D01*
X225743000Y-88506300D02*
X226243000Y-87606300D01*
X193223000Y-145756000D02*
X192223000Y-145756000D01*
X192223000Y-144756000D02*
X192723000Y-145656000D01*
X193223000Y-144756000D02*
X192223000Y-144756000D01*
X192723000Y-145656000D02*
X193223000Y-144756000D01*
X207193000Y-88606300D02*
X206193000Y-88606300D01*
X206193000Y-87606300D02*
X206693000Y-88506300D01*
X207193000Y-87606300D02*
X206193000Y-87606300D01*
X206693000Y-88506300D02*
X207193000Y-87606300D01*
X231323000Y-145756000D02*
X230323000Y-145756000D01*
X230323000Y-144756000D02*
X230823000Y-145656000D01*
X231323000Y-144756000D02*
X230323000Y-144756000D01*
X230823000Y-145656000D02*
X231323000Y-144756000D01*
X250373000Y-145756000D02*
X249373000Y-145756000D01*
X249373000Y-144756000D02*
X249873000Y-145656000D01*
X250373000Y-144756000D02*
X249373000Y-144756000D01*
X249873000Y-145656000D02*
X250373000Y-144756000D01*
X188620000Y-88606600D02*
X187620000Y-88606600D01*
X187620000Y-87606600D02*
X188120000Y-88506600D01*
X188620000Y-87606600D02*
X187620000Y-87606600D01*
X188120000Y-88506600D02*
X188620000Y-87606600D01*
X86646000Y-70746360D02*
X86646000Y-68206360D01*
X86646000Y-68206360D02*
X117126000Y-68206360D01*
X117126000Y-68206360D02*
X117126000Y-70746360D01*
X117126000Y-70746360D02*
X86646000Y-70746360D01*
X86646000Y-55526360D02*
X86646000Y-52986360D01*
X86646000Y-52986360D02*
X117126000Y-52986360D01*
X117126000Y-52986360D02*
X117126000Y-55526360D01*
X117126000Y-55526360D02*
X86646000Y-55526360D01*
X76344000Y-95106600D02*
X76344000Y-94106600D01*
X77344000Y-81106600D02*
X76344000Y-81106600D01*
X76344000Y-95106600D02*
X77344000Y-95106600D01*
X76344000Y-82106600D02*
X76344000Y-81106600D01*
X90344000Y-81106600D02*
X90344000Y-82106600D01*
X89344000Y-95106600D02*
X90344000Y-95106600D01*
X90344000Y-81106600D02*
X89344000Y-81106600D01*
X90344000Y-94106600D02*
X90344000Y-95106600D01*
X57293900Y-95106600D02*
X57293900Y-94106600D01*
X58293900Y-81106600D02*
X57293900Y-81106600D01*
X57293900Y-95106600D02*
X58293900Y-95106600D01*
X57293900Y-82106600D02*
X57293900Y-81106600D01*
X71293900Y-81106600D02*
X71293900Y-82106600D01*
X70293900Y-95106600D02*
X71293900Y-95106600D01*
X71293900Y-81106600D02*
X70293900Y-81106600D01*
X71293900Y-94106600D02*
X71293900Y-95106600D01*
X52531400Y-152257000D02*
X52531400Y-151257000D01*
X53531400Y-138257000D02*
X52531400Y-138257000D01*
X52531400Y-152257000D02*
X53531400Y-152257000D01*
X52531400Y-139257000D02*
X52531400Y-138257000D01*
X66531400Y-138257000D02*
X66531400Y-139257000D01*
X65531400Y-152257000D02*
X66531400Y-152257000D01*
X66531400Y-138257000D02*
X65531400Y-138257000D01*
X66531400Y-151257000D02*
X66531400Y-152257000D01*
X38243900Y-133207000D02*
X38243900Y-132207000D01*
X39243900Y-119207000D02*
X38243900Y-119207000D01*
X38243900Y-133207000D02*
X39243900Y-133207000D01*
X38243900Y-120207000D02*
X38243900Y-119207000D01*
X52243900Y-119207000D02*
X52243900Y-120207000D01*
X51243900Y-133207000D02*
X52243900Y-133207000D01*
X52243900Y-119207000D02*
X51243900Y-119207000D01*
X52243900Y-132207000D02*
X52243900Y-133207000D01*
X43006400Y-114157000D02*
X43006400Y-113157000D01*
X44006400Y-100157000D02*
X43006400Y-100157000D01*
X43006400Y-114157000D02*
X44006400Y-114157000D01*
X43006400Y-101157000D02*
X43006400Y-100157000D01*
X57006400Y-100157000D02*
X57006400Y-101157000D01*
X56006400Y-114157000D02*
X57006400Y-114157000D01*
X57006400Y-100157000D02*
X56006400Y-100157000D01*
X57006400Y-113157000D02*
X57006400Y-114157000D01*
X38243900Y-95106700D02*
X38243900Y-94106700D01*
X39243900Y-81106700D02*
X38243900Y-81106700D01*
X38243900Y-95106700D02*
X39243900Y-95106700D01*
X38243900Y-82106700D02*
X38243900Y-81106700D01*
X52243900Y-81106700D02*
X52243900Y-82106700D01*
X51243900Y-95106700D02*
X52243900Y-95106700D01*
X52243900Y-81106700D02*
X51243900Y-81106700D01*
X52243900Y-94106700D02*
X52243900Y-95106700D01*
X33481400Y-152257000D02*
X33481400Y-151257000D01*
X34481400Y-138257000D02*
X33481400Y-138257000D01*
X33481400Y-152257000D02*
X34481400Y-152257000D01*
X33481400Y-139257000D02*
X33481400Y-138257000D01*
X47481400Y-138257000D02*
X47481400Y-139257000D01*
X46481400Y-152257000D02*
X47481400Y-152257000D01*
X47481400Y-138257000D02*
X46481400Y-138257000D01*
X47481400Y-151257000D02*
X47481400Y-152257000D01*
X19193900Y-133207000D02*
X19193900Y-132207000D01*
X20193900Y-119207000D02*
X19193900Y-119207000D01*
X19193900Y-133207000D02*
X20193900Y-133207000D01*
X19193900Y-120207000D02*
X19193900Y-119207000D01*
X33193900Y-119207000D02*
X33193900Y-120207000D01*
X32193900Y-133207000D02*
X33193900Y-133207000D01*
X33193900Y-119207000D02*
X32193900Y-119207000D01*
X33193900Y-132207000D02*
X33193900Y-133207000D01*
X23956400Y-114157000D02*
X23956400Y-113157000D01*
X24956400Y-100157000D02*
X23956400Y-100157000D01*
X23956400Y-114157000D02*
X24956400Y-114157000D01*
X23956400Y-101157000D02*
X23956400Y-100157000D01*
X37956400Y-100157000D02*
X37956400Y-101157000D01*
X36956400Y-114157000D02*
X37956400Y-114157000D01*
X37956400Y-100157000D02*
X36956400Y-100157000D01*
X37956400Y-113157000D02*
X37956400Y-114157000D01*
X128732000Y-157019000D02*
X128732000Y-156019000D01*
X129732000Y-143019000D02*
X128732000Y-143019000D01*
X128732000Y-157019000D02*
X129732000Y-157019000D01*
X128732000Y-144019000D02*
X128732000Y-143019000D01*
X142732000Y-143019000D02*
X142732000Y-144019000D01*
X141732000Y-157019000D02*
X142732000Y-157019000D01*
X142732000Y-143019000D02*
X141732000Y-143019000D01*
X142732000Y-156019000D02*
X142732000Y-157019000D01*
X114444000Y-133207000D02*
X114444000Y-132207000D01*
X115444000Y-119207000D02*
X114444000Y-119207000D01*
X114444000Y-133207000D02*
X115444000Y-133207000D01*
X114444000Y-120207000D02*
X114444000Y-119207000D01*
X128444000Y-119207000D02*
X128444000Y-120207000D01*
X127444000Y-133207000D02*
X128444000Y-133207000D01*
X128444000Y-119207000D02*
X127444000Y-119207000D01*
X128444000Y-132207000D02*
X128444000Y-133207000D01*
X119207000Y-114157000D02*
X119207000Y-113157000D01*
X120207000Y-100157000D02*
X119207000Y-100157000D01*
X119207000Y-114157000D02*
X120207000Y-114157000D01*
X119207000Y-101157000D02*
X119207000Y-100157000D01*
X133207000Y-100157000D02*
X133207000Y-101157000D01*
X132207000Y-114157000D02*
X133207000Y-114157000D01*
X133207000Y-100157000D02*
X132207000Y-100157000D01*
X133207000Y-113157000D02*
X133207000Y-114157000D01*
X114444000Y-95106600D02*
X114444000Y-94106600D01*
X115444000Y-81106600D02*
X114444000Y-81106600D01*
X114444000Y-95106600D02*
X115444000Y-95106600D01*
X114444000Y-82106600D02*
X114444000Y-81106600D01*
X128444000Y-81106600D02*
X128444000Y-82106600D01*
X127444000Y-95106600D02*
X128444000Y-95106600D01*
X128444000Y-81106600D02*
X127444000Y-81106600D01*
X128444000Y-94106600D02*
X128444000Y-95106600D01*
X109682000Y-152257000D02*
X109682000Y-151257000D01*
X110682000Y-138257000D02*
X109682000Y-138257000D01*
X109682000Y-152257000D02*
X110682000Y-152257000D01*
X109682000Y-139257000D02*
X109682000Y-138257000D01*
X123682000Y-138257000D02*
X123682000Y-139257000D01*
X122682000Y-152257000D02*
X123682000Y-152257000D01*
X123682000Y-138257000D02*
X122682000Y-138257000D01*
X123682000Y-151257000D02*
X123682000Y-152257000D01*
X19193900Y-95106600D02*
X19193900Y-94106600D01*
X20193900Y-81106600D02*
X19193900Y-81106600D01*
X19193900Y-95106600D02*
X20193900Y-95106600D01*
X19193900Y-82106600D02*
X19193900Y-81106600D01*
X33193900Y-81106600D02*
X33193900Y-82106600D01*
X32193900Y-95106600D02*
X33193900Y-95106600D01*
X33193900Y-81106600D02*
X32193900Y-81106600D01*
X33193900Y-94106600D02*
X33193900Y-95106600D01*
X95394000Y-133207000D02*
X95394000Y-132207000D01*
X96394000Y-119207000D02*
X95394000Y-119207000D01*
X95394000Y-133207000D02*
X96394000Y-133207000D01*
X95394000Y-120207000D02*
X95394000Y-119207000D01*
X109394000Y-119207000D02*
X109394000Y-120207000D01*
X108394000Y-133207000D02*
X109394000Y-133207000D01*
X109394000Y-119207000D02*
X108394000Y-119207000D01*
X109394000Y-132207000D02*
X109394000Y-133207000D01*
X100157000Y-114157000D02*
X100157000Y-113157000D01*
X101157000Y-100157000D02*
X100157000Y-100157000D01*
X100157000Y-114157000D02*
X101157000Y-114157000D01*
X100157000Y-101157000D02*
X100157000Y-100157000D01*
X114157000Y-100157000D02*
X114157000Y-101157000D01*
X113157000Y-114157000D02*
X114157000Y-114157000D01*
X114157000Y-100157000D02*
X113157000Y-100157000D01*
X114157000Y-113157000D02*
X114157000Y-114157000D01*
X95394000Y-95106600D02*
X95394000Y-94106600D01*
X96394000Y-81106600D02*
X95394000Y-81106600D01*
X95394000Y-95106600D02*
X96394000Y-95106600D01*
X95394000Y-82106600D02*
X95394000Y-81106600D01*
X109394000Y-81106600D02*
X109394000Y-82106600D01*
X108394000Y-95106600D02*
X109394000Y-95106600D01*
X109394000Y-81106600D02*
X108394000Y-81106600D01*
X109394000Y-94106600D02*
X109394000Y-95106600D01*
X90631400Y-152257000D02*
X90631400Y-151257000D01*
X91631400Y-138257000D02*
X90631400Y-138257000D01*
X90631400Y-152257000D02*
X91631400Y-152257000D01*
X90631400Y-139257000D02*
X90631400Y-138257000D01*
X104631400Y-138257000D02*
X104631400Y-139257000D01*
X103631400Y-152257000D02*
X104631400Y-152257000D01*
X104631400Y-138257000D02*
X103631400Y-138257000D01*
X104631400Y-151257000D02*
X104631400Y-152257000D01*
X76343900Y-133207000D02*
X76343900Y-132207000D01*
X77343900Y-119207000D02*
X76343900Y-119207000D01*
X76343900Y-133207000D02*
X77343900Y-133207000D01*
X76343900Y-120207000D02*
X76343900Y-119207000D01*
X90343900Y-119207000D02*
X90343900Y-120207000D01*
X89343900Y-133207000D02*
X90343900Y-133207000D01*
X90343900Y-119207000D02*
X89343900Y-119207000D01*
X90343900Y-132207000D02*
X90343900Y-133207000D01*
X81106500Y-114157000D02*
X81106500Y-113157000D01*
X82106500Y-100157000D02*
X81106500Y-100157000D01*
X81106500Y-114157000D02*
X82106500Y-114157000D01*
X81106500Y-101157000D02*
X81106500Y-100157000D01*
X95106500Y-100157000D02*
X95106500Y-101157000D01*
X94106500Y-114157000D02*
X95106500Y-114157000D01*
X95106500Y-100157000D02*
X94106500Y-100157000D01*
X95106500Y-113157000D02*
X95106500Y-114157000D01*
X71581400Y-152257000D02*
X71581400Y-151257000D01*
X72581400Y-138257000D02*
X71581400Y-138257000D01*
X71581400Y-152257000D02*
X72581400Y-152257000D01*
X71581400Y-139257000D02*
X71581400Y-138257000D01*
X85581400Y-138257000D02*
X85581400Y-139257000D01*
X84581400Y-152257000D02*
X85581400Y-152257000D01*
X85581400Y-138257000D02*
X84581400Y-138257000D01*
X85581400Y-151257000D02*
X85581400Y-152257000D01*
X57293900Y-133207000D02*
X57293900Y-132207000D01*
X58293900Y-119207000D02*
X57293900Y-119207000D01*
X57293900Y-133207000D02*
X58293900Y-133207000D01*
X57293900Y-120207000D02*
X57293900Y-119207000D01*
X71293900Y-119207000D02*
X71293900Y-120207000D01*
X70293900Y-133207000D02*
X71293900Y-133207000D01*
X71293900Y-119207000D02*
X70293900Y-119207000D01*
X71293900Y-132207000D02*
X71293900Y-133207000D01*
X62056500Y-114157000D02*
X62056500Y-113157000D01*
X63056500Y-100157000D02*
X62056500Y-100157000D01*
X62056500Y-114157000D02*
X63056500Y-114157000D01*
X62056500Y-101157000D02*
X62056500Y-100157000D01*
X76056500Y-100157000D02*
X76056500Y-101157000D01*
X75056500Y-114157000D02*
X76056500Y-114157000D01*
X76056500Y-100157000D02*
X75056500Y-100157000D01*
X76056500Y-113157000D02*
X76056500Y-114157000D01*
X128016150Y-68497170D02*
X128016150Y-68747170D01*
X122016150Y-68497170D02*
X128016150Y-68497170D01*
X122016150Y-68497170D02*
X122016150Y-68747170D01*
X122016150Y-71997170D02*
X122016150Y-71747170D01*
X128016150Y-71997170D02*
X128016150Y-71747170D01*
X122016150Y-71997170D02*
X128016150Y-71997170D01*
X122016150Y-64387720D02*
X122016150Y-52387720D01*
X128016150Y-64387720D02*
X122016150Y-64387720D01*
X128016150Y-52387720D02*
X128016150Y-64387720D01*
X122016150Y-52387720D02*
X128016150Y-52387720D01*
X73319100Y-87606600D02*
X74319100Y-87606600D01*
X74319100Y-88606600D02*
X73819100Y-87706600D01*
X73319100Y-88606600D02*
X74319100Y-88606600D01*
X73819100Y-87706600D02*
X73319100Y-88606600D01*
X68556500Y-144757000D02*
X69556500Y-144757000D01*
X69556500Y-145757000D02*
X69056500Y-144857000D01*
X68556500Y-145757000D02*
X69556500Y-145757000D01*
X69056500Y-144857000D02*
X68556500Y-145757000D01*
X54269000Y-125707000D02*
X55269000Y-125707000D01*
X55269000Y-126707000D02*
X54769000Y-125807000D01*
X54269000Y-126707000D02*
X55269000Y-126707000D01*
X54769000Y-125807000D02*
X54269000Y-126707000D01*
X59031500Y-106657000D02*
X60031500Y-106657000D01*
X60031500Y-107657000D02*
X59531500Y-106757000D01*
X59031500Y-107657000D02*
X60031500Y-107657000D01*
X59531500Y-106757000D02*
X59031500Y-107657000D01*
X54269000Y-87606600D02*
X55269000Y-87606600D01*
X55269000Y-88606600D02*
X54769000Y-87706600D01*
X54269000Y-88606600D02*
X55269000Y-88606600D01*
X54769000Y-87706600D02*
X54269000Y-88606600D01*
X49506500Y-144757000D02*
X50506500Y-144757000D01*
X50506500Y-145757000D02*
X50006500Y-144857000D01*
X49506500Y-145757000D02*
X50506500Y-145757000D01*
X50006500Y-144857000D02*
X49506500Y-145757000D01*
X35218900Y-125707000D02*
X36218900Y-125707000D01*
X36218900Y-126707000D02*
X35718900Y-125807000D01*
X35218900Y-126707000D02*
X36218900Y-126707000D01*
X35718900Y-125807000D02*
X35218900Y-126707000D01*
X39981400Y-106657000D02*
X40981400Y-106657000D01*
X40981400Y-107657000D02*
X40481400Y-106757000D01*
X39981400Y-107657000D02*
X40981400Y-107657000D01*
X40481400Y-106757000D02*
X39981400Y-107657000D01*
X126897000Y-148329000D02*
X127897000Y-148329000D01*
X127897000Y-149329000D02*
X127397000Y-148429000D01*
X126897000Y-149329000D02*
X127897000Y-149329000D01*
X127397000Y-148429000D02*
X126897000Y-149329000D01*
X112610000Y-123326000D02*
X113610000Y-123326000D01*
X113610000Y-124326000D02*
X113110000Y-123426000D01*
X112610000Y-124326000D02*
X113610000Y-124326000D01*
X113110000Y-123426000D02*
X112610000Y-124326000D01*
X117372000Y-104275000D02*
X118372000Y-104275000D01*
X118372000Y-105275000D02*
X117872000Y-104375000D01*
X117372000Y-105275000D02*
X118372000Y-105275000D01*
X117872000Y-104375000D02*
X117372000Y-105275000D01*
X112610000Y-85225360D02*
X113610000Y-85225360D01*
X113610000Y-86225360D02*
X113110000Y-85325360D01*
X112610000Y-86225360D02*
X113610000Y-86225360D01*
X113110000Y-85325360D02*
X112610000Y-86225360D01*
X124516000Y-144757000D02*
X125516000Y-144757000D01*
X125516000Y-145757000D02*
X125016000Y-144857000D01*
X124516000Y-145757000D02*
X125516000Y-145757000D01*
X125016000Y-144857000D02*
X124516000Y-145757000D01*
X35218900Y-87606600D02*
X36218900Y-87606600D01*
X36218900Y-88606600D02*
X35718900Y-87706600D01*
X35218900Y-88606600D02*
X36218900Y-88606600D01*
X35718900Y-87706600D02*
X35218900Y-88606600D01*
X110229000Y-125707000D02*
X111229000Y-125707000D01*
X111229000Y-126707000D02*
X110729000Y-125807000D01*
X110229000Y-126707000D02*
X111229000Y-126707000D01*
X110729000Y-125807000D02*
X110229000Y-126707000D01*
X114991000Y-106657000D02*
X115991000Y-106657000D01*
X115991000Y-107657000D02*
X115491000Y-106757000D01*
X114991000Y-107657000D02*
X115991000Y-107657000D01*
X115491000Y-106757000D02*
X114991000Y-107657000D01*
X110229000Y-87606600D02*
X111229000Y-87606600D01*
X111229000Y-88606600D02*
X110729000Y-87706600D01*
X110229000Y-88606600D02*
X111229000Y-88606600D01*
X110729000Y-87706600D02*
X110229000Y-88606600D01*
X106657000Y-144757000D02*
X107657000Y-144757000D01*
X107657000Y-145757000D02*
X107157000Y-144857000D01*
X106657000Y-145757000D02*
X107657000Y-145757000D01*
X107157000Y-144857000D02*
X106657000Y-145757000D01*
X92369100Y-125707000D02*
X93369100Y-125707000D01*
X93369100Y-126707000D02*
X92869100Y-125807000D01*
X92369100Y-126707000D02*
X93369100Y-126707000D01*
X92869100Y-125807000D02*
X92369100Y-126707000D01*
X97131700Y-106657000D02*
X98131700Y-106657000D01*
X98131700Y-107657000D02*
X97631700Y-106757000D01*
X97131700Y-107657000D02*
X98131700Y-107657000D01*
X97631700Y-106757000D02*
X97131700Y-107657000D01*
X92369100Y-87606600D02*
X93369100Y-87606600D01*
X93369100Y-88606600D02*
X92869100Y-87706600D01*
X92369100Y-88606600D02*
X93369100Y-88606600D01*
X92869100Y-87706600D02*
X92369100Y-88606600D01*
X87606600Y-144757000D02*
X88606600Y-144757000D01*
X88606600Y-145757000D02*
X88106600Y-144857000D01*
X87606600Y-145757000D02*
X88606600Y-145757000D01*
X88106600Y-144857000D02*
X87606600Y-145757000D01*
X73319100Y-125707000D02*
X74319100Y-125707000D01*
X74319100Y-126707000D02*
X73819100Y-125807000D01*
X73319100Y-126707000D02*
X74319100Y-126707000D01*
X73819100Y-125807000D02*
X73319100Y-126707000D01*
X78081600Y-106657000D02*
X79081600Y-106657000D01*
X79081600Y-107657000D02*
X78581600Y-106757000D01*
X78081600Y-107657000D02*
X79081600Y-107657000D01*
X78581600Y-106757000D02*
X78081600Y-107657000D01*
X251183000Y-134865761D02*
X251325857Y-134913380D01*
X251563952Y-134913380D01*
X251659190Y-134865761D01*
X251706809Y-134818142D01*
X251754428Y-134722904D01*
X251754428Y-134627666D01*
X251706809Y-134532428D01*
X251659190Y-134484809D01*
X251563952Y-134437190D01*
X251373476Y-134389571D01*
X251278238Y-134341952D01*
X251230619Y-134294333D01*
X251183000Y-134199095D01*
X251183000Y-134103857D01*
X251230619Y-134008619D01*
X251278238Y-133961000D01*
X251373476Y-133913380D01*
X251611571Y-133913380D01*
X251754428Y-133961000D01*
X252087761Y-133913380D02*
X252325857Y-134913380D01*
X252516333Y-134199095D01*
X252706809Y-134913380D01*
X252944904Y-133913380D01*
X253230619Y-133913380D02*
X253897285Y-133913380D01*
X253468714Y-134913380D01*
X254040142Y-135008619D02*
X254802047Y-135008619D01*
X255040142Y-134913380D02*
X255040142Y-134246714D01*
X255040142Y-134437190D02*
X255087761Y-134341952D01*
X255135380Y-134294333D01*
X255230619Y-134246714D01*
X255325857Y-134246714D01*
X256183000Y-134913380D02*
X255611571Y-134913380D01*
X255897285Y-134913380D02*
X255897285Y-133913380D01*
X255802047Y-134056238D01*
X255706809Y-134151476D01*
X255611571Y-134199095D01*
X270233000Y-134865761D02*
X270375857Y-134913380D01*
X270613952Y-134913380D01*
X270709190Y-134865761D01*
X270756809Y-134818142D01*
X270804428Y-134722904D01*
X270804428Y-134627666D01*
X270756809Y-134532428D01*
X270709190Y-134484809D01*
X270613952Y-134437190D01*
X270423476Y-134389571D01*
X270328238Y-134341952D01*
X270280619Y-134294333D01*
X270233000Y-134199095D01*
X270233000Y-134103857D01*
X270280619Y-134008619D01*
X270328238Y-133961000D01*
X270423476Y-133913380D01*
X270661571Y-133913380D01*
X270804428Y-133961000D01*
X271137761Y-133913380D02*
X271375857Y-134913380D01*
X271566333Y-134199095D01*
X271756809Y-134913380D01*
X271994904Y-133913380D01*
X272280619Y-133913380D02*
X272899666Y-133913380D01*
X272566333Y-134294333D01*
X272709190Y-134294333D01*
X272804428Y-134341952D01*
X272852047Y-134389571D01*
X272899666Y-134484809D01*
X272899666Y-134722904D01*
X272852047Y-134818142D01*
X272804428Y-134865761D01*
X272709190Y-134913380D01*
X272423476Y-134913380D01*
X272328238Y-134865761D01*
X272280619Y-134818142D01*
X273090142Y-135008619D02*
X273852047Y-135008619D01*
X274090142Y-134913380D02*
X274090142Y-134246714D01*
X274090142Y-134437190D02*
X274137761Y-134341952D01*
X274185380Y-134294333D01*
X274280619Y-134246714D01*
X274375857Y-134246714D01*
X275233000Y-134913380D02*
X274661571Y-134913380D01*
X274947285Y-134913380D02*
X274947285Y-133913380D01*
X274852047Y-134056238D01*
X274756809Y-134151476D01*
X274661571Y-134199095D01*
X160218809Y-158677761D02*
X160361666Y-158725380D01*
X160599761Y-158725380D01*
X160695000Y-158677761D01*
X160742619Y-158630142D01*
X160790238Y-158534904D01*
X160790238Y-158439666D01*
X160742619Y-158344428D01*
X160695000Y-158296809D01*
X160599761Y-158249190D01*
X160409285Y-158201571D01*
X160314047Y-158153952D01*
X160266428Y-158106333D01*
X160218809Y-158011095D01*
X160218809Y-157915857D01*
X160266428Y-157820619D01*
X160314047Y-157773000D01*
X160409285Y-157725380D01*
X160647380Y-157725380D01*
X160790238Y-157773000D01*
X161123571Y-157725380D02*
X161361666Y-158725380D01*
X161552142Y-158011095D01*
X161742619Y-158725380D01*
X161980714Y-157725380D01*
X162314047Y-157820619D02*
X162361666Y-157773000D01*
X162456904Y-157725380D01*
X162695000Y-157725380D01*
X162790238Y-157773000D01*
X162837857Y-157820619D01*
X162885476Y-157915857D01*
X162885476Y-158011095D01*
X162837857Y-158153952D01*
X162266428Y-158725380D01*
X162885476Y-158725380D01*
X163742619Y-158058714D02*
X163742619Y-158725380D01*
X163504523Y-157677761D02*
X163266428Y-158392047D01*
X163885476Y-158392047D01*
X164028333Y-158820619D02*
X164790238Y-158820619D01*
X165028333Y-158725380D02*
X165028333Y-158058714D01*
X165028333Y-158249190D02*
X165075952Y-158153952D01*
X165123571Y-158106333D01*
X165218809Y-158058714D01*
X165314047Y-158058714D01*
X166171190Y-158725380D02*
X165599761Y-158725380D01*
X165885476Y-158725380D02*
X165885476Y-157725380D01*
X165790238Y-157868238D01*
X165695000Y-157963476D01*
X165599761Y-158011095D01*
X255945000Y-153915761D02*
X256087857Y-153963380D01*
X256325952Y-153963380D01*
X256421190Y-153915761D01*
X256468809Y-153868142D01*
X256516428Y-153772904D01*
X256516428Y-153677666D01*
X256468809Y-153582428D01*
X256421190Y-153534809D01*
X256325952Y-153487190D01*
X256135476Y-153439571D01*
X256040238Y-153391952D01*
X255992619Y-153344333D01*
X255945000Y-153249095D01*
X255945000Y-153153857D01*
X255992619Y-153058619D01*
X256040238Y-153011000D01*
X256135476Y-152963380D01*
X256373571Y-152963380D01*
X256516428Y-153011000D01*
X256849761Y-152963380D02*
X257087857Y-153963380D01*
X257278333Y-153249095D01*
X257468809Y-153963380D01*
X257706904Y-152963380D01*
X258516428Y-153296714D02*
X258516428Y-153963380D01*
X258278333Y-152915761D02*
X258040238Y-153630047D01*
X258659285Y-153630047D01*
X258802142Y-154058619D02*
X259564047Y-154058619D01*
X259802142Y-153963380D02*
X259802142Y-153296714D01*
X259802142Y-153487190D02*
X259849761Y-153391952D01*
X259897380Y-153344333D01*
X259992619Y-153296714D01*
X260087857Y-153296714D01*
X260945000Y-153963380D02*
X260373571Y-153963380D01*
X260659285Y-153963380D02*
X260659285Y-152963380D01*
X260564047Y-153106238D01*
X260468809Y-153201476D01*
X260373571Y-153249095D01*
X265471000Y-115815761D02*
X265613857Y-115863380D01*
X265851952Y-115863380D01*
X265947190Y-115815761D01*
X265994809Y-115768142D01*
X266042428Y-115672904D01*
X266042428Y-115577666D01*
X265994809Y-115482428D01*
X265947190Y-115434809D01*
X265851952Y-115387190D01*
X265661476Y-115339571D01*
X265566238Y-115291952D01*
X265518619Y-115244333D01*
X265471000Y-115149095D01*
X265471000Y-115053857D01*
X265518619Y-114958619D01*
X265566238Y-114911000D01*
X265661476Y-114863380D01*
X265899571Y-114863380D01*
X266042428Y-114911000D01*
X266375761Y-114863380D02*
X266613857Y-115863380D01*
X266804333Y-115149095D01*
X266994809Y-115863380D01*
X267232904Y-114863380D01*
X267566238Y-114958619D02*
X267613857Y-114911000D01*
X267709095Y-114863380D01*
X267947190Y-114863380D01*
X268042428Y-114911000D01*
X268090047Y-114958619D01*
X268137666Y-115053857D01*
X268137666Y-115149095D01*
X268090047Y-115291952D01*
X267518619Y-115863380D01*
X268137666Y-115863380D01*
X268328142Y-115958619D02*
X269090047Y-115958619D01*
X269328142Y-115863380D02*
X269328142Y-115196714D01*
X269328142Y-115387190D02*
X269375761Y-115291952D01*
X269423380Y-115244333D01*
X269518619Y-115196714D01*
X269613857Y-115196714D01*
X270471000Y-115863380D02*
X269899571Y-115863380D01*
X270185285Y-115863380D02*
X270185285Y-114863380D01*
X270090047Y-115006238D01*
X269994809Y-115101476D01*
X269899571Y-115149095D01*
X169743809Y-115815761D02*
X169886666Y-115863380D01*
X170124761Y-115863380D01*
X170220000Y-115815761D01*
X170267619Y-115768142D01*
X170315238Y-115672904D01*
X170315238Y-115577666D01*
X170267619Y-115482428D01*
X170220000Y-115434809D01*
X170124761Y-115387190D01*
X169934285Y-115339571D01*
X169839047Y-115291952D01*
X169791428Y-115244333D01*
X169743809Y-115149095D01*
X169743809Y-115053857D01*
X169791428Y-114958619D01*
X169839047Y-114911000D01*
X169934285Y-114863380D01*
X170172380Y-114863380D01*
X170315238Y-114911000D01*
X170648571Y-114863380D02*
X170886666Y-115863380D01*
X171077142Y-115149095D01*
X171267619Y-115863380D01*
X171505714Y-114863380D01*
X171839047Y-114958619D02*
X171886666Y-114911000D01*
X171981904Y-114863380D01*
X172220000Y-114863380D01*
X172315238Y-114911000D01*
X172362857Y-114958619D01*
X172410476Y-115053857D01*
X172410476Y-115149095D01*
X172362857Y-115291952D01*
X171791428Y-115863380D01*
X172410476Y-115863380D01*
X172791428Y-114958619D02*
X172839047Y-114911000D01*
X172934285Y-114863380D01*
X173172380Y-114863380D01*
X173267619Y-114911000D01*
X173315238Y-114958619D01*
X173362857Y-115053857D01*
X173362857Y-115149095D01*
X173315238Y-115291952D01*
X172743809Y-115863380D01*
X173362857Y-115863380D01*
X173553333Y-115958619D02*
X174315238Y-115958619D01*
X174553333Y-115863380D02*
X174553333Y-115196714D01*
X174553333Y-115387190D02*
X174600952Y-115291952D01*
X174648571Y-115244333D01*
X174743809Y-115196714D01*
X174839047Y-115196714D01*
X175696190Y-115863380D02*
X175124761Y-115863380D01*
X175410476Y-115863380D02*
X175410476Y-114863380D01*
X175315238Y-115006238D01*
X175220000Y-115101476D01*
X175124761Y-115149095D01*
X174506809Y-96766061D02*
X174649666Y-96813680D01*
X174887761Y-96813680D01*
X174983000Y-96766061D01*
X175030619Y-96718442D01*
X175078238Y-96623204D01*
X175078238Y-96527966D01*
X175030619Y-96432728D01*
X174983000Y-96385109D01*
X174887761Y-96337490D01*
X174697285Y-96289871D01*
X174602047Y-96242252D01*
X174554428Y-96194633D01*
X174506809Y-96099395D01*
X174506809Y-96004157D01*
X174554428Y-95908919D01*
X174602047Y-95861300D01*
X174697285Y-95813680D01*
X174935380Y-95813680D01*
X175078238Y-95861300D01*
X175411571Y-95813680D02*
X175649666Y-96813680D01*
X175840142Y-96099395D01*
X176030619Y-96813680D01*
X176268714Y-95813680D01*
X176602047Y-95908919D02*
X176649666Y-95861300D01*
X176744904Y-95813680D01*
X176983000Y-95813680D01*
X177078238Y-95861300D01*
X177125857Y-95908919D01*
X177173476Y-96004157D01*
X177173476Y-96099395D01*
X177125857Y-96242252D01*
X176554428Y-96813680D01*
X177173476Y-96813680D01*
X178125857Y-96813680D02*
X177554428Y-96813680D01*
X177840142Y-96813680D02*
X177840142Y-95813680D01*
X177744904Y-95956538D01*
X177649666Y-96051776D01*
X177554428Y-96099395D01*
X178316333Y-96908919D02*
X179078238Y-96908919D01*
X179316333Y-96813680D02*
X179316333Y-96147014D01*
X179316333Y-96337490D02*
X179363952Y-96242252D01*
X179411571Y-96194633D01*
X179506809Y-96147014D01*
X179602047Y-96147014D01*
X180459190Y-96813680D02*
X179887761Y-96813680D01*
X180173476Y-96813680D02*
X180173476Y-95813680D01*
X180078238Y-95956538D01*
X179983000Y-96051776D01*
X179887761Y-96099395D01*
X174506809Y-134865761D02*
X174649666Y-134913380D01*
X174887761Y-134913380D01*
X174983000Y-134865761D01*
X175030619Y-134818142D01*
X175078238Y-134722904D01*
X175078238Y-134627666D01*
X175030619Y-134532428D01*
X174983000Y-134484809D01*
X174887761Y-134437190D01*
X174697285Y-134389571D01*
X174602047Y-134341952D01*
X174554428Y-134294333D01*
X174506809Y-134199095D01*
X174506809Y-134103857D01*
X174554428Y-134008619D01*
X174602047Y-133961000D01*
X174697285Y-133913380D01*
X174935380Y-133913380D01*
X175078238Y-133961000D01*
X175411571Y-133913380D02*
X175649666Y-134913380D01*
X175840142Y-134199095D01*
X176030619Y-134913380D01*
X176268714Y-133913380D01*
X176602047Y-134008619D02*
X176649666Y-133961000D01*
X176744904Y-133913380D01*
X176983000Y-133913380D01*
X177078238Y-133961000D01*
X177125857Y-134008619D01*
X177173476Y-134103857D01*
X177173476Y-134199095D01*
X177125857Y-134341952D01*
X176554428Y-134913380D01*
X177173476Y-134913380D01*
X177506809Y-133913380D02*
X178125857Y-133913380D01*
X177792523Y-134294333D01*
X177935380Y-134294333D01*
X178030619Y-134341952D01*
X178078238Y-134389571D01*
X178125857Y-134484809D01*
X178125857Y-134722904D01*
X178078238Y-134818142D01*
X178030619Y-134865761D01*
X177935380Y-134913380D01*
X177649666Y-134913380D01*
X177554428Y-134865761D01*
X177506809Y-134818142D01*
X178316333Y-135008619D02*
X179078238Y-135008619D01*
X179316333Y-134913380D02*
X179316333Y-134246714D01*
X179316333Y-134437190D02*
X179363952Y-134341952D01*
X179411571Y-134294333D01*
X179506809Y-134246714D01*
X179602047Y-134246714D01*
X180459190Y-134913380D02*
X179887761Y-134913380D01*
X180173476Y-134913380D02*
X180173476Y-133913380D01*
X180078238Y-134056238D01*
X179983000Y-134151476D01*
X179887761Y-134199095D01*
X179268809Y-153915761D02*
X179411666Y-153963380D01*
X179649761Y-153963380D01*
X179745000Y-153915761D01*
X179792619Y-153868142D01*
X179840238Y-153772904D01*
X179840238Y-153677666D01*
X179792619Y-153582428D01*
X179745000Y-153534809D01*
X179649761Y-153487190D01*
X179459285Y-153439571D01*
X179364047Y-153391952D01*
X179316428Y-153344333D01*
X179268809Y-153249095D01*
X179268809Y-153153857D01*
X179316428Y-153058619D01*
X179364047Y-153011000D01*
X179459285Y-152963380D01*
X179697380Y-152963380D01*
X179840238Y-153011000D01*
X180173571Y-152963380D02*
X180411666Y-153963380D01*
X180602142Y-153249095D01*
X180792619Y-153963380D01*
X181030714Y-152963380D01*
X181364047Y-153058619D02*
X181411666Y-153011000D01*
X181506904Y-152963380D01*
X181745000Y-152963380D01*
X181840238Y-153011000D01*
X181887857Y-153058619D01*
X181935476Y-153153857D01*
X181935476Y-153249095D01*
X181887857Y-153391952D01*
X181316428Y-153963380D01*
X181935476Y-153963380D01*
X182554523Y-152963380D02*
X182649761Y-152963380D01*
X182745000Y-153011000D01*
X182792619Y-153058619D01*
X182840238Y-153153857D01*
X182887857Y-153344333D01*
X182887857Y-153582428D01*
X182840238Y-153772904D01*
X182792619Y-153868142D01*
X182745000Y-153915761D01*
X182649761Y-153963380D01*
X182554523Y-153963380D01*
X182459285Y-153915761D01*
X182411666Y-153868142D01*
X182364047Y-153772904D01*
X182316428Y-153582428D01*
X182316428Y-153344333D01*
X182364047Y-153153857D01*
X182411666Y-153058619D01*
X182459285Y-153011000D01*
X182554523Y-152963380D01*
X183078333Y-154058619D02*
X183840238Y-154058619D01*
X184078333Y-153963380D02*
X184078333Y-153296714D01*
X184078333Y-153487190D02*
X184125952Y-153391952D01*
X184173571Y-153344333D01*
X184268809Y-153296714D01*
X184364047Y-153296714D01*
X185221190Y-153963380D02*
X184649761Y-153963380D01*
X184935476Y-153963380D02*
X184935476Y-152963380D01*
X184840238Y-153106238D01*
X184745000Y-153201476D01*
X184649761Y-153249095D01*
X251183000Y-96766061D02*
X251325857Y-96813680D01*
X251563952Y-96813680D01*
X251659190Y-96766061D01*
X251706809Y-96718442D01*
X251754428Y-96623204D01*
X251754428Y-96527966D01*
X251706809Y-96432728D01*
X251659190Y-96385109D01*
X251563952Y-96337490D01*
X251373476Y-96289871D01*
X251278238Y-96242252D01*
X251230619Y-96194633D01*
X251183000Y-96099395D01*
X251183000Y-96004157D01*
X251230619Y-95908919D01*
X251278238Y-95861300D01*
X251373476Y-95813680D01*
X251611571Y-95813680D01*
X251754428Y-95861300D01*
X252087761Y-95813680D02*
X252325857Y-96813680D01*
X252516333Y-96099395D01*
X252706809Y-96813680D01*
X252944904Y-95813680D01*
X253802047Y-95813680D02*
X253325857Y-95813680D01*
X253278238Y-96289871D01*
X253325857Y-96242252D01*
X253421095Y-96194633D01*
X253659190Y-96194633D01*
X253754428Y-96242252D01*
X253802047Y-96289871D01*
X253849666Y-96385109D01*
X253849666Y-96623204D01*
X253802047Y-96718442D01*
X253754428Y-96766061D01*
X253659190Y-96813680D01*
X253421095Y-96813680D01*
X253325857Y-96766061D01*
X253278238Y-96718442D01*
X254040142Y-96908919D02*
X254802047Y-96908919D01*
X255040142Y-96813680D02*
X255040142Y-96147014D01*
X255040142Y-96337490D02*
X255087761Y-96242252D01*
X255135380Y-96194633D01*
X255230619Y-96147014D01*
X255325857Y-96147014D01*
X256183000Y-96813680D02*
X255611571Y-96813680D01*
X255897285Y-96813680D02*
X255897285Y-95813680D01*
X255802047Y-95956538D01*
X255706809Y-96051776D01*
X255611571Y-96099395D01*
X193556809Y-96766061D02*
X193699666Y-96813680D01*
X193937761Y-96813680D01*
X194033000Y-96766061D01*
X194080619Y-96718442D01*
X194128238Y-96623204D01*
X194128238Y-96527966D01*
X194080619Y-96432728D01*
X194033000Y-96385109D01*
X193937761Y-96337490D01*
X193747285Y-96289871D01*
X193652047Y-96242252D01*
X193604428Y-96194633D01*
X193556809Y-96099395D01*
X193556809Y-96004157D01*
X193604428Y-95908919D01*
X193652047Y-95861300D01*
X193747285Y-95813680D01*
X193985380Y-95813680D01*
X194128238Y-95861300D01*
X194461571Y-95813680D02*
X194699666Y-96813680D01*
X194890142Y-96099395D01*
X195080619Y-96813680D01*
X195318714Y-95813680D01*
X196223476Y-96813680D02*
X195652047Y-96813680D01*
X195937761Y-96813680D02*
X195937761Y-95813680D01*
X195842523Y-95956538D01*
X195747285Y-96051776D01*
X195652047Y-96099395D01*
X196556809Y-95813680D02*
X197223476Y-95813680D01*
X196794904Y-96813680D01*
X197366333Y-96908919D02*
X198128238Y-96908919D01*
X198366333Y-96813680D02*
X198366333Y-96147014D01*
X198366333Y-96337490D02*
X198413952Y-96242252D01*
X198461571Y-96194633D01*
X198556809Y-96147014D01*
X198652047Y-96147014D01*
X199509190Y-96813680D02*
X198937761Y-96813680D01*
X199223476Y-96813680D02*
X199223476Y-95813680D01*
X199128238Y-95956538D01*
X199033000Y-96051776D01*
X198937761Y-96099395D01*
X212606809Y-134865761D02*
X212749666Y-134913380D01*
X212987761Y-134913380D01*
X213083000Y-134865761D01*
X213130619Y-134818142D01*
X213178238Y-134722904D01*
X213178238Y-134627666D01*
X213130619Y-134532428D01*
X213083000Y-134484809D01*
X212987761Y-134437190D01*
X212797285Y-134389571D01*
X212702047Y-134341952D01*
X212654428Y-134294333D01*
X212606809Y-134199095D01*
X212606809Y-134103857D01*
X212654428Y-134008619D01*
X212702047Y-133961000D01*
X212797285Y-133913380D01*
X213035380Y-133913380D01*
X213178238Y-133961000D01*
X213511571Y-133913380D02*
X213749666Y-134913380D01*
X213940142Y-134199095D01*
X214130619Y-134913380D01*
X214368714Y-133913380D01*
X215273476Y-134913380D02*
X214702047Y-134913380D01*
X214987761Y-134913380D02*
X214987761Y-133913380D01*
X214892523Y-134056238D01*
X214797285Y-134151476D01*
X214702047Y-134199095D01*
X216178238Y-133913380D02*
X215702047Y-133913380D01*
X215654428Y-134389571D01*
X215702047Y-134341952D01*
X215797285Y-134294333D01*
X216035380Y-134294333D01*
X216130619Y-134341952D01*
X216178238Y-134389571D01*
X216225857Y-134484809D01*
X216225857Y-134722904D01*
X216178238Y-134818142D01*
X216130619Y-134865761D01*
X216035380Y-134913380D01*
X215797285Y-134913380D01*
X215702047Y-134865761D01*
X215654428Y-134818142D01*
X216416333Y-135008619D02*
X217178238Y-135008619D01*
X217416333Y-134913380D02*
X217416333Y-134246714D01*
X217416333Y-134437190D02*
X217463952Y-134341952D01*
X217511571Y-134294333D01*
X217606809Y-134246714D01*
X217702047Y-134246714D01*
X218559190Y-134913380D02*
X217987761Y-134913380D01*
X218273476Y-134913380D02*
X218273476Y-133913380D01*
X218178238Y-134056238D01*
X218083000Y-134151476D01*
X217987761Y-134199095D01*
X207844809Y-115815761D02*
X207987666Y-115863380D01*
X208225761Y-115863380D01*
X208321000Y-115815761D01*
X208368619Y-115768142D01*
X208416238Y-115672904D01*
X208416238Y-115577666D01*
X208368619Y-115482428D01*
X208321000Y-115434809D01*
X208225761Y-115387190D01*
X208035285Y-115339571D01*
X207940047Y-115291952D01*
X207892428Y-115244333D01*
X207844809Y-115149095D01*
X207844809Y-115053857D01*
X207892428Y-114958619D01*
X207940047Y-114911000D01*
X208035285Y-114863380D01*
X208273380Y-114863380D01*
X208416238Y-114911000D01*
X208749571Y-114863380D02*
X208987666Y-115863380D01*
X209178142Y-115149095D01*
X209368619Y-115863380D01*
X209606714Y-114863380D01*
X210511476Y-115863380D02*
X209940047Y-115863380D01*
X210225761Y-115863380D02*
X210225761Y-114863380D01*
X210130523Y-115006238D01*
X210035285Y-115101476D01*
X209940047Y-115149095D01*
X211368619Y-115196714D02*
X211368619Y-115863380D01*
X211130523Y-114815761D02*
X210892428Y-115530047D01*
X211511476Y-115530047D01*
X211654333Y-115958619D02*
X212416238Y-115958619D01*
X212654333Y-115863380D02*
X212654333Y-115196714D01*
X212654333Y-115387190D02*
X212701952Y-115291952D01*
X212749571Y-115244333D01*
X212844809Y-115196714D01*
X212940047Y-115196714D01*
X213797190Y-115863380D02*
X213225761Y-115863380D01*
X213511476Y-115863380D02*
X213511476Y-114863380D01*
X213416238Y-115006238D01*
X213321000Y-115101476D01*
X213225761Y-115149095D01*
X198318809Y-153915761D02*
X198461666Y-153963380D01*
X198699761Y-153963380D01*
X198795000Y-153915761D01*
X198842619Y-153868142D01*
X198890238Y-153772904D01*
X198890238Y-153677666D01*
X198842619Y-153582428D01*
X198795000Y-153534809D01*
X198699761Y-153487190D01*
X198509285Y-153439571D01*
X198414047Y-153391952D01*
X198366428Y-153344333D01*
X198318809Y-153249095D01*
X198318809Y-153153857D01*
X198366428Y-153058619D01*
X198414047Y-153011000D01*
X198509285Y-152963380D01*
X198747380Y-152963380D01*
X198890238Y-153011000D01*
X199223571Y-152963380D02*
X199461666Y-153963380D01*
X199652142Y-153249095D01*
X199842619Y-153963380D01*
X200080714Y-152963380D01*
X200985476Y-153963380D02*
X200414047Y-153963380D01*
X200699761Y-153963380D02*
X200699761Y-152963380D01*
X200604523Y-153106238D01*
X200509285Y-153201476D01*
X200414047Y-153249095D01*
X201842619Y-152963380D02*
X201652142Y-152963380D01*
X201556904Y-153011000D01*
X201509285Y-153058619D01*
X201414047Y-153201476D01*
X201366428Y-153391952D01*
X201366428Y-153772904D01*
X201414047Y-153868142D01*
X201461666Y-153915761D01*
X201556904Y-153963380D01*
X201747380Y-153963380D01*
X201842619Y-153915761D01*
X201890238Y-153868142D01*
X201937857Y-153772904D01*
X201937857Y-153534809D01*
X201890238Y-153439571D01*
X201842619Y-153391952D01*
X201747380Y-153344333D01*
X201556904Y-153344333D01*
X201461666Y-153391952D01*
X201414047Y-153439571D01*
X201366428Y-153534809D01*
X202128333Y-154058619D02*
X202890238Y-154058619D01*
X203128333Y-153963380D02*
X203128333Y-153296714D01*
X203128333Y-153487190D02*
X203175952Y-153391952D01*
X203223571Y-153344333D01*
X203318809Y-153296714D01*
X203414047Y-153296714D01*
X204271190Y-153963380D02*
X203699761Y-153963380D01*
X203985476Y-153963380D02*
X203985476Y-152963380D01*
X203890238Y-153106238D01*
X203795000Y-153201476D01*
X203699761Y-153249095D01*
X270233000Y-96766061D02*
X270375857Y-96813680D01*
X270613952Y-96813680D01*
X270709190Y-96766061D01*
X270756809Y-96718442D01*
X270804428Y-96623204D01*
X270804428Y-96527966D01*
X270756809Y-96432728D01*
X270709190Y-96385109D01*
X270613952Y-96337490D01*
X270423476Y-96289871D01*
X270328238Y-96242252D01*
X270280619Y-96194633D01*
X270233000Y-96099395D01*
X270233000Y-96004157D01*
X270280619Y-95908919D01*
X270328238Y-95861300D01*
X270423476Y-95813680D01*
X270661571Y-95813680D01*
X270804428Y-95861300D01*
X271137761Y-95813680D02*
X271375857Y-96813680D01*
X271566333Y-96099395D01*
X271756809Y-96813680D01*
X271994904Y-95813680D01*
X272899666Y-96813680D02*
X272328238Y-96813680D01*
X272613952Y-96813680D02*
X272613952Y-95813680D01*
X272518714Y-95956538D01*
X272423476Y-96051776D01*
X272328238Y-96099395D01*
X273090142Y-96908919D02*
X273852047Y-96908919D01*
X274090142Y-96813680D02*
X274090142Y-96147014D01*
X274090142Y-96337490D02*
X274137761Y-96242252D01*
X274185380Y-96194633D01*
X274280619Y-96147014D01*
X274375857Y-96147014D01*
X275233000Y-96813680D02*
X274661571Y-96813680D01*
X274947285Y-96813680D02*
X274947285Y-95813680D01*
X274852047Y-95956538D01*
X274756809Y-96051776D01*
X274661571Y-96099395D01*
X193556809Y-134865761D02*
X193699666Y-134913380D01*
X193937761Y-134913380D01*
X194033000Y-134865761D01*
X194080619Y-134818142D01*
X194128238Y-134722904D01*
X194128238Y-134627666D01*
X194080619Y-134532428D01*
X194033000Y-134484809D01*
X193937761Y-134437190D01*
X193747285Y-134389571D01*
X193652047Y-134341952D01*
X193604428Y-134294333D01*
X193556809Y-134199095D01*
X193556809Y-134103857D01*
X193604428Y-134008619D01*
X193652047Y-133961000D01*
X193747285Y-133913380D01*
X193985380Y-133913380D01*
X194128238Y-133961000D01*
X194461571Y-133913380D02*
X194699666Y-134913380D01*
X194890142Y-134199095D01*
X195080619Y-134913380D01*
X195318714Y-133913380D01*
X196223476Y-134913380D02*
X195652047Y-134913380D01*
X195937761Y-134913380D02*
X195937761Y-133913380D01*
X195842523Y-134056238D01*
X195747285Y-134151476D01*
X195652047Y-134199095D01*
X196699666Y-134913380D02*
X196890142Y-134913380D01*
X196985380Y-134865761D01*
X197033000Y-134818142D01*
X197128238Y-134675285D01*
X197175857Y-134484809D01*
X197175857Y-134103857D01*
X197128238Y-134008619D01*
X197080619Y-133961000D01*
X196985380Y-133913380D01*
X196794904Y-133913380D01*
X196699666Y-133961000D01*
X196652047Y-134008619D01*
X196604428Y-134103857D01*
X196604428Y-134341952D01*
X196652047Y-134437190D01*
X196699666Y-134484809D01*
X196794904Y-134532428D01*
X196985380Y-134532428D01*
X197080619Y-134484809D01*
X197128238Y-134437190D01*
X197175857Y-134341952D01*
X197366333Y-135008619D02*
X198128238Y-135008619D01*
X198366333Y-134913380D02*
X198366333Y-134246714D01*
X198366333Y-134437190D02*
X198413952Y-134341952D01*
X198461571Y-134294333D01*
X198556809Y-134246714D01*
X198652047Y-134246714D01*
X199509190Y-134913380D02*
X198937761Y-134913380D01*
X199223476Y-134913380D02*
X199223476Y-133913380D01*
X199128238Y-134056238D01*
X199033000Y-134151476D01*
X198937761Y-134199095D01*
X212606809Y-96766061D02*
X212749666Y-96813680D01*
X212987761Y-96813680D01*
X213083000Y-96766061D01*
X213130619Y-96718442D01*
X213178238Y-96623204D01*
X213178238Y-96527966D01*
X213130619Y-96432728D01*
X213083000Y-96385109D01*
X212987761Y-96337490D01*
X212797285Y-96289871D01*
X212702047Y-96242252D01*
X212654428Y-96194633D01*
X212606809Y-96099395D01*
X212606809Y-96004157D01*
X212654428Y-95908919D01*
X212702047Y-95861300D01*
X212797285Y-95813680D01*
X213035380Y-95813680D01*
X213178238Y-95861300D01*
X213511571Y-95813680D02*
X213749666Y-96813680D01*
X213940142Y-96099395D01*
X214130619Y-96813680D01*
X214368714Y-95813680D01*
X215273476Y-96813680D02*
X214702047Y-96813680D01*
X214987761Y-96813680D02*
X214987761Y-95813680D01*
X214892523Y-95956538D01*
X214797285Y-96051776D01*
X214702047Y-96099395D01*
X215606809Y-95813680D02*
X216225857Y-95813680D01*
X215892523Y-96194633D01*
X216035380Y-96194633D01*
X216130619Y-96242252D01*
X216178238Y-96289871D01*
X216225857Y-96385109D01*
X216225857Y-96623204D01*
X216178238Y-96718442D01*
X216130619Y-96766061D01*
X216035380Y-96813680D01*
X215749666Y-96813680D01*
X215654428Y-96766061D01*
X215606809Y-96718442D01*
X216416333Y-96908919D02*
X217178238Y-96908919D01*
X217416333Y-96813680D02*
X217416333Y-96147014D01*
X217416333Y-96337490D02*
X217463952Y-96242252D01*
X217511571Y-96194633D01*
X217606809Y-96147014D01*
X217702047Y-96147014D01*
X218559190Y-96813680D02*
X217987761Y-96813680D01*
X218273476Y-96813680D02*
X218273476Y-95813680D01*
X218178238Y-95956538D01*
X218083000Y-96051776D01*
X217987761Y-96099395D01*
X231656809Y-134865761D02*
X231799666Y-134913380D01*
X232037761Y-134913380D01*
X232133000Y-134865761D01*
X232180619Y-134818142D01*
X232228238Y-134722904D01*
X232228238Y-134627666D01*
X232180619Y-134532428D01*
X232133000Y-134484809D01*
X232037761Y-134437190D01*
X231847285Y-134389571D01*
X231752047Y-134341952D01*
X231704428Y-134294333D01*
X231656809Y-134199095D01*
X231656809Y-134103857D01*
X231704428Y-134008619D01*
X231752047Y-133961000D01*
X231847285Y-133913380D01*
X232085380Y-133913380D01*
X232228238Y-133961000D01*
X232561571Y-133913380D02*
X232799666Y-134913380D01*
X232990142Y-134199095D01*
X233180619Y-134913380D01*
X233418714Y-133913380D01*
X234323476Y-134913380D02*
X233752047Y-134913380D01*
X234037761Y-134913380D02*
X234037761Y-133913380D01*
X233942523Y-134056238D01*
X233847285Y-134151476D01*
X233752047Y-134199095D01*
X235275857Y-134913380D02*
X234704428Y-134913380D01*
X234990142Y-134913380D02*
X234990142Y-133913380D01*
X234894904Y-134056238D01*
X234799666Y-134151476D01*
X234704428Y-134199095D01*
X235466333Y-135008619D02*
X236228238Y-135008619D01*
X236466333Y-134913380D02*
X236466333Y-134246714D01*
X236466333Y-134437190D02*
X236513952Y-134341952D01*
X236561571Y-134294333D01*
X236656809Y-134246714D01*
X236752047Y-134246714D01*
X237609190Y-134913380D02*
X237037761Y-134913380D01*
X237323476Y-134913380D02*
X237323476Y-133913380D01*
X237228238Y-134056238D01*
X237133000Y-134151476D01*
X237037761Y-134199095D01*
D11*
X211271235Y-52542498D02*
X210914092Y-52709164D01*
X211271235Y-52828212D02*
X210521235Y-52828212D01*
X210521235Y-52637736D01*
X210556950Y-52590117D01*
X210592664Y-52566307D01*
X210664092Y-52542498D01*
X210771235Y-52542498D01*
X210842664Y-52566307D01*
X210878378Y-52590117D01*
X210914092Y-52637736D01*
X210914092Y-52828212D01*
X211056950Y-52352021D02*
X211056950Y-52113926D01*
X211271235Y-52399640D02*
X210521235Y-52232974D01*
X211271235Y-52066307D01*
X210521235Y-51947260D02*
X211271235Y-51828212D01*
X210735521Y-51732974D01*
X211271235Y-51637736D01*
X210521235Y-51518688D01*
X211271235Y-67734188D02*
X211271235Y-67972283D01*
X210521235Y-67972283D01*
X210878378Y-67567521D02*
X210878378Y-67400855D01*
X211271235Y-67329426D02*
X211271235Y-67567521D01*
X210521235Y-67567521D01*
X210521235Y-67329426D01*
X211271235Y-67115140D02*
X210521235Y-67115140D01*
X210521235Y-66996093D01*
X210556950Y-66924664D01*
X210628378Y-66877045D01*
X210699807Y-66853236D01*
X210842664Y-66829426D01*
X210949807Y-66829426D01*
X211092664Y-66853236D01*
X211164092Y-66877045D01*
X211235521Y-66924664D01*
X211271235Y-66996093D01*
X211271235Y-67115140D01*
X208016950Y-52578212D02*
X207981235Y-52625831D01*
X207981235Y-52697260D01*
X208016950Y-52768688D01*
X208088378Y-52816307D01*
X208159807Y-52840117D01*
X208302664Y-52863926D01*
X208409807Y-52863926D01*
X208552664Y-52840117D01*
X208624092Y-52816307D01*
X208695521Y-52768688D01*
X208731235Y-52697260D01*
X208731235Y-52649640D01*
X208695521Y-52578212D01*
X208659807Y-52554402D01*
X208409807Y-52554402D01*
X208409807Y-52649640D01*
X208731235Y-52340117D02*
X207981235Y-52340117D01*
X208731235Y-52054402D01*
X207981235Y-52054402D01*
X208731235Y-51816307D02*
X207981235Y-51816307D01*
X207981235Y-51697260D01*
X208016950Y-51625831D01*
X208088378Y-51578212D01*
X208159807Y-51554402D01*
X208302664Y-51530593D01*
X208409807Y-51530593D01*
X208552664Y-51554402D01*
X208624092Y-51578212D01*
X208695521Y-51625831D01*
X208731235Y-51697260D01*
X208731235Y-51816307D01*
X208743235Y-68012760D02*
X207993235Y-68012760D01*
X207993235Y-67893712D01*
X208028950Y-67822283D01*
X208100378Y-67774664D01*
X208171807Y-67750855D01*
X208314664Y-67727045D01*
X208421807Y-67727045D01*
X208564664Y-67750855D01*
X208636092Y-67774664D01*
X208707521Y-67822283D01*
X208743235Y-67893712D01*
X208743235Y-68012760D01*
X208528950Y-67536569D02*
X208528950Y-67298474D01*
X208743235Y-67584188D02*
X207993235Y-67417521D01*
X208743235Y-67250855D01*
X207993235Y-67155617D02*
X207993235Y-66869902D01*
X208743235Y-67012760D02*
X207993235Y-67012760D01*
X208528950Y-66727045D02*
X208528950Y-66488950D01*
X208743235Y-66774664D02*
X207993235Y-66607998D01*
X208743235Y-66441331D01*
X206127735Y-52471069D02*
X205770592Y-52637736D01*
X206127735Y-52756783D02*
X205377735Y-52756783D01*
X205377735Y-52566307D01*
X205413450Y-52518688D01*
X205449164Y-52494879D01*
X205520592Y-52471069D01*
X205627735Y-52471069D01*
X205699164Y-52494879D01*
X205734878Y-52518688D01*
X205770592Y-52566307D01*
X205770592Y-52756783D01*
X206092021Y-52280593D02*
X206127735Y-52209164D01*
X206127735Y-52090117D01*
X206092021Y-52042498D01*
X206056307Y-52018688D01*
X205984878Y-51994879D01*
X205913450Y-51994879D01*
X205842021Y-52018688D01*
X205806307Y-52042498D01*
X205770592Y-52090117D01*
X205734878Y-52185355D01*
X205699164Y-52232974D01*
X205663450Y-52256783D01*
X205592021Y-52280593D01*
X205520592Y-52280593D01*
X205449164Y-52256783D01*
X205413450Y-52232974D01*
X205377735Y-52185355D01*
X205377735Y-52066307D01*
X205413450Y-51994879D01*
X205377735Y-51852021D02*
X205377735Y-51566307D01*
X206127735Y-51709164D02*
X205377735Y-51709164D01*
X205413450Y-67818212D02*
X205377735Y-67865831D01*
X205377735Y-67937260D01*
X205413450Y-68008688D01*
X205484878Y-68056307D01*
X205556307Y-68080117D01*
X205699164Y-68103926D01*
X205806307Y-68103926D01*
X205949164Y-68080117D01*
X206020592Y-68056307D01*
X206092021Y-68008688D01*
X206127735Y-67937260D01*
X206127735Y-67889640D01*
X206092021Y-67818212D01*
X206056307Y-67794402D01*
X205806307Y-67794402D01*
X205806307Y-67889640D01*
X206127735Y-67580117D02*
X205377735Y-67580117D01*
X206127735Y-67294402D01*
X205377735Y-67294402D01*
X206127735Y-67056307D02*
X205377735Y-67056307D01*
X205377735Y-66937260D01*
X205413450Y-66865831D01*
X205484878Y-66818212D01*
X205556307Y-66794402D01*
X205699164Y-66770593D01*
X205806307Y-66770593D01*
X205949164Y-66794402D01*
X206020592Y-66818212D01*
X206092021Y-66865831D01*
X206127735Y-66937260D01*
X206127735Y-67056307D01*
X202901235Y-52863926D02*
X203651235Y-52697260D01*
X202901235Y-52530593D01*
X203579807Y-52078212D02*
X203615521Y-52102021D01*
X203651235Y-52173450D01*
X203651235Y-52221069D01*
X203615521Y-52292498D01*
X203544092Y-52340117D01*
X203472664Y-52363926D01*
X203329807Y-52387736D01*
X203222664Y-52387736D01*
X203079807Y-52363926D01*
X203008378Y-52340117D01*
X202936950Y-52292498D01*
X202901235Y-52221069D01*
X202901235Y-52173450D01*
X202936950Y-52102021D01*
X202972664Y-52078212D01*
X203579807Y-51578212D02*
X203615521Y-51602021D01*
X203651235Y-51673450D01*
X203651235Y-51721069D01*
X203615521Y-51792498D01*
X203544092Y-51840117D01*
X203472664Y-51863926D01*
X203329807Y-51887736D01*
X203222664Y-51887736D01*
X203079807Y-51863926D01*
X203008378Y-51840117D01*
X202936950Y-51792498D01*
X202901235Y-51721069D01*
X202901235Y-51673450D01*
X202936950Y-51602021D01*
X202972664Y-51578212D01*
X202873450Y-67754712D02*
X202837735Y-67802331D01*
X202837735Y-67873760D01*
X202873450Y-67945188D01*
X202944878Y-67992807D01*
X203016307Y-68016617D01*
X203159164Y-68040426D01*
X203266307Y-68040426D01*
X203409164Y-68016617D01*
X203480592Y-67992807D01*
X203552021Y-67945188D01*
X203587735Y-67873760D01*
X203587735Y-67826140D01*
X203552021Y-67754712D01*
X203516307Y-67730902D01*
X203266307Y-67730902D01*
X203266307Y-67826140D01*
X203587735Y-67516617D02*
X202837735Y-67516617D01*
X203587735Y-67230902D01*
X202837735Y-67230902D01*
X203587735Y-66992807D02*
X202837735Y-66992807D01*
X202837735Y-66873760D01*
X202873450Y-66802331D01*
X202944878Y-66754712D01*
X203016307Y-66730902D01*
X203159164Y-66707093D01*
X203266307Y-66707093D01*
X203409164Y-66730902D01*
X203480592Y-66754712D01*
X203552021Y-66802331D01*
X203587735Y-66873760D01*
X203587735Y-66992807D01*
X193371807Y-52460379D02*
X193407521Y-52484188D01*
X193443235Y-52555617D01*
X193443235Y-52603236D01*
X193407521Y-52674664D01*
X193336092Y-52722283D01*
X193264664Y-52746093D01*
X193121807Y-52769902D01*
X193014664Y-52769902D01*
X192871807Y-52746093D01*
X192800378Y-52722283D01*
X192728950Y-52674664D01*
X192693235Y-52603236D01*
X192693235Y-52555617D01*
X192728950Y-52484188D01*
X192764664Y-52460379D01*
X192693235Y-52150855D02*
X192693235Y-52055617D01*
X192728950Y-52007998D01*
X192800378Y-51960379D01*
X192943235Y-51936569D01*
X193193235Y-51936569D01*
X193336092Y-51960379D01*
X193407521Y-52007998D01*
X193443235Y-52055617D01*
X193443235Y-52150855D01*
X193407521Y-52198474D01*
X193336092Y-52246093D01*
X193193235Y-52269902D01*
X192943235Y-52269902D01*
X192800378Y-52246093D01*
X192728950Y-52198474D01*
X192693235Y-52150855D01*
X193443235Y-51484188D02*
X193443235Y-51722283D01*
X192693235Y-51722283D01*
X192693235Y-51365140D02*
X192693235Y-51055617D01*
X192978950Y-51222283D01*
X192978950Y-51150855D01*
X193014664Y-51103236D01*
X193050378Y-51079426D01*
X193121807Y-51055617D01*
X193300378Y-51055617D01*
X193371807Y-51079426D01*
X193407521Y-51103236D01*
X193443235Y-51150855D01*
X193443235Y-51293712D01*
X193407521Y-51341331D01*
X193371807Y-51365140D01*
X195993235Y-67743712D02*
X195636092Y-67910379D01*
X195993235Y-68029426D02*
X195243235Y-68029426D01*
X195243235Y-67838950D01*
X195278950Y-67791331D01*
X195314664Y-67767521D01*
X195386092Y-67743712D01*
X195493235Y-67743712D01*
X195564664Y-67767521D01*
X195600378Y-67791331D01*
X195636092Y-67838950D01*
X195636092Y-68029426D01*
X195243235Y-67434188D02*
X195243235Y-67338950D01*
X195278950Y-67291331D01*
X195350378Y-67243712D01*
X195493235Y-67219902D01*
X195743235Y-67219902D01*
X195886092Y-67243712D01*
X195957521Y-67291331D01*
X195993235Y-67338950D01*
X195993235Y-67434188D01*
X195957521Y-67481807D01*
X195886092Y-67529426D01*
X195743235Y-67553236D01*
X195493235Y-67553236D01*
X195350378Y-67529426D01*
X195278950Y-67481807D01*
X195243235Y-67434188D01*
X195243235Y-67053236D02*
X195993235Y-66934188D01*
X195457521Y-66838950D01*
X195993235Y-66743712D01*
X195243235Y-66624664D01*
X195243235Y-66338950D02*
X195243235Y-66291331D01*
X195278950Y-66243712D01*
X195314664Y-66219902D01*
X195386092Y-66196093D01*
X195528950Y-66172283D01*
X195707521Y-66172283D01*
X195850378Y-66196093D01*
X195921807Y-66219902D01*
X195957521Y-66243712D01*
X195993235Y-66291331D01*
X195993235Y-66338950D01*
X195957521Y-66386569D01*
X195921807Y-66410379D01*
X195850378Y-66434188D01*
X195707521Y-66457998D01*
X195528950Y-66457998D01*
X195386092Y-66434188D01*
X195314664Y-66410379D01*
X195278950Y-66386569D01*
X195243235Y-66338950D01*
X195959807Y-52560379D02*
X195995521Y-52584188D01*
X196031235Y-52655617D01*
X196031235Y-52703236D01*
X195995521Y-52774664D01*
X195924092Y-52822283D01*
X195852664Y-52846093D01*
X195709807Y-52869902D01*
X195602664Y-52869902D01*
X195459807Y-52846093D01*
X195388378Y-52822283D01*
X195316950Y-52774664D01*
X195281235Y-52703236D01*
X195281235Y-52655617D01*
X195316950Y-52584188D01*
X195352664Y-52560379D01*
X195281235Y-52250855D02*
X195281235Y-52155617D01*
X195316950Y-52107998D01*
X195388378Y-52060379D01*
X195531235Y-52036569D01*
X195781235Y-52036569D01*
X195924092Y-52060379D01*
X195995521Y-52107998D01*
X196031235Y-52155617D01*
X196031235Y-52250855D01*
X195995521Y-52298474D01*
X195924092Y-52346093D01*
X195781235Y-52369902D01*
X195531235Y-52369902D01*
X195388378Y-52346093D01*
X195316950Y-52298474D01*
X195281235Y-52250855D01*
X196031235Y-51584188D02*
X196031235Y-51822283D01*
X195281235Y-51822283D01*
X195352664Y-51441331D02*
X195316950Y-51417521D01*
X195281235Y-51369902D01*
X195281235Y-51250855D01*
X195316950Y-51203236D01*
X195352664Y-51179426D01*
X195424092Y-51155617D01*
X195495521Y-51155617D01*
X195602664Y-51179426D01*
X196031235Y-51465140D01*
X196031235Y-51155617D01*
X198535521Y-67968998D02*
X198571235Y-67897569D01*
X198571235Y-67778521D01*
X198535521Y-67730902D01*
X198499807Y-67707093D01*
X198428378Y-67683283D01*
X198356950Y-67683283D01*
X198285521Y-67707093D01*
X198249807Y-67730902D01*
X198214092Y-67778521D01*
X198178378Y-67873760D01*
X198142664Y-67921379D01*
X198106950Y-67945188D01*
X198035521Y-67968998D01*
X197964092Y-67968998D01*
X197892664Y-67945188D01*
X197856950Y-67921379D01*
X197821235Y-67873760D01*
X197821235Y-67754712D01*
X197856950Y-67683283D01*
X198499807Y-67183283D02*
X198535521Y-67207093D01*
X198571235Y-67278521D01*
X198571235Y-67326140D01*
X198535521Y-67397569D01*
X198464092Y-67445188D01*
X198392664Y-67468998D01*
X198249807Y-67492807D01*
X198142664Y-67492807D01*
X197999807Y-67468998D01*
X197928378Y-67445188D01*
X197856950Y-67397569D01*
X197821235Y-67326140D01*
X197821235Y-67278521D01*
X197856950Y-67207093D01*
X197892664Y-67183283D01*
X198571235Y-66730902D02*
X198571235Y-66968998D01*
X197821235Y-66968998D01*
X198499807Y-52610379D02*
X198535521Y-52634188D01*
X198571235Y-52705617D01*
X198571235Y-52753236D01*
X198535521Y-52824664D01*
X198464092Y-52872283D01*
X198392664Y-52896093D01*
X198249807Y-52919902D01*
X198142664Y-52919902D01*
X197999807Y-52896093D01*
X197928378Y-52872283D01*
X197856950Y-52824664D01*
X197821235Y-52753236D01*
X197821235Y-52705617D01*
X197856950Y-52634188D01*
X197892664Y-52610379D01*
X197821235Y-52300855D02*
X197821235Y-52205617D01*
X197856950Y-52157998D01*
X197928378Y-52110379D01*
X198071235Y-52086569D01*
X198321235Y-52086569D01*
X198464092Y-52110379D01*
X198535521Y-52157998D01*
X198571235Y-52205617D01*
X198571235Y-52300855D01*
X198535521Y-52348474D01*
X198464092Y-52396093D01*
X198321235Y-52419902D01*
X198071235Y-52419902D01*
X197928378Y-52396093D01*
X197856950Y-52348474D01*
X197821235Y-52300855D01*
X198571235Y-51634188D02*
X198571235Y-51872283D01*
X197821235Y-51872283D01*
X198571235Y-51205617D02*
X198571235Y-51491331D01*
X198571235Y-51348474D02*
X197821235Y-51348474D01*
X197928378Y-51396093D01*
X197999807Y-51443712D01*
X198035521Y-51491331D01*
X201075521Y-67980902D02*
X201111235Y-67909474D01*
X201111235Y-67790426D01*
X201075521Y-67742807D01*
X201039807Y-67718998D01*
X200968378Y-67695188D01*
X200896950Y-67695188D01*
X200825521Y-67718998D01*
X200789807Y-67742807D01*
X200754092Y-67790426D01*
X200718378Y-67885664D01*
X200682664Y-67933283D01*
X200646950Y-67957093D01*
X200575521Y-67980902D01*
X200504092Y-67980902D01*
X200432664Y-67957093D01*
X200396950Y-67933283D01*
X200361235Y-67885664D01*
X200361235Y-67766617D01*
X200396950Y-67695188D01*
X201111235Y-67480902D02*
X200361235Y-67480902D01*
X200361235Y-67361855D01*
X200396950Y-67290426D01*
X200468378Y-67242807D01*
X200539807Y-67218998D01*
X200682664Y-67195188D01*
X200789807Y-67195188D01*
X200932664Y-67218998D01*
X201004092Y-67242807D01*
X201075521Y-67290426D01*
X201111235Y-67361855D01*
X201111235Y-67480902D01*
X200896950Y-67004712D02*
X200896950Y-66766617D01*
X201111235Y-67052331D02*
X200361235Y-66885664D01*
X201111235Y-66718998D01*
X201021807Y-52560379D02*
X201057521Y-52584188D01*
X201093235Y-52655617D01*
X201093235Y-52703236D01*
X201057521Y-52774664D01*
X200986092Y-52822283D01*
X200914664Y-52846093D01*
X200771807Y-52869902D01*
X200664664Y-52869902D01*
X200521807Y-52846093D01*
X200450378Y-52822283D01*
X200378950Y-52774664D01*
X200343235Y-52703236D01*
X200343235Y-52655617D01*
X200378950Y-52584188D01*
X200414664Y-52560379D01*
X200343235Y-52250855D02*
X200343235Y-52155617D01*
X200378950Y-52107998D01*
X200450378Y-52060379D01*
X200593235Y-52036569D01*
X200843235Y-52036569D01*
X200986092Y-52060379D01*
X201057521Y-52107998D01*
X201093235Y-52155617D01*
X201093235Y-52250855D01*
X201057521Y-52298474D01*
X200986092Y-52346093D01*
X200843235Y-52369902D01*
X200593235Y-52369902D01*
X200450378Y-52346093D01*
X200378950Y-52298474D01*
X200343235Y-52250855D01*
X201093235Y-51584188D02*
X201093235Y-51822283D01*
X200343235Y-51822283D01*
X200343235Y-51322283D02*
X200343235Y-51274664D01*
X200378950Y-51227045D01*
X200414664Y-51203236D01*
X200486092Y-51179426D01*
X200628950Y-51155617D01*
X200807521Y-51155617D01*
X200950378Y-51179426D01*
X201021807Y-51203236D01*
X201057521Y-51227045D01*
X201093235Y-51274664D01*
X201093235Y-51322283D01*
X201057521Y-51369902D01*
X201021807Y-51393712D01*
X200950378Y-51417521D01*
X200807521Y-51441331D01*
X200628950Y-51441331D01*
X200486092Y-51417521D01*
X200414664Y-51393712D01*
X200378950Y-51369902D01*
X200343235Y-51322283D01*
X182900378Y-52065140D02*
X182936092Y-51993712D01*
X182971807Y-51969902D01*
X183043235Y-51946093D01*
X183150378Y-51946093D01*
X183221807Y-51969902D01*
X183257521Y-51993712D01*
X183293235Y-52041331D01*
X183293235Y-52231807D01*
X182543235Y-52231807D01*
X182543235Y-52065140D01*
X182578950Y-52017521D01*
X182614664Y-51993712D01*
X182686092Y-51969902D01*
X182757521Y-51969902D01*
X182828950Y-51993712D01*
X182864664Y-52017521D01*
X182900378Y-52065140D01*
X182900378Y-52231807D01*
X182543235Y-51517521D02*
X182543235Y-51612760D01*
X182578950Y-51660379D01*
X182614664Y-51684188D01*
X182721807Y-51731807D01*
X182864664Y-51755617D01*
X183150378Y-51755617D01*
X183221807Y-51731807D01*
X183257521Y-51707998D01*
X183293235Y-51660379D01*
X183293235Y-51565140D01*
X183257521Y-51517521D01*
X183221807Y-51493712D01*
X183150378Y-51469902D01*
X182971807Y-51469902D01*
X182900378Y-51493712D01*
X182864664Y-51517521D01*
X182828950Y-51565140D01*
X182828950Y-51660379D01*
X182864664Y-51707998D01*
X182900378Y-51731807D01*
X182971807Y-51755617D01*
X182874878Y-67315140D02*
X182910592Y-67243712D01*
X182946307Y-67219902D01*
X183017735Y-67196093D01*
X183124878Y-67196093D01*
X183196307Y-67219902D01*
X183232021Y-67243712D01*
X183267735Y-67291331D01*
X183267735Y-67481807D01*
X182517735Y-67481807D01*
X182517735Y-67315140D01*
X182553450Y-67267521D01*
X182589164Y-67243712D01*
X182660592Y-67219902D01*
X182732021Y-67219902D01*
X182803450Y-67243712D01*
X182839164Y-67267521D01*
X182874878Y-67315140D01*
X182874878Y-67481807D01*
X182517735Y-66743712D02*
X182517735Y-66981807D01*
X182874878Y-67005617D01*
X182839164Y-66981807D01*
X182803450Y-66934188D01*
X182803450Y-66815140D01*
X182839164Y-66767521D01*
X182874878Y-66743712D01*
X182946307Y-66719902D01*
X183124878Y-66719902D01*
X183196307Y-66743712D01*
X183232021Y-66767521D01*
X183267735Y-66815140D01*
X183267735Y-66934188D01*
X183232021Y-66981807D01*
X183196307Y-67005617D01*
X185478378Y-67315140D02*
X185514092Y-67243712D01*
X185549807Y-67219902D01*
X185621235Y-67196093D01*
X185728378Y-67196093D01*
X185799807Y-67219902D01*
X185835521Y-67243712D01*
X185871235Y-67291331D01*
X185871235Y-67481807D01*
X185121235Y-67481807D01*
X185121235Y-67315140D01*
X185156950Y-67267521D01*
X185192664Y-67243712D01*
X185264092Y-67219902D01*
X185335521Y-67219902D01*
X185406950Y-67243712D01*
X185442664Y-67267521D01*
X185478378Y-67315140D01*
X185478378Y-67481807D01*
X185371235Y-66767521D02*
X185871235Y-66767521D01*
X185085521Y-66886569D02*
X185621235Y-67005617D01*
X185621235Y-66696093D01*
X185450378Y-52165140D02*
X185486092Y-52093712D01*
X185521807Y-52069902D01*
X185593235Y-52046093D01*
X185700378Y-52046093D01*
X185771807Y-52069902D01*
X185807521Y-52093712D01*
X185843235Y-52141331D01*
X185843235Y-52331807D01*
X185093235Y-52331807D01*
X185093235Y-52165140D01*
X185128950Y-52117521D01*
X185164664Y-52093712D01*
X185236092Y-52069902D01*
X185307521Y-52069902D01*
X185378950Y-52093712D01*
X185414664Y-52117521D01*
X185450378Y-52165140D01*
X185450378Y-52331807D01*
X185164664Y-51855617D02*
X185128950Y-51831807D01*
X185093235Y-51784188D01*
X185093235Y-51665140D01*
X185128950Y-51617521D01*
X185164664Y-51593712D01*
X185236092Y-51569902D01*
X185307521Y-51569902D01*
X185414664Y-51593712D01*
X185843235Y-51879426D01*
X185843235Y-51569902D01*
X188347735Y-67743712D02*
X187990592Y-67910379D01*
X188347735Y-68029426D02*
X187597735Y-68029426D01*
X187597735Y-67838950D01*
X187633450Y-67791331D01*
X187669164Y-67767521D01*
X187740592Y-67743712D01*
X187847735Y-67743712D01*
X187919164Y-67767521D01*
X187954878Y-67791331D01*
X187990592Y-67838950D01*
X187990592Y-68029426D01*
X187597735Y-67434188D02*
X187597735Y-67338950D01*
X187633450Y-67291331D01*
X187704878Y-67243712D01*
X187847735Y-67219902D01*
X188097735Y-67219902D01*
X188240592Y-67243712D01*
X188312021Y-67291331D01*
X188347735Y-67338950D01*
X188347735Y-67434188D01*
X188312021Y-67481807D01*
X188240592Y-67529426D01*
X188097735Y-67553236D01*
X187847735Y-67553236D01*
X187704878Y-67529426D01*
X187633450Y-67481807D01*
X187597735Y-67434188D01*
X187597735Y-67053236D02*
X188347735Y-66934188D01*
X187812021Y-66838950D01*
X188347735Y-66743712D01*
X187597735Y-66624664D01*
X187597735Y-66481807D02*
X187597735Y-66172283D01*
X187883450Y-66338950D01*
X187883450Y-66267521D01*
X187919164Y-66219902D01*
X187954878Y-66196093D01*
X188026307Y-66172283D01*
X188204878Y-66172283D01*
X188276307Y-66196093D01*
X188312021Y-66219902D01*
X188347735Y-66267521D01*
X188347735Y-66410379D01*
X188312021Y-66457998D01*
X188276307Y-66481807D01*
X188276307Y-52510379D02*
X188312021Y-52534188D01*
X188347735Y-52605617D01*
X188347735Y-52653236D01*
X188312021Y-52724664D01*
X188240592Y-52772283D01*
X188169164Y-52796093D01*
X188026307Y-52819902D01*
X187919164Y-52819902D01*
X187776307Y-52796093D01*
X187704878Y-52772283D01*
X187633450Y-52724664D01*
X187597735Y-52653236D01*
X187597735Y-52605617D01*
X187633450Y-52534188D01*
X187669164Y-52510379D01*
X187597735Y-52200855D02*
X187597735Y-52105617D01*
X187633450Y-52057998D01*
X187704878Y-52010379D01*
X187847735Y-51986569D01*
X188097735Y-51986569D01*
X188240592Y-52010379D01*
X188312021Y-52057998D01*
X188347735Y-52105617D01*
X188347735Y-52200855D01*
X188312021Y-52248474D01*
X188240592Y-52296093D01*
X188097735Y-52319902D01*
X187847735Y-52319902D01*
X187704878Y-52296093D01*
X187633450Y-52248474D01*
X187597735Y-52200855D01*
X188347735Y-51534188D02*
X188347735Y-51772283D01*
X187597735Y-51772283D01*
X187597735Y-51129426D02*
X187597735Y-51367521D01*
X187954878Y-51391331D01*
X187919164Y-51367521D01*
X187883450Y-51319902D01*
X187883450Y-51200855D01*
X187919164Y-51153236D01*
X187954878Y-51129426D01*
X188026307Y-51105617D01*
X188204878Y-51105617D01*
X188276307Y-51129426D01*
X188312021Y-51153236D01*
X188347735Y-51200855D01*
X188347735Y-51319902D01*
X188312021Y-51367521D01*
X188276307Y-51391331D01*
X190943235Y-67743712D02*
X190586092Y-67910379D01*
X190943235Y-68029426D02*
X190193235Y-68029426D01*
X190193235Y-67838950D01*
X190228950Y-67791331D01*
X190264664Y-67767521D01*
X190336092Y-67743712D01*
X190443235Y-67743712D01*
X190514664Y-67767521D01*
X190550378Y-67791331D01*
X190586092Y-67838950D01*
X190586092Y-68029426D01*
X190193235Y-67434188D02*
X190193235Y-67338950D01*
X190228950Y-67291331D01*
X190300378Y-67243712D01*
X190443235Y-67219902D01*
X190693235Y-67219902D01*
X190836092Y-67243712D01*
X190907521Y-67291331D01*
X190943235Y-67338950D01*
X190943235Y-67434188D01*
X190907521Y-67481807D01*
X190836092Y-67529426D01*
X190693235Y-67553236D01*
X190443235Y-67553236D01*
X190300378Y-67529426D01*
X190228950Y-67481807D01*
X190193235Y-67434188D01*
X190193235Y-67053236D02*
X190943235Y-66934188D01*
X190407521Y-66838950D01*
X190943235Y-66743712D01*
X190193235Y-66624664D01*
X190264664Y-66457998D02*
X190228950Y-66434188D01*
X190193235Y-66386569D01*
X190193235Y-66267521D01*
X190228950Y-66219902D01*
X190264664Y-66196093D01*
X190336092Y-66172283D01*
X190407521Y-66172283D01*
X190514664Y-66196093D01*
X190943235Y-66481807D01*
X190943235Y-66172283D01*
X190871807Y-52510379D02*
X190907521Y-52534188D01*
X190943235Y-52605617D01*
X190943235Y-52653236D01*
X190907521Y-52724664D01*
X190836092Y-52772283D01*
X190764664Y-52796093D01*
X190621807Y-52819902D01*
X190514664Y-52819902D01*
X190371807Y-52796093D01*
X190300378Y-52772283D01*
X190228950Y-52724664D01*
X190193235Y-52653236D01*
X190193235Y-52605617D01*
X190228950Y-52534188D01*
X190264664Y-52510379D01*
X190193235Y-52200855D02*
X190193235Y-52105617D01*
X190228950Y-52057998D01*
X190300378Y-52010379D01*
X190443235Y-51986569D01*
X190693235Y-51986569D01*
X190836092Y-52010379D01*
X190907521Y-52057998D01*
X190943235Y-52105617D01*
X190943235Y-52200855D01*
X190907521Y-52248474D01*
X190836092Y-52296093D01*
X190693235Y-52319902D01*
X190443235Y-52319902D01*
X190300378Y-52296093D01*
X190228950Y-52248474D01*
X190193235Y-52200855D01*
X190943235Y-51534188D02*
X190943235Y-51772283D01*
X190193235Y-51772283D01*
X190443235Y-51153236D02*
X190943235Y-51153236D01*
X190157521Y-51272283D02*
X190693235Y-51391331D01*
X190693235Y-51081807D01*
X193491235Y-67793712D02*
X193134092Y-67960379D01*
X193491235Y-68079426D02*
X192741235Y-68079426D01*
X192741235Y-67888950D01*
X192776950Y-67841331D01*
X192812664Y-67817521D01*
X192884092Y-67793712D01*
X192991235Y-67793712D01*
X193062664Y-67817521D01*
X193098378Y-67841331D01*
X193134092Y-67888950D01*
X193134092Y-68079426D01*
X192741235Y-67484188D02*
X192741235Y-67388950D01*
X192776950Y-67341331D01*
X192848378Y-67293712D01*
X192991235Y-67269902D01*
X193241235Y-67269902D01*
X193384092Y-67293712D01*
X193455521Y-67341331D01*
X193491235Y-67388950D01*
X193491235Y-67484188D01*
X193455521Y-67531807D01*
X193384092Y-67579426D01*
X193241235Y-67603236D01*
X192991235Y-67603236D01*
X192848378Y-67579426D01*
X192776950Y-67531807D01*
X192741235Y-67484188D01*
X192741235Y-67103236D02*
X193491235Y-66984188D01*
X192955521Y-66888950D01*
X193491235Y-66793712D01*
X192741235Y-66674664D01*
X193491235Y-66222283D02*
X193491235Y-66507998D01*
X193491235Y-66365140D02*
X192741235Y-66365140D01*
X192848378Y-66412760D01*
X192919807Y-66460379D01*
X192955521Y-66507998D01*
D10*
X246421000Y-115815761D02*
X246563857Y-115863380D01*
X246801952Y-115863380D01*
X246897190Y-115815761D01*
X246944809Y-115768142D01*
X246992428Y-115672904D01*
X246992428Y-115577666D01*
X246944809Y-115482428D01*
X246897190Y-115434809D01*
X246801952Y-115387190D01*
X246611476Y-115339571D01*
X246516238Y-115291952D01*
X246468619Y-115244333D01*
X246421000Y-115149095D01*
X246421000Y-115053857D01*
X246468619Y-114958619D01*
X246516238Y-114911000D01*
X246611476Y-114863380D01*
X246849571Y-114863380D01*
X246992428Y-114911000D01*
X247325761Y-114863380D02*
X247563857Y-115863380D01*
X247754333Y-115149095D01*
X247944809Y-115863380D01*
X248182904Y-114863380D01*
X248992428Y-114863380D02*
X248801952Y-114863380D01*
X248706714Y-114911000D01*
X248659095Y-114958619D01*
X248563857Y-115101476D01*
X248516238Y-115291952D01*
X248516238Y-115672904D01*
X248563857Y-115768142D01*
X248611476Y-115815761D01*
X248706714Y-115863380D01*
X248897190Y-115863380D01*
X248992428Y-115815761D01*
X249040047Y-115768142D01*
X249087666Y-115672904D01*
X249087666Y-115434809D01*
X249040047Y-115339571D01*
X248992428Y-115291952D01*
X248897190Y-115244333D01*
X248706714Y-115244333D01*
X248611476Y-115291952D01*
X248563857Y-115339571D01*
X248516238Y-115434809D01*
X249278142Y-115958619D02*
X250040047Y-115958619D01*
X250278142Y-115863380D02*
X250278142Y-115196714D01*
X250278142Y-115387190D02*
X250325761Y-115291952D01*
X250373380Y-115244333D01*
X250468619Y-115196714D01*
X250563857Y-115196714D01*
X251421000Y-115863380D02*
X250849571Y-115863380D01*
X251135285Y-115863380D02*
X251135285Y-114863380D01*
X251040047Y-115006238D01*
X250944809Y-115101476D01*
X250849571Y-115149095D01*
X188794809Y-115815761D02*
X188937666Y-115863380D01*
X189175761Y-115863380D01*
X189271000Y-115815761D01*
X189318619Y-115768142D01*
X189366238Y-115672904D01*
X189366238Y-115577666D01*
X189318619Y-115482428D01*
X189271000Y-115434809D01*
X189175761Y-115387190D01*
X188985285Y-115339571D01*
X188890047Y-115291952D01*
X188842428Y-115244333D01*
X188794809Y-115149095D01*
X188794809Y-115053857D01*
X188842428Y-114958619D01*
X188890047Y-114911000D01*
X188985285Y-114863380D01*
X189223380Y-114863380D01*
X189366238Y-114911000D01*
X189699571Y-114863380D02*
X189937666Y-115863380D01*
X190128142Y-115149095D01*
X190318619Y-115863380D01*
X190556714Y-114863380D01*
X191461476Y-115863380D02*
X190890047Y-115863380D01*
X191175761Y-115863380D02*
X191175761Y-114863380D01*
X191080523Y-115006238D01*
X190985285Y-115101476D01*
X190890047Y-115149095D01*
X192032904Y-115291952D02*
X191937666Y-115244333D01*
X191890047Y-115196714D01*
X191842428Y-115101476D01*
X191842428Y-115053857D01*
X191890047Y-114958619D01*
X191937666Y-114911000D01*
X192032904Y-114863380D01*
X192223380Y-114863380D01*
X192318619Y-114911000D01*
X192366238Y-114958619D01*
X192413857Y-115053857D01*
X192413857Y-115101476D01*
X192366238Y-115196714D01*
X192318619Y-115244333D01*
X192223380Y-115291952D01*
X192032904Y-115291952D01*
X191937666Y-115339571D01*
X191890047Y-115387190D01*
X191842428Y-115482428D01*
X191842428Y-115672904D01*
X191890047Y-115768142D01*
X191937666Y-115815761D01*
X192032904Y-115863380D01*
X192223380Y-115863380D01*
X192318619Y-115815761D01*
X192366238Y-115768142D01*
X192413857Y-115672904D01*
X192413857Y-115482428D01*
X192366238Y-115387190D01*
X192318619Y-115339571D01*
X192223380Y-115291952D01*
X192604333Y-115958619D02*
X193366238Y-115958619D01*
X193604333Y-115863380D02*
X193604333Y-115196714D01*
X193604333Y-115387190D02*
X193651952Y-115291952D01*
X193699571Y-115244333D01*
X193794809Y-115196714D01*
X193890047Y-115196714D01*
X194747190Y-115863380D02*
X194175761Y-115863380D01*
X194461476Y-115863380D02*
X194461476Y-114863380D01*
X194366238Y-115006238D01*
X194271000Y-115101476D01*
X194175761Y-115149095D01*
X236895000Y-153915761D02*
X237037857Y-153963380D01*
X237275952Y-153963380D01*
X237371190Y-153915761D01*
X237418809Y-153868142D01*
X237466428Y-153772904D01*
X237466428Y-153677666D01*
X237418809Y-153582428D01*
X237371190Y-153534809D01*
X237275952Y-153487190D01*
X237085476Y-153439571D01*
X236990238Y-153391952D01*
X236942619Y-153344333D01*
X236895000Y-153249095D01*
X236895000Y-153153857D01*
X236942619Y-153058619D01*
X236990238Y-153011000D01*
X237085476Y-152963380D01*
X237323571Y-152963380D01*
X237466428Y-153011000D01*
X237799761Y-152963380D02*
X238037857Y-153963380D01*
X238228333Y-153249095D01*
X238418809Y-153963380D01*
X238656904Y-152963380D01*
X239085476Y-153963380D02*
X239275952Y-153963380D01*
X239371190Y-153915761D01*
X239418809Y-153868142D01*
X239514047Y-153725285D01*
X239561666Y-153534809D01*
X239561666Y-153153857D01*
X239514047Y-153058619D01*
X239466428Y-153011000D01*
X239371190Y-152963380D01*
X239180714Y-152963380D01*
X239085476Y-153011000D01*
X239037857Y-153058619D01*
X238990238Y-153153857D01*
X238990238Y-153391952D01*
X239037857Y-153487190D01*
X239085476Y-153534809D01*
X239180714Y-153582428D01*
X239371190Y-153582428D01*
X239466428Y-153534809D01*
X239514047Y-153487190D01*
X239561666Y-153391952D01*
X239752142Y-154058619D02*
X240514047Y-154058619D01*
X240752142Y-153963380D02*
X240752142Y-153296714D01*
X240752142Y-153487190D02*
X240799761Y-153391952D01*
X240847380Y-153344333D01*
X240942619Y-153296714D01*
X241037857Y-153296714D01*
X241895000Y-153963380D02*
X241323571Y-153963380D01*
X241609285Y-153963380D02*
X241609285Y-152963380D01*
X241514047Y-153106238D01*
X241418809Y-153201476D01*
X241323571Y-153249095D01*
X217368809Y-153915761D02*
X217511666Y-153963380D01*
X217749761Y-153963380D01*
X217845000Y-153915761D01*
X217892619Y-153868142D01*
X217940238Y-153772904D01*
X217940238Y-153677666D01*
X217892619Y-153582428D01*
X217845000Y-153534809D01*
X217749761Y-153487190D01*
X217559285Y-153439571D01*
X217464047Y-153391952D01*
X217416428Y-153344333D01*
X217368809Y-153249095D01*
X217368809Y-153153857D01*
X217416428Y-153058619D01*
X217464047Y-153011000D01*
X217559285Y-152963380D01*
X217797380Y-152963380D01*
X217940238Y-153011000D01*
X218273571Y-152963380D02*
X218511666Y-153963380D01*
X218702142Y-153249095D01*
X218892619Y-153963380D01*
X219130714Y-152963380D01*
X220035476Y-153963380D02*
X219464047Y-153963380D01*
X219749761Y-153963380D02*
X219749761Y-152963380D01*
X219654523Y-153106238D01*
X219559285Y-153201476D01*
X219464047Y-153249095D01*
X220416428Y-153058619D02*
X220464047Y-153011000D01*
X220559285Y-152963380D01*
X220797380Y-152963380D01*
X220892619Y-153011000D01*
X220940238Y-153058619D01*
X220987857Y-153153857D01*
X220987857Y-153249095D01*
X220940238Y-153391952D01*
X220368809Y-153963380D01*
X220987857Y-153963380D01*
X221178333Y-154058619D02*
X221940238Y-154058619D01*
X222178333Y-153963380D02*
X222178333Y-153296714D01*
X222178333Y-153487190D02*
X222225952Y-153391952D01*
X222273571Y-153344333D01*
X222368809Y-153296714D01*
X222464047Y-153296714D01*
X223321190Y-153963380D02*
X222749761Y-153963380D01*
X223035476Y-153963380D02*
X223035476Y-152963380D01*
X222940238Y-153106238D01*
X222845000Y-153201476D01*
X222749761Y-153249095D01*
X232133000Y-96766061D02*
X232275857Y-96813680D01*
X232513952Y-96813680D01*
X232609190Y-96766061D01*
X232656809Y-96718442D01*
X232704428Y-96623204D01*
X232704428Y-96527966D01*
X232656809Y-96432728D01*
X232609190Y-96385109D01*
X232513952Y-96337490D01*
X232323476Y-96289871D01*
X232228238Y-96242252D01*
X232180619Y-96194633D01*
X232133000Y-96099395D01*
X232133000Y-96004157D01*
X232180619Y-95908919D01*
X232228238Y-95861300D01*
X232323476Y-95813680D01*
X232561571Y-95813680D01*
X232704428Y-95861300D01*
X233037761Y-95813680D02*
X233275857Y-96813680D01*
X233466333Y-96099395D01*
X233656809Y-96813680D01*
X233894904Y-95813680D01*
X234323476Y-96813680D02*
X234513952Y-96813680D01*
X234609190Y-96766061D01*
X234656809Y-96718442D01*
X234752047Y-96575585D01*
X234799666Y-96385109D01*
X234799666Y-96004157D01*
X234752047Y-95908919D01*
X234704428Y-95861300D01*
X234609190Y-95813680D01*
X234418714Y-95813680D01*
X234323476Y-95861300D01*
X234275857Y-95908919D01*
X234228238Y-96004157D01*
X234228238Y-96242252D01*
X234275857Y-96337490D01*
X234323476Y-96385109D01*
X234418714Y-96432728D01*
X234609190Y-96432728D01*
X234704428Y-96385109D01*
X234752047Y-96337490D01*
X234799666Y-96242252D01*
X234990142Y-96908919D02*
X235752047Y-96908919D01*
X235990142Y-96813680D02*
X235990142Y-96147014D01*
X235990142Y-96337490D02*
X236037761Y-96242252D01*
X236085380Y-96194633D01*
X236180619Y-96147014D01*
X236275857Y-96147014D01*
X236561571Y-95908919D02*
X236609190Y-95861300D01*
X236704428Y-95813680D01*
X236942523Y-95813680D01*
X237037761Y-95861300D01*
X237085380Y-95908919D01*
X237133000Y-96004157D01*
X237133000Y-96099395D01*
X237085380Y-96242252D01*
X236513952Y-96813680D01*
X237133000Y-96813680D01*
X173490619Y-77128680D02*
X173157285Y-76652490D01*
X172919190Y-77128680D02*
X172919190Y-76128680D01*
X173300142Y-76128680D01*
X173395380Y-76176300D01*
X173443000Y-76223919D01*
X173490619Y-76319157D01*
X173490619Y-76462014D01*
X173443000Y-76557252D01*
X173395380Y-76604871D01*
X173300142Y-76652490D01*
X172919190Y-76652490D01*
X173919190Y-76604871D02*
X174252523Y-76604871D01*
X174395380Y-77128680D02*
X173919190Y-77128680D01*
X173919190Y-76128680D01*
X174395380Y-76128680D01*
X174776333Y-77081061D02*
X174919190Y-77128680D01*
X175157285Y-77128680D01*
X175252523Y-77081061D01*
X175300142Y-77033442D01*
X175347761Y-76938204D01*
X175347761Y-76842966D01*
X175300142Y-76747728D01*
X175252523Y-76700109D01*
X175157285Y-76652490D01*
X174966809Y-76604871D01*
X174871571Y-76557252D01*
X174823952Y-76509633D01*
X174776333Y-76414395D01*
X174776333Y-76319157D01*
X174823952Y-76223919D01*
X174871571Y-76176300D01*
X174966809Y-76128680D01*
X175204904Y-76128680D01*
X175347761Y-76176300D01*
X175776333Y-76604871D02*
X176109666Y-76604871D01*
X176252523Y-77128680D02*
X175776333Y-77128680D01*
X175776333Y-76128680D01*
X176252523Y-76128680D01*
X176538238Y-76128680D02*
X177109666Y-76128680D01*
X176823952Y-77128680D02*
X176823952Y-76128680D01*
X171161095Y-58290100D02*
X171732523Y-58290100D01*
X171446809Y-59290100D02*
X171446809Y-58290100D01*
X172637285Y-59290100D02*
X172303952Y-58813910D01*
X172065857Y-59290100D02*
X172065857Y-58290100D01*
X172446809Y-58290100D01*
X172542047Y-58337720D01*
X172589666Y-58385339D01*
X172637285Y-58480577D01*
X172637285Y-58623434D01*
X172589666Y-58718672D01*
X172542047Y-58766291D01*
X172446809Y-58813910D01*
X172065857Y-58813910D01*
X173637285Y-59290100D02*
X173303952Y-58813910D01*
X173065857Y-59290100D02*
X173065857Y-58290100D01*
X173446809Y-58290100D01*
X173542047Y-58337720D01*
X173589666Y-58385339D01*
X173637285Y-58480577D01*
X173637285Y-58623434D01*
X173589666Y-58718672D01*
X173542047Y-58766291D01*
X173446809Y-58813910D01*
X173065857Y-58813910D01*
X174018238Y-59242481D02*
X174161095Y-59290100D01*
X174399190Y-59290100D01*
X174494428Y-59242481D01*
X174542047Y-59194862D01*
X174589666Y-59099624D01*
X174589666Y-59004386D01*
X174542047Y-58909148D01*
X174494428Y-58861529D01*
X174399190Y-58813910D01*
X174208714Y-58766291D01*
X174113476Y-58718672D01*
X174065857Y-58671053D01*
X174018238Y-58575815D01*
X174018238Y-58480577D01*
X174065857Y-58385339D01*
X174113476Y-58337720D01*
X174208714Y-58290100D01*
X174446809Y-58290100D01*
X174589666Y-58337720D01*
X226894809Y-115815761D02*
X227037666Y-115863380D01*
X227275761Y-115863380D01*
X227371000Y-115815761D01*
X227418619Y-115768142D01*
X227466238Y-115672904D01*
X227466238Y-115577666D01*
X227418619Y-115482428D01*
X227371000Y-115434809D01*
X227275761Y-115387190D01*
X227085285Y-115339571D01*
X226990047Y-115291952D01*
X226942428Y-115244333D01*
X226894809Y-115149095D01*
X226894809Y-115053857D01*
X226942428Y-114958619D01*
X226990047Y-114911000D01*
X227085285Y-114863380D01*
X227323380Y-114863380D01*
X227466238Y-114911000D01*
X227799571Y-114863380D02*
X228037666Y-115863380D01*
X228228142Y-115149095D01*
X228418619Y-115863380D01*
X228656714Y-114863380D01*
X229561476Y-115863380D02*
X228990047Y-115863380D01*
X229275761Y-115863380D02*
X229275761Y-114863380D01*
X229180523Y-115006238D01*
X229085285Y-115101476D01*
X228990047Y-115149095D01*
X230180523Y-114863380D02*
X230275761Y-114863380D01*
X230371000Y-114911000D01*
X230418619Y-114958619D01*
X230466238Y-115053857D01*
X230513857Y-115244333D01*
X230513857Y-115482428D01*
X230466238Y-115672904D01*
X230418619Y-115768142D01*
X230371000Y-115815761D01*
X230275761Y-115863380D01*
X230180523Y-115863380D01*
X230085285Y-115815761D01*
X230037666Y-115768142D01*
X229990047Y-115672904D01*
X229942428Y-115482428D01*
X229942428Y-115244333D01*
X229990047Y-115053857D01*
X230037666Y-114958619D01*
X230085285Y-114911000D01*
X230180523Y-114863380D01*
X230704333Y-115958619D02*
X231466238Y-115958619D01*
X231704333Y-115863380D02*
X231704333Y-115196714D01*
X231704333Y-115387190D02*
X231751952Y-115291952D01*
X231799571Y-115244333D01*
X231894809Y-115196714D01*
X231990047Y-115196714D01*
X232847190Y-115863380D02*
X232275761Y-115863380D01*
X232561476Y-115863380D02*
X232561476Y-114863380D01*
X232466238Y-115006238D01*
X232371000Y-115101476D01*
X232275761Y-115149095D01*
D11*
X88255285Y-71973498D02*
X87898142Y-72140164D01*
X88255285Y-72259212D02*
X87505285Y-72259212D01*
X87505285Y-72068736D01*
X87541000Y-72021117D01*
X87576714Y-71997307D01*
X87648142Y-71973498D01*
X87755285Y-71973498D01*
X87826714Y-71997307D01*
X87862428Y-72021117D01*
X87898142Y-72068736D01*
X87898142Y-72259212D01*
X88041000Y-71783021D02*
X88041000Y-71544926D01*
X88255285Y-71830640D02*
X87505285Y-71663974D01*
X88255285Y-71497307D01*
X87505285Y-71378260D02*
X88255285Y-71259212D01*
X87719571Y-71163974D01*
X88255285Y-71068736D01*
X87505285Y-70949688D01*
X88255285Y-56734188D02*
X88255285Y-56972283D01*
X87505285Y-56972283D01*
X87862428Y-56567521D02*
X87862428Y-56400855D01*
X88255285Y-56329426D02*
X88255285Y-56567521D01*
X87505285Y-56567521D01*
X87505285Y-56329426D01*
X88255285Y-56115140D02*
X87505285Y-56115140D01*
X87505285Y-55996093D01*
X87541000Y-55924664D01*
X87612428Y-55877045D01*
X87683857Y-55853236D01*
X87826714Y-55829426D01*
X87933857Y-55829426D01*
X88076714Y-55853236D01*
X88148142Y-55877045D01*
X88219571Y-55924664D01*
X88255285Y-55996093D01*
X88255285Y-56115140D01*
X90081000Y-72009212D02*
X90045285Y-72056831D01*
X90045285Y-72128260D01*
X90081000Y-72199688D01*
X90152428Y-72247307D01*
X90223857Y-72271117D01*
X90366714Y-72294926D01*
X90473857Y-72294926D01*
X90616714Y-72271117D01*
X90688142Y-72247307D01*
X90759571Y-72199688D01*
X90795285Y-72128260D01*
X90795285Y-72080640D01*
X90759571Y-72009212D01*
X90723857Y-71985402D01*
X90473857Y-71985402D01*
X90473857Y-72080640D01*
X90795285Y-71771117D02*
X90045285Y-71771117D01*
X90795285Y-71485402D01*
X90045285Y-71485402D01*
X90795285Y-71247307D02*
X90045285Y-71247307D01*
X90045285Y-71128260D01*
X90081000Y-71056831D01*
X90152428Y-71009212D01*
X90223857Y-70985402D01*
X90366714Y-70961593D01*
X90473857Y-70961593D01*
X90616714Y-70985402D01*
X90688142Y-71009212D01*
X90759571Y-71056831D01*
X90795285Y-71128260D01*
X90795285Y-71247307D01*
X90783285Y-57312760D02*
X90033285Y-57312760D01*
X90033285Y-57193712D01*
X90069000Y-57122283D01*
X90140428Y-57074664D01*
X90211857Y-57050855D01*
X90354714Y-57027045D01*
X90461857Y-57027045D01*
X90604714Y-57050855D01*
X90676142Y-57074664D01*
X90747571Y-57122283D01*
X90783285Y-57193712D01*
X90783285Y-57312760D01*
X90569000Y-56836569D02*
X90569000Y-56598474D01*
X90783285Y-56884188D02*
X90033285Y-56717521D01*
X90783285Y-56550855D01*
X90033285Y-56455617D02*
X90033285Y-56169902D01*
X90783285Y-56312760D02*
X90033285Y-56312760D01*
X90569000Y-56027045D02*
X90569000Y-55788950D01*
X90783285Y-56074664D02*
X90033285Y-55907998D01*
X90783285Y-55741331D01*
X93398785Y-71902069D02*
X93041642Y-72068736D01*
X93398785Y-72187783D02*
X92648785Y-72187783D01*
X92648785Y-71997307D01*
X92684500Y-71949688D01*
X92720214Y-71925879D01*
X92791642Y-71902069D01*
X92898785Y-71902069D01*
X92970214Y-71925879D01*
X93005928Y-71949688D01*
X93041642Y-71997307D01*
X93041642Y-72187783D01*
X93363071Y-71711593D02*
X93398785Y-71640164D01*
X93398785Y-71521117D01*
X93363071Y-71473498D01*
X93327357Y-71449688D01*
X93255928Y-71425879D01*
X93184500Y-71425879D01*
X93113071Y-71449688D01*
X93077357Y-71473498D01*
X93041642Y-71521117D01*
X93005928Y-71616355D01*
X92970214Y-71663974D01*
X92934500Y-71687783D01*
X92863071Y-71711593D01*
X92791642Y-71711593D01*
X92720214Y-71687783D01*
X92684500Y-71663974D01*
X92648785Y-71616355D01*
X92648785Y-71497307D01*
X92684500Y-71425879D01*
X92648785Y-71283021D02*
X92648785Y-70997307D01*
X93398785Y-71140164D02*
X92648785Y-71140164D01*
X92684500Y-56769212D02*
X92648785Y-56816831D01*
X92648785Y-56888260D01*
X92684500Y-56959688D01*
X92755928Y-57007307D01*
X92827357Y-57031117D01*
X92970214Y-57054926D01*
X93077357Y-57054926D01*
X93220214Y-57031117D01*
X93291642Y-57007307D01*
X93363071Y-56959688D01*
X93398785Y-56888260D01*
X93398785Y-56840640D01*
X93363071Y-56769212D01*
X93327357Y-56745402D01*
X93077357Y-56745402D01*
X93077357Y-56840640D01*
X93398785Y-56531117D02*
X92648785Y-56531117D01*
X93398785Y-56245402D01*
X92648785Y-56245402D01*
X93398785Y-56007307D02*
X92648785Y-56007307D01*
X92648785Y-55888260D01*
X92684500Y-55816831D01*
X92755928Y-55769212D01*
X92827357Y-55745402D01*
X92970214Y-55721593D01*
X93077357Y-55721593D01*
X93220214Y-55745402D01*
X93291642Y-55769212D01*
X93363071Y-55816831D01*
X93398785Y-55888260D01*
X93398785Y-56007307D01*
X95125285Y-72294926D02*
X95875285Y-72128260D01*
X95125285Y-71961593D01*
X95803857Y-71509212D02*
X95839571Y-71533021D01*
X95875285Y-71604450D01*
X95875285Y-71652069D01*
X95839571Y-71723498D01*
X95768142Y-71771117D01*
X95696714Y-71794926D01*
X95553857Y-71818736D01*
X95446714Y-71818736D01*
X95303857Y-71794926D01*
X95232428Y-71771117D01*
X95161000Y-71723498D01*
X95125285Y-71652069D01*
X95125285Y-71604450D01*
X95161000Y-71533021D01*
X95196714Y-71509212D01*
X95803857Y-71009212D02*
X95839571Y-71033021D01*
X95875285Y-71104450D01*
X95875285Y-71152069D01*
X95839571Y-71223498D01*
X95768142Y-71271117D01*
X95696714Y-71294926D01*
X95553857Y-71318736D01*
X95446714Y-71318736D01*
X95303857Y-71294926D01*
X95232428Y-71271117D01*
X95161000Y-71223498D01*
X95125285Y-71152069D01*
X95125285Y-71104450D01*
X95161000Y-71033021D01*
X95196714Y-71009212D01*
X95224500Y-56832712D02*
X95188785Y-56880331D01*
X95188785Y-56951760D01*
X95224500Y-57023188D01*
X95295928Y-57070807D01*
X95367357Y-57094617D01*
X95510214Y-57118426D01*
X95617357Y-57118426D01*
X95760214Y-57094617D01*
X95831642Y-57070807D01*
X95903071Y-57023188D01*
X95938785Y-56951760D01*
X95938785Y-56904140D01*
X95903071Y-56832712D01*
X95867357Y-56808902D01*
X95617357Y-56808902D01*
X95617357Y-56904140D01*
X95938785Y-56594617D02*
X95188785Y-56594617D01*
X95938785Y-56308902D01*
X95188785Y-56308902D01*
X95938785Y-56070807D02*
X95188785Y-56070807D01*
X95188785Y-55951760D01*
X95224500Y-55880331D01*
X95295928Y-55832712D01*
X95367357Y-55808902D01*
X95510214Y-55785093D01*
X95617357Y-55785093D01*
X95760214Y-55808902D01*
X95831642Y-55832712D01*
X95903071Y-55880331D01*
X95938785Y-55951760D01*
X95938785Y-56070807D01*
X106011857Y-72460379D02*
X106047571Y-72484188D01*
X106083285Y-72555617D01*
X106083285Y-72603236D01*
X106047571Y-72674664D01*
X105976142Y-72722283D01*
X105904714Y-72746093D01*
X105761857Y-72769902D01*
X105654714Y-72769902D01*
X105511857Y-72746093D01*
X105440428Y-72722283D01*
X105369000Y-72674664D01*
X105333285Y-72603236D01*
X105333285Y-72555617D01*
X105369000Y-72484188D01*
X105404714Y-72460379D01*
X105333285Y-72150855D02*
X105333285Y-72055617D01*
X105369000Y-72007998D01*
X105440428Y-71960379D01*
X105583285Y-71936569D01*
X105833285Y-71936569D01*
X105976142Y-71960379D01*
X106047571Y-72007998D01*
X106083285Y-72055617D01*
X106083285Y-72150855D01*
X106047571Y-72198474D01*
X105976142Y-72246093D01*
X105833285Y-72269902D01*
X105583285Y-72269902D01*
X105440428Y-72246093D01*
X105369000Y-72198474D01*
X105333285Y-72150855D01*
X106083285Y-71484188D02*
X106083285Y-71722283D01*
X105333285Y-71722283D01*
X105333285Y-71365140D02*
X105333285Y-71055617D01*
X105619000Y-71222283D01*
X105619000Y-71150855D01*
X105654714Y-71103236D01*
X105690428Y-71079426D01*
X105761857Y-71055617D01*
X105940428Y-71055617D01*
X106011857Y-71079426D01*
X106047571Y-71103236D01*
X106083285Y-71150855D01*
X106083285Y-71293712D01*
X106047571Y-71341331D01*
X106011857Y-71365140D01*
X103533285Y-57343712D02*
X103176142Y-57510379D01*
X103533285Y-57629426D02*
X102783285Y-57629426D01*
X102783285Y-57438950D01*
X102819000Y-57391331D01*
X102854714Y-57367521D01*
X102926142Y-57343712D01*
X103033285Y-57343712D01*
X103104714Y-57367521D01*
X103140428Y-57391331D01*
X103176142Y-57438950D01*
X103176142Y-57629426D01*
X102783285Y-57034188D02*
X102783285Y-56938950D01*
X102819000Y-56891331D01*
X102890428Y-56843712D01*
X103033285Y-56819902D01*
X103283285Y-56819902D01*
X103426142Y-56843712D01*
X103497571Y-56891331D01*
X103533285Y-56938950D01*
X103533285Y-57034188D01*
X103497571Y-57081807D01*
X103426142Y-57129426D01*
X103283285Y-57153236D01*
X103033285Y-57153236D01*
X102890428Y-57129426D01*
X102819000Y-57081807D01*
X102783285Y-57034188D01*
X102783285Y-56653236D02*
X103533285Y-56534188D01*
X102997571Y-56438950D01*
X103533285Y-56343712D01*
X102783285Y-56224664D01*
X102783285Y-55938950D02*
X102783285Y-55891331D01*
X102819000Y-55843712D01*
X102854714Y-55819902D01*
X102926142Y-55796093D01*
X103069000Y-55772283D01*
X103247571Y-55772283D01*
X103390428Y-55796093D01*
X103461857Y-55819902D01*
X103497571Y-55843712D01*
X103533285Y-55891331D01*
X103533285Y-55938950D01*
X103497571Y-55986569D01*
X103461857Y-56010379D01*
X103390428Y-56034188D01*
X103247571Y-56057998D01*
X103069000Y-56057998D01*
X102926142Y-56034188D01*
X102854714Y-56010379D01*
X102819000Y-55986569D01*
X102783285Y-55938950D01*
X103423857Y-72360379D02*
X103459571Y-72384188D01*
X103495285Y-72455617D01*
X103495285Y-72503236D01*
X103459571Y-72574664D01*
X103388142Y-72622283D01*
X103316714Y-72646093D01*
X103173857Y-72669902D01*
X103066714Y-72669902D01*
X102923857Y-72646093D01*
X102852428Y-72622283D01*
X102781000Y-72574664D01*
X102745285Y-72503236D01*
X102745285Y-72455617D01*
X102781000Y-72384188D01*
X102816714Y-72360379D01*
X102745285Y-72050855D02*
X102745285Y-71955617D01*
X102781000Y-71907998D01*
X102852428Y-71860379D01*
X102995285Y-71836569D01*
X103245285Y-71836569D01*
X103388142Y-71860379D01*
X103459571Y-71907998D01*
X103495285Y-71955617D01*
X103495285Y-72050855D01*
X103459571Y-72098474D01*
X103388142Y-72146093D01*
X103245285Y-72169902D01*
X102995285Y-72169902D01*
X102852428Y-72146093D01*
X102781000Y-72098474D01*
X102745285Y-72050855D01*
X103495285Y-71384188D02*
X103495285Y-71622283D01*
X102745285Y-71622283D01*
X102816714Y-71241331D02*
X102781000Y-71217521D01*
X102745285Y-71169902D01*
X102745285Y-71050855D01*
X102781000Y-71003236D01*
X102816714Y-70979426D01*
X102888142Y-70955617D01*
X102959571Y-70955617D01*
X103066714Y-70979426D01*
X103495285Y-71265140D01*
X103495285Y-70955617D01*
X100919571Y-57046998D02*
X100955285Y-56975569D01*
X100955285Y-56856521D01*
X100919571Y-56808902D01*
X100883857Y-56785093D01*
X100812428Y-56761283D01*
X100741000Y-56761283D01*
X100669571Y-56785093D01*
X100633857Y-56808902D01*
X100598142Y-56856521D01*
X100562428Y-56951760D01*
X100526714Y-56999379D01*
X100491000Y-57023188D01*
X100419571Y-57046998D01*
X100348142Y-57046998D01*
X100276714Y-57023188D01*
X100241000Y-56999379D01*
X100205285Y-56951760D01*
X100205285Y-56832712D01*
X100241000Y-56761283D01*
X100883857Y-56261283D02*
X100919571Y-56285093D01*
X100955285Y-56356521D01*
X100955285Y-56404140D01*
X100919571Y-56475569D01*
X100848142Y-56523188D01*
X100776714Y-56546998D01*
X100633857Y-56570807D01*
X100526714Y-56570807D01*
X100383857Y-56546998D01*
X100312428Y-56523188D01*
X100241000Y-56475569D01*
X100205285Y-56404140D01*
X100205285Y-56356521D01*
X100241000Y-56285093D01*
X100276714Y-56261283D01*
X100955285Y-55808902D02*
X100955285Y-56046998D01*
X100205285Y-56046998D01*
X100883857Y-72310379D02*
X100919571Y-72334188D01*
X100955285Y-72405617D01*
X100955285Y-72453236D01*
X100919571Y-72524664D01*
X100848142Y-72572283D01*
X100776714Y-72596093D01*
X100633857Y-72619902D01*
X100526714Y-72619902D01*
X100383857Y-72596093D01*
X100312428Y-72572283D01*
X100241000Y-72524664D01*
X100205285Y-72453236D01*
X100205285Y-72405617D01*
X100241000Y-72334188D01*
X100276714Y-72310379D01*
X100205285Y-72000855D02*
X100205285Y-71905617D01*
X100241000Y-71857998D01*
X100312428Y-71810379D01*
X100455285Y-71786569D01*
X100705285Y-71786569D01*
X100848142Y-71810379D01*
X100919571Y-71857998D01*
X100955285Y-71905617D01*
X100955285Y-72000855D01*
X100919571Y-72048474D01*
X100848142Y-72096093D01*
X100705285Y-72119902D01*
X100455285Y-72119902D01*
X100312428Y-72096093D01*
X100241000Y-72048474D01*
X100205285Y-72000855D01*
X100955285Y-71334188D02*
X100955285Y-71572283D01*
X100205285Y-71572283D01*
X100955285Y-70905617D02*
X100955285Y-71191331D01*
X100955285Y-71048474D02*
X100205285Y-71048474D01*
X100312428Y-71096093D01*
X100383857Y-71143712D01*
X100419571Y-71191331D01*
X98379571Y-57058902D02*
X98415285Y-56987474D01*
X98415285Y-56868426D01*
X98379571Y-56820807D01*
X98343857Y-56796998D01*
X98272428Y-56773188D01*
X98201000Y-56773188D01*
X98129571Y-56796998D01*
X98093857Y-56820807D01*
X98058142Y-56868426D01*
X98022428Y-56963664D01*
X97986714Y-57011283D01*
X97951000Y-57035093D01*
X97879571Y-57058902D01*
X97808142Y-57058902D01*
X97736714Y-57035093D01*
X97701000Y-57011283D01*
X97665285Y-56963664D01*
X97665285Y-56844617D01*
X97701000Y-56773188D01*
X98415285Y-56558902D02*
X97665285Y-56558902D01*
X97665285Y-56439855D01*
X97701000Y-56368426D01*
X97772428Y-56320807D01*
X97843857Y-56296998D01*
X97986714Y-56273188D01*
X98093857Y-56273188D01*
X98236714Y-56296998D01*
X98308142Y-56320807D01*
X98379571Y-56368426D01*
X98415285Y-56439855D01*
X98415285Y-56558902D01*
X98201000Y-56082712D02*
X98201000Y-55844617D01*
X98415285Y-56130331D02*
X97665285Y-55963664D01*
X98415285Y-55796998D01*
X98361857Y-72360379D02*
X98397571Y-72384188D01*
X98433285Y-72455617D01*
X98433285Y-72503236D01*
X98397571Y-72574664D01*
X98326142Y-72622283D01*
X98254714Y-72646093D01*
X98111857Y-72669902D01*
X98004714Y-72669902D01*
X97861857Y-72646093D01*
X97790428Y-72622283D01*
X97719000Y-72574664D01*
X97683285Y-72503236D01*
X97683285Y-72455617D01*
X97719000Y-72384188D01*
X97754714Y-72360379D01*
X97683285Y-72050855D02*
X97683285Y-71955617D01*
X97719000Y-71907998D01*
X97790428Y-71860379D01*
X97933285Y-71836569D01*
X98183285Y-71836569D01*
X98326142Y-71860379D01*
X98397571Y-71907998D01*
X98433285Y-71955617D01*
X98433285Y-72050855D01*
X98397571Y-72098474D01*
X98326142Y-72146093D01*
X98183285Y-72169902D01*
X97933285Y-72169902D01*
X97790428Y-72146093D01*
X97719000Y-72098474D01*
X97683285Y-72050855D01*
X98433285Y-71384188D02*
X98433285Y-71622283D01*
X97683285Y-71622283D01*
X97683285Y-71122283D02*
X97683285Y-71074664D01*
X97719000Y-71027045D01*
X97754714Y-71003236D01*
X97826142Y-70979426D01*
X97969000Y-70955617D01*
X98147571Y-70955617D01*
X98290428Y-70979426D01*
X98361857Y-71003236D01*
X98397571Y-71027045D01*
X98433285Y-71074664D01*
X98433285Y-71122283D01*
X98397571Y-71169902D01*
X98361857Y-71193712D01*
X98290428Y-71217521D01*
X98147571Y-71241331D01*
X97969000Y-71241331D01*
X97826142Y-71217521D01*
X97754714Y-71193712D01*
X97719000Y-71169902D01*
X97683285Y-71122283D01*
X115840428Y-72165140D02*
X115876142Y-72093712D01*
X115911857Y-72069902D01*
X115983285Y-72046093D01*
X116090428Y-72046093D01*
X116161857Y-72069902D01*
X116197571Y-72093712D01*
X116233285Y-72141331D01*
X116233285Y-72331807D01*
X115483285Y-72331807D01*
X115483285Y-72165140D01*
X115519000Y-72117521D01*
X115554714Y-72093712D01*
X115626142Y-72069902D01*
X115697571Y-72069902D01*
X115769000Y-72093712D01*
X115804714Y-72117521D01*
X115840428Y-72165140D01*
X115840428Y-72331807D01*
X115483285Y-71617521D02*
X115483285Y-71712760D01*
X115519000Y-71760379D01*
X115554714Y-71784188D01*
X115661857Y-71831807D01*
X115804714Y-71855617D01*
X116090428Y-71855617D01*
X116161857Y-71831807D01*
X116197571Y-71807998D01*
X116233285Y-71760379D01*
X116233285Y-71665140D01*
X116197571Y-71617521D01*
X116161857Y-71593712D01*
X116090428Y-71569902D01*
X115911857Y-71569902D01*
X115840428Y-71593712D01*
X115804714Y-71617521D01*
X115769000Y-71665140D01*
X115769000Y-71760379D01*
X115804714Y-71807998D01*
X115840428Y-71831807D01*
X115911857Y-71855617D01*
X115865928Y-56915140D02*
X115901642Y-56843712D01*
X115937357Y-56819902D01*
X116008785Y-56796093D01*
X116115928Y-56796093D01*
X116187357Y-56819902D01*
X116223071Y-56843712D01*
X116258785Y-56891331D01*
X116258785Y-57081807D01*
X115508785Y-57081807D01*
X115508785Y-56915140D01*
X115544500Y-56867521D01*
X115580214Y-56843712D01*
X115651642Y-56819902D01*
X115723071Y-56819902D01*
X115794500Y-56843712D01*
X115830214Y-56867521D01*
X115865928Y-56915140D01*
X115865928Y-57081807D01*
X115508785Y-56343712D02*
X115508785Y-56581807D01*
X115865928Y-56605617D01*
X115830214Y-56581807D01*
X115794500Y-56534188D01*
X115794500Y-56415140D01*
X115830214Y-56367521D01*
X115865928Y-56343712D01*
X115937357Y-56319902D01*
X116115928Y-56319902D01*
X116187357Y-56343712D01*
X116223071Y-56367521D01*
X116258785Y-56415140D01*
X116258785Y-56534188D01*
X116223071Y-56581807D01*
X116187357Y-56605617D01*
X113262428Y-56915140D02*
X113298142Y-56843712D01*
X113333857Y-56819902D01*
X113405285Y-56796093D01*
X113512428Y-56796093D01*
X113583857Y-56819902D01*
X113619571Y-56843712D01*
X113655285Y-56891331D01*
X113655285Y-57081807D01*
X112905285Y-57081807D01*
X112905285Y-56915140D01*
X112941000Y-56867521D01*
X112976714Y-56843712D01*
X113048142Y-56819902D01*
X113119571Y-56819902D01*
X113191000Y-56843712D01*
X113226714Y-56867521D01*
X113262428Y-56915140D01*
X113262428Y-57081807D01*
X113155285Y-56367521D02*
X113655285Y-56367521D01*
X112869571Y-56486569D02*
X113405285Y-56605617D01*
X113405285Y-56296093D01*
X113290428Y-72065140D02*
X113326142Y-71993712D01*
X113361857Y-71969902D01*
X113433285Y-71946093D01*
X113540428Y-71946093D01*
X113611857Y-71969902D01*
X113647571Y-71993712D01*
X113683285Y-72041331D01*
X113683285Y-72231807D01*
X112933285Y-72231807D01*
X112933285Y-72065140D01*
X112969000Y-72017521D01*
X113004714Y-71993712D01*
X113076142Y-71969902D01*
X113147571Y-71969902D01*
X113219000Y-71993712D01*
X113254714Y-72017521D01*
X113290428Y-72065140D01*
X113290428Y-72231807D01*
X113004714Y-71755617D02*
X112969000Y-71731807D01*
X112933285Y-71684188D01*
X112933285Y-71565140D01*
X112969000Y-71517521D01*
X113004714Y-71493712D01*
X113076142Y-71469902D01*
X113147571Y-71469902D01*
X113254714Y-71493712D01*
X113683285Y-71779426D01*
X113683285Y-71469902D01*
X111178785Y-57343712D02*
X110821642Y-57510379D01*
X111178785Y-57629426D02*
X110428785Y-57629426D01*
X110428785Y-57438950D01*
X110464500Y-57391331D01*
X110500214Y-57367521D01*
X110571642Y-57343712D01*
X110678785Y-57343712D01*
X110750214Y-57367521D01*
X110785928Y-57391331D01*
X110821642Y-57438950D01*
X110821642Y-57629426D01*
X110428785Y-57034188D02*
X110428785Y-56938950D01*
X110464500Y-56891331D01*
X110535928Y-56843712D01*
X110678785Y-56819902D01*
X110928785Y-56819902D01*
X111071642Y-56843712D01*
X111143071Y-56891331D01*
X111178785Y-56938950D01*
X111178785Y-57034188D01*
X111143071Y-57081807D01*
X111071642Y-57129426D01*
X110928785Y-57153236D01*
X110678785Y-57153236D01*
X110535928Y-57129426D01*
X110464500Y-57081807D01*
X110428785Y-57034188D01*
X110428785Y-56653236D02*
X111178785Y-56534188D01*
X110643071Y-56438950D01*
X111178785Y-56343712D01*
X110428785Y-56224664D01*
X110428785Y-56081807D02*
X110428785Y-55772283D01*
X110714500Y-55938950D01*
X110714500Y-55867521D01*
X110750214Y-55819902D01*
X110785928Y-55796093D01*
X110857357Y-55772283D01*
X111035928Y-55772283D01*
X111107357Y-55796093D01*
X111143071Y-55819902D01*
X111178785Y-55867521D01*
X111178785Y-56010379D01*
X111143071Y-56057998D01*
X111107357Y-56081807D01*
X111107357Y-72410379D02*
X111143071Y-72434188D01*
X111178785Y-72505617D01*
X111178785Y-72553236D01*
X111143071Y-72624664D01*
X111071642Y-72672283D01*
X111000214Y-72696093D01*
X110857357Y-72719902D01*
X110750214Y-72719902D01*
X110607357Y-72696093D01*
X110535928Y-72672283D01*
X110464500Y-72624664D01*
X110428785Y-72553236D01*
X110428785Y-72505617D01*
X110464500Y-72434188D01*
X110500214Y-72410379D01*
X110428785Y-72100855D02*
X110428785Y-72005617D01*
X110464500Y-71957998D01*
X110535928Y-71910379D01*
X110678785Y-71886569D01*
X110928785Y-71886569D01*
X111071642Y-71910379D01*
X111143071Y-71957998D01*
X111178785Y-72005617D01*
X111178785Y-72100855D01*
X111143071Y-72148474D01*
X111071642Y-72196093D01*
X110928785Y-72219902D01*
X110678785Y-72219902D01*
X110535928Y-72196093D01*
X110464500Y-72148474D01*
X110428785Y-72100855D01*
X111178785Y-71434188D02*
X111178785Y-71672283D01*
X110428785Y-71672283D01*
X110428785Y-71029426D02*
X110428785Y-71267521D01*
X110785928Y-71291331D01*
X110750214Y-71267521D01*
X110714500Y-71219902D01*
X110714500Y-71100855D01*
X110750214Y-71053236D01*
X110785928Y-71029426D01*
X110857357Y-71005617D01*
X111035928Y-71005617D01*
X111107357Y-71029426D01*
X111143071Y-71053236D01*
X111178785Y-71100855D01*
X111178785Y-71219902D01*
X111143071Y-71267521D01*
X111107357Y-71291331D01*
X108583285Y-57343712D02*
X108226142Y-57510379D01*
X108583285Y-57629426D02*
X107833285Y-57629426D01*
X107833285Y-57438950D01*
X107869000Y-57391331D01*
X107904714Y-57367521D01*
X107976142Y-57343712D01*
X108083285Y-57343712D01*
X108154714Y-57367521D01*
X108190428Y-57391331D01*
X108226142Y-57438950D01*
X108226142Y-57629426D01*
X107833285Y-57034188D02*
X107833285Y-56938950D01*
X107869000Y-56891331D01*
X107940428Y-56843712D01*
X108083285Y-56819902D01*
X108333285Y-56819902D01*
X108476142Y-56843712D01*
X108547571Y-56891331D01*
X108583285Y-56938950D01*
X108583285Y-57034188D01*
X108547571Y-57081807D01*
X108476142Y-57129426D01*
X108333285Y-57153236D01*
X108083285Y-57153236D01*
X107940428Y-57129426D01*
X107869000Y-57081807D01*
X107833285Y-57034188D01*
X107833285Y-56653236D02*
X108583285Y-56534188D01*
X108047571Y-56438950D01*
X108583285Y-56343712D01*
X107833285Y-56224664D01*
X107904714Y-56057998D02*
X107869000Y-56034188D01*
X107833285Y-55986569D01*
X107833285Y-55867521D01*
X107869000Y-55819902D01*
X107904714Y-55796093D01*
X107976142Y-55772283D01*
X108047571Y-55772283D01*
X108154714Y-55796093D01*
X108583285Y-56081807D01*
X108583285Y-55772283D01*
X108511857Y-72410379D02*
X108547571Y-72434188D01*
X108583285Y-72505617D01*
X108583285Y-72553236D01*
X108547571Y-72624664D01*
X108476142Y-72672283D01*
X108404714Y-72696093D01*
X108261857Y-72719902D01*
X108154714Y-72719902D01*
X108011857Y-72696093D01*
X107940428Y-72672283D01*
X107869000Y-72624664D01*
X107833285Y-72553236D01*
X107833285Y-72505617D01*
X107869000Y-72434188D01*
X107904714Y-72410379D01*
X107833285Y-72100855D02*
X107833285Y-72005617D01*
X107869000Y-71957998D01*
X107940428Y-71910379D01*
X108083285Y-71886569D01*
X108333285Y-71886569D01*
X108476142Y-71910379D01*
X108547571Y-71957998D01*
X108583285Y-72005617D01*
X108583285Y-72100855D01*
X108547571Y-72148474D01*
X108476142Y-72196093D01*
X108333285Y-72219902D01*
X108083285Y-72219902D01*
X107940428Y-72196093D01*
X107869000Y-72148474D01*
X107833285Y-72100855D01*
X108583285Y-71434188D02*
X108583285Y-71672283D01*
X107833285Y-71672283D01*
X108083285Y-71053236D02*
X108583285Y-71053236D01*
X107797571Y-71172283D02*
X108333285Y-71291331D01*
X108333285Y-70981807D01*
X106035285Y-57293712D02*
X105678142Y-57460379D01*
X106035285Y-57579426D02*
X105285285Y-57579426D01*
X105285285Y-57388950D01*
X105321000Y-57341331D01*
X105356714Y-57317521D01*
X105428142Y-57293712D01*
X105535285Y-57293712D01*
X105606714Y-57317521D01*
X105642428Y-57341331D01*
X105678142Y-57388950D01*
X105678142Y-57579426D01*
X105285285Y-56984188D02*
X105285285Y-56888950D01*
X105321000Y-56841331D01*
X105392428Y-56793712D01*
X105535285Y-56769902D01*
X105785285Y-56769902D01*
X105928142Y-56793712D01*
X105999571Y-56841331D01*
X106035285Y-56888950D01*
X106035285Y-56984188D01*
X105999571Y-57031807D01*
X105928142Y-57079426D01*
X105785285Y-57103236D01*
X105535285Y-57103236D01*
X105392428Y-57079426D01*
X105321000Y-57031807D01*
X105285285Y-56984188D01*
X105285285Y-56603236D02*
X106035285Y-56484188D01*
X105499571Y-56388950D01*
X106035285Y-56293712D01*
X105285285Y-56174664D01*
X106035285Y-55722283D02*
X106035285Y-56007998D01*
X106035285Y-55865140D02*
X105285285Y-55865140D01*
X105392428Y-55912760D01*
X105463857Y-55960379D01*
X105499571Y-56007998D01*
D10*
X80415428Y-96766361D02*
X80558285Y-96813980D01*
X80796380Y-96813980D01*
X80891619Y-96766361D01*
X80939238Y-96718742D01*
X80986857Y-96623504D01*
X80986857Y-96528266D01*
X80939238Y-96433028D01*
X80891619Y-96385409D01*
X80796380Y-96337790D01*
X80605904Y-96290171D01*
X80510666Y-96242552D01*
X80463047Y-96194933D01*
X80415428Y-96099695D01*
X80415428Y-96004457D01*
X80463047Y-95909219D01*
X80510666Y-95861600D01*
X80605904Y-95813980D01*
X80844000Y-95813980D01*
X80986857Y-95861600D01*
X81320190Y-95813980D02*
X81558285Y-96813980D01*
X81748761Y-96099695D01*
X81939238Y-96813980D01*
X82177333Y-95813980D01*
X83082095Y-96813980D02*
X82510666Y-96813980D01*
X82796380Y-96813980D02*
X82796380Y-95813980D01*
X82701142Y-95956838D01*
X82605904Y-96052076D01*
X82510666Y-96099695D01*
X83415428Y-95813980D02*
X84034476Y-95813980D01*
X83701142Y-96194933D01*
X83844000Y-96194933D01*
X83939238Y-96242552D01*
X83986857Y-96290171D01*
X84034476Y-96385409D01*
X84034476Y-96623504D01*
X83986857Y-96718742D01*
X83939238Y-96766361D01*
X83844000Y-96813980D01*
X83558285Y-96813980D01*
X83463047Y-96766361D01*
X83415428Y-96718742D01*
X84224952Y-96909219D02*
X84986857Y-96909219D01*
X85367809Y-96813980D02*
X85272571Y-96766361D01*
X85224952Y-96671123D01*
X85224952Y-95813980D01*
X86272571Y-96813980D02*
X85701142Y-96813980D01*
X85986857Y-96813980D02*
X85986857Y-95813980D01*
X85891619Y-95956838D01*
X85796380Y-96052076D01*
X85701142Y-96099695D01*
X61841519Y-96766361D02*
X61984376Y-96813980D01*
X62222471Y-96813980D01*
X62317709Y-96766361D01*
X62365328Y-96718742D01*
X62412947Y-96623504D01*
X62412947Y-96528266D01*
X62365328Y-96433028D01*
X62317709Y-96385409D01*
X62222471Y-96337790D01*
X62031995Y-96290171D01*
X61936757Y-96242552D01*
X61889138Y-96194933D01*
X61841519Y-96099695D01*
X61841519Y-96004457D01*
X61889138Y-95909219D01*
X61936757Y-95861600D01*
X62031995Y-95813980D01*
X62270090Y-95813980D01*
X62412947Y-95861600D01*
X62746280Y-95813980D02*
X62984376Y-96813980D01*
X63174852Y-96099695D01*
X63365328Y-96813980D01*
X63603423Y-95813980D01*
X64031995Y-96813980D02*
X64222471Y-96813980D01*
X64317709Y-96766361D01*
X64365328Y-96718742D01*
X64460566Y-96575885D01*
X64508185Y-96385409D01*
X64508185Y-96004457D01*
X64460566Y-95909219D01*
X64412947Y-95861600D01*
X64317709Y-95813980D01*
X64127233Y-95813980D01*
X64031995Y-95861600D01*
X63984376Y-95909219D01*
X63936757Y-96004457D01*
X63936757Y-96242552D01*
X63984376Y-96337790D01*
X64031995Y-96385409D01*
X64127233Y-96433028D01*
X64317709Y-96433028D01*
X64412947Y-96385409D01*
X64460566Y-96337790D01*
X64508185Y-96242552D01*
X64698661Y-96909219D02*
X65460566Y-96909219D01*
X65841519Y-96813980D02*
X65746280Y-96766361D01*
X65698661Y-96671123D01*
X65698661Y-95813980D01*
X66746280Y-96813980D02*
X66174852Y-96813980D01*
X66460566Y-96813980D02*
X66460566Y-95813980D01*
X66365328Y-95956838D01*
X66270090Y-96052076D01*
X66174852Y-96099695D01*
X57079019Y-153916761D02*
X57221876Y-153964380D01*
X57459971Y-153964380D01*
X57555209Y-153916761D01*
X57602828Y-153869142D01*
X57650447Y-153773904D01*
X57650447Y-153678666D01*
X57602828Y-153583428D01*
X57555209Y-153535809D01*
X57459971Y-153488190D01*
X57269495Y-153440571D01*
X57174257Y-153392952D01*
X57126638Y-153345333D01*
X57079019Y-153250095D01*
X57079019Y-153154857D01*
X57126638Y-153059619D01*
X57174257Y-153012000D01*
X57269495Y-152964380D01*
X57507590Y-152964380D01*
X57650447Y-153012000D01*
X57983780Y-152964380D02*
X58221876Y-153964380D01*
X58412352Y-153250095D01*
X58602828Y-153964380D01*
X58840923Y-152964380D01*
X59364733Y-153392952D02*
X59269495Y-153345333D01*
X59221876Y-153297714D01*
X59174257Y-153202476D01*
X59174257Y-153154857D01*
X59221876Y-153059619D01*
X59269495Y-153012000D01*
X59364733Y-152964380D01*
X59555209Y-152964380D01*
X59650447Y-153012000D01*
X59698066Y-153059619D01*
X59745685Y-153154857D01*
X59745685Y-153202476D01*
X59698066Y-153297714D01*
X59650447Y-153345333D01*
X59555209Y-153392952D01*
X59364733Y-153392952D01*
X59269495Y-153440571D01*
X59221876Y-153488190D01*
X59174257Y-153583428D01*
X59174257Y-153773904D01*
X59221876Y-153869142D01*
X59269495Y-153916761D01*
X59364733Y-153964380D01*
X59555209Y-153964380D01*
X59650447Y-153916761D01*
X59698066Y-153869142D01*
X59745685Y-153773904D01*
X59745685Y-153583428D01*
X59698066Y-153488190D01*
X59650447Y-153440571D01*
X59555209Y-153392952D01*
X59936161Y-154059619D02*
X60698066Y-154059619D01*
X61079019Y-153964380D02*
X60983780Y-153916761D01*
X60936161Y-153821523D01*
X60936161Y-152964380D01*
X61983780Y-153964380D02*
X61412352Y-153964380D01*
X61698066Y-153964380D02*
X61698066Y-152964380D01*
X61602828Y-153107238D01*
X61507590Y-153202476D01*
X61412352Y-153250095D01*
X42791519Y-134866761D02*
X42934376Y-134914380D01*
X43172471Y-134914380D01*
X43267709Y-134866761D01*
X43315328Y-134819142D01*
X43362947Y-134723904D01*
X43362947Y-134628666D01*
X43315328Y-134533428D01*
X43267709Y-134485809D01*
X43172471Y-134438190D01*
X42981995Y-134390571D01*
X42886757Y-134342952D01*
X42839138Y-134295333D01*
X42791519Y-134200095D01*
X42791519Y-134104857D01*
X42839138Y-134009619D01*
X42886757Y-133962000D01*
X42981995Y-133914380D01*
X43220090Y-133914380D01*
X43362947Y-133962000D01*
X43696280Y-133914380D02*
X43934376Y-134914380D01*
X44124852Y-134200095D01*
X44315328Y-134914380D01*
X44553423Y-133914380D01*
X44839138Y-133914380D02*
X45505804Y-133914380D01*
X45077233Y-134914380D01*
X45648661Y-135009619D02*
X46410566Y-135009619D01*
X46791519Y-134914380D02*
X46696280Y-134866761D01*
X46648661Y-134771523D01*
X46648661Y-133914380D01*
X47696280Y-134914380D02*
X47124852Y-134914380D01*
X47410566Y-134914380D02*
X47410566Y-133914380D01*
X47315328Y-134057238D01*
X47220090Y-134152476D01*
X47124852Y-134200095D01*
X47554019Y-115816761D02*
X47696876Y-115864380D01*
X47934971Y-115864380D01*
X48030209Y-115816761D01*
X48077828Y-115769142D01*
X48125447Y-115673904D01*
X48125447Y-115578666D01*
X48077828Y-115483428D01*
X48030209Y-115435809D01*
X47934971Y-115388190D01*
X47744495Y-115340571D01*
X47649257Y-115292952D01*
X47601638Y-115245333D01*
X47554019Y-115150095D01*
X47554019Y-115054857D01*
X47601638Y-114959619D01*
X47649257Y-114912000D01*
X47744495Y-114864380D01*
X47982590Y-114864380D01*
X48125447Y-114912000D01*
X48458780Y-114864380D02*
X48696876Y-115864380D01*
X48887352Y-115150095D01*
X49077828Y-115864380D01*
X49315923Y-114864380D01*
X50125447Y-114864380D02*
X49934971Y-114864380D01*
X49839733Y-114912000D01*
X49792114Y-114959619D01*
X49696876Y-115102476D01*
X49649257Y-115292952D01*
X49649257Y-115673904D01*
X49696876Y-115769142D01*
X49744495Y-115816761D01*
X49839733Y-115864380D01*
X50030209Y-115864380D01*
X50125447Y-115816761D01*
X50173066Y-115769142D01*
X50220685Y-115673904D01*
X50220685Y-115435809D01*
X50173066Y-115340571D01*
X50125447Y-115292952D01*
X50030209Y-115245333D01*
X49839733Y-115245333D01*
X49744495Y-115292952D01*
X49696876Y-115340571D01*
X49649257Y-115435809D01*
X50411161Y-115959619D02*
X51173066Y-115959619D01*
X51554019Y-115864380D02*
X51458780Y-115816761D01*
X51411161Y-115721523D01*
X51411161Y-114864380D01*
X52458780Y-115864380D02*
X51887352Y-115864380D01*
X52173066Y-115864380D02*
X52173066Y-114864380D01*
X52077828Y-115007238D01*
X51982590Y-115102476D01*
X51887352Y-115150095D01*
X42791519Y-96766461D02*
X42934376Y-96814080D01*
X43172471Y-96814080D01*
X43267709Y-96766461D01*
X43315328Y-96718842D01*
X43362947Y-96623604D01*
X43362947Y-96528366D01*
X43315328Y-96433128D01*
X43267709Y-96385509D01*
X43172471Y-96337890D01*
X42981995Y-96290271D01*
X42886757Y-96242652D01*
X42839138Y-96195033D01*
X42791519Y-96099795D01*
X42791519Y-96004557D01*
X42839138Y-95909319D01*
X42886757Y-95861700D01*
X42981995Y-95814080D01*
X43220090Y-95814080D01*
X43362947Y-95861700D01*
X43696280Y-95814080D02*
X43934376Y-96814080D01*
X44124852Y-96099795D01*
X44315328Y-96814080D01*
X44553423Y-95814080D01*
X45410566Y-95814080D02*
X44934376Y-95814080D01*
X44886757Y-96290271D01*
X44934376Y-96242652D01*
X45029614Y-96195033D01*
X45267709Y-96195033D01*
X45362947Y-96242652D01*
X45410566Y-96290271D01*
X45458185Y-96385509D01*
X45458185Y-96623604D01*
X45410566Y-96718842D01*
X45362947Y-96766461D01*
X45267709Y-96814080D01*
X45029614Y-96814080D01*
X44934376Y-96766461D01*
X44886757Y-96718842D01*
X45648661Y-96909319D02*
X46410566Y-96909319D01*
X46791519Y-96814080D02*
X46696280Y-96766461D01*
X46648661Y-96671223D01*
X46648661Y-95814080D01*
X47696280Y-96814080D02*
X47124852Y-96814080D01*
X47410566Y-96814080D02*
X47410566Y-95814080D01*
X47315328Y-95956938D01*
X47220090Y-96052176D01*
X47124852Y-96099795D01*
X38029019Y-153916761D02*
X38171876Y-153964380D01*
X38409971Y-153964380D01*
X38505209Y-153916761D01*
X38552828Y-153869142D01*
X38600447Y-153773904D01*
X38600447Y-153678666D01*
X38552828Y-153583428D01*
X38505209Y-153535809D01*
X38409971Y-153488190D01*
X38219495Y-153440571D01*
X38124257Y-153392952D01*
X38076638Y-153345333D01*
X38029019Y-153250095D01*
X38029019Y-153154857D01*
X38076638Y-153059619D01*
X38124257Y-153012000D01*
X38219495Y-152964380D01*
X38457590Y-152964380D01*
X38600447Y-153012000D01*
X38933780Y-152964380D02*
X39171876Y-153964380D01*
X39362352Y-153250095D01*
X39552828Y-153964380D01*
X39790923Y-152964380D01*
X40600447Y-153297714D02*
X40600447Y-153964380D01*
X40362352Y-152916761D02*
X40124257Y-153631047D01*
X40743304Y-153631047D01*
X40886161Y-154059619D02*
X41648066Y-154059619D01*
X42029019Y-153964380D02*
X41933780Y-153916761D01*
X41886161Y-153821523D01*
X41886161Y-152964380D01*
X42933780Y-153964380D02*
X42362352Y-153964380D01*
X42648066Y-153964380D02*
X42648066Y-152964380D01*
X42552828Y-153107238D01*
X42457590Y-153202476D01*
X42362352Y-153250095D01*
X23741519Y-134866761D02*
X23884376Y-134914380D01*
X24122471Y-134914380D01*
X24217709Y-134866761D01*
X24265328Y-134819142D01*
X24312947Y-134723904D01*
X24312947Y-134628666D01*
X24265328Y-134533428D01*
X24217709Y-134485809D01*
X24122471Y-134438190D01*
X23931995Y-134390571D01*
X23836757Y-134342952D01*
X23789138Y-134295333D01*
X23741519Y-134200095D01*
X23741519Y-134104857D01*
X23789138Y-134009619D01*
X23836757Y-133962000D01*
X23931995Y-133914380D01*
X24170090Y-133914380D01*
X24312947Y-133962000D01*
X24646280Y-133914380D02*
X24884376Y-134914380D01*
X25074852Y-134200095D01*
X25265328Y-134914380D01*
X25503423Y-133914380D01*
X25789138Y-133914380D02*
X26408185Y-133914380D01*
X26074852Y-134295333D01*
X26217709Y-134295333D01*
X26312947Y-134342952D01*
X26360566Y-134390571D01*
X26408185Y-134485809D01*
X26408185Y-134723904D01*
X26360566Y-134819142D01*
X26312947Y-134866761D01*
X26217709Y-134914380D01*
X25931995Y-134914380D01*
X25836757Y-134866761D01*
X25789138Y-134819142D01*
X26598661Y-135009619D02*
X27360566Y-135009619D01*
X27741519Y-134914380D02*
X27646280Y-134866761D01*
X27598661Y-134771523D01*
X27598661Y-133914380D01*
X28646280Y-134914380D02*
X28074852Y-134914380D01*
X28360566Y-134914380D02*
X28360566Y-133914380D01*
X28265328Y-134057238D01*
X28170090Y-134152476D01*
X28074852Y-134200095D01*
X28504019Y-115816761D02*
X28646876Y-115864380D01*
X28884971Y-115864380D01*
X28980209Y-115816761D01*
X29027828Y-115769142D01*
X29075447Y-115673904D01*
X29075447Y-115578666D01*
X29027828Y-115483428D01*
X28980209Y-115435809D01*
X28884971Y-115388190D01*
X28694495Y-115340571D01*
X28599257Y-115292952D01*
X28551638Y-115245333D01*
X28504019Y-115150095D01*
X28504019Y-115054857D01*
X28551638Y-114959619D01*
X28599257Y-114912000D01*
X28694495Y-114864380D01*
X28932590Y-114864380D01*
X29075447Y-114912000D01*
X29408780Y-114864380D02*
X29646876Y-115864380D01*
X29837352Y-115150095D01*
X30027828Y-115864380D01*
X30265923Y-114864380D01*
X30599257Y-114959619D02*
X30646876Y-114912000D01*
X30742114Y-114864380D01*
X30980209Y-114864380D01*
X31075447Y-114912000D01*
X31123066Y-114959619D01*
X31170685Y-115054857D01*
X31170685Y-115150095D01*
X31123066Y-115292952D01*
X30551638Y-115864380D01*
X31170685Y-115864380D01*
X31361161Y-115959619D02*
X32123066Y-115959619D01*
X32504019Y-115864380D02*
X32408780Y-115816761D01*
X32361161Y-115721523D01*
X32361161Y-114864380D01*
X33408780Y-115864380D02*
X32837352Y-115864380D01*
X33123066Y-115864380D02*
X33123066Y-114864380D01*
X33027828Y-115007238D01*
X32932590Y-115102476D01*
X32837352Y-115150095D01*
X132803428Y-158678761D02*
X132946285Y-158726380D01*
X133184380Y-158726380D01*
X133279619Y-158678761D01*
X133327238Y-158631142D01*
X133374857Y-158535904D01*
X133374857Y-158440666D01*
X133327238Y-158345428D01*
X133279619Y-158297809D01*
X133184380Y-158250190D01*
X132993904Y-158202571D01*
X132898666Y-158154952D01*
X132851047Y-158107333D01*
X132803428Y-158012095D01*
X132803428Y-157916857D01*
X132851047Y-157821619D01*
X132898666Y-157774000D01*
X132993904Y-157726380D01*
X133232000Y-157726380D01*
X133374857Y-157774000D01*
X133708190Y-157726380D02*
X133946285Y-158726380D01*
X134136761Y-158012095D01*
X134327238Y-158726380D01*
X134565333Y-157726380D01*
X134898666Y-157821619D02*
X134946285Y-157774000D01*
X135041523Y-157726380D01*
X135279619Y-157726380D01*
X135374857Y-157774000D01*
X135422476Y-157821619D01*
X135470095Y-157916857D01*
X135470095Y-158012095D01*
X135422476Y-158154952D01*
X134851047Y-158726380D01*
X135470095Y-158726380D01*
X136327238Y-158059714D02*
X136327238Y-158726380D01*
X136089142Y-157678761D02*
X135851047Y-158393047D01*
X136470095Y-158393047D01*
X136612952Y-158821619D02*
X137374857Y-158821619D01*
X137755809Y-158726380D02*
X137660571Y-158678761D01*
X137612952Y-158583523D01*
X137612952Y-157726380D01*
X138660571Y-158726380D02*
X138089142Y-158726380D01*
X138374857Y-158726380D02*
X138374857Y-157726380D01*
X138279619Y-157869238D01*
X138184380Y-157964476D01*
X138089142Y-158012095D01*
X118515428Y-134866761D02*
X118658285Y-134914380D01*
X118896380Y-134914380D01*
X118991619Y-134866761D01*
X119039238Y-134819142D01*
X119086857Y-134723904D01*
X119086857Y-134628666D01*
X119039238Y-134533428D01*
X118991619Y-134485809D01*
X118896380Y-134438190D01*
X118705904Y-134390571D01*
X118610666Y-134342952D01*
X118563047Y-134295333D01*
X118515428Y-134200095D01*
X118515428Y-134104857D01*
X118563047Y-134009619D01*
X118610666Y-133962000D01*
X118705904Y-133914380D01*
X118944000Y-133914380D01*
X119086857Y-133962000D01*
X119420190Y-133914380D02*
X119658285Y-134914380D01*
X119848761Y-134200095D01*
X120039238Y-134914380D01*
X120277333Y-133914380D01*
X120610666Y-134009619D02*
X120658285Y-133962000D01*
X120753523Y-133914380D01*
X120991619Y-133914380D01*
X121086857Y-133962000D01*
X121134476Y-134009619D01*
X121182095Y-134104857D01*
X121182095Y-134200095D01*
X121134476Y-134342952D01*
X120563047Y-134914380D01*
X121182095Y-134914380D01*
X121515428Y-133914380D02*
X122134476Y-133914380D01*
X121801142Y-134295333D01*
X121944000Y-134295333D01*
X122039238Y-134342952D01*
X122086857Y-134390571D01*
X122134476Y-134485809D01*
X122134476Y-134723904D01*
X122086857Y-134819142D01*
X122039238Y-134866761D01*
X121944000Y-134914380D01*
X121658285Y-134914380D01*
X121563047Y-134866761D01*
X121515428Y-134819142D01*
X122324952Y-135009619D02*
X123086857Y-135009619D01*
X123467809Y-134914380D02*
X123372571Y-134866761D01*
X123324952Y-134771523D01*
X123324952Y-133914380D01*
X124372571Y-134914380D02*
X123801142Y-134914380D01*
X124086857Y-134914380D02*
X124086857Y-133914380D01*
X123991619Y-134057238D01*
X123896380Y-134152476D01*
X123801142Y-134200095D01*
X123278428Y-115816761D02*
X123421285Y-115864380D01*
X123659380Y-115864380D01*
X123754619Y-115816761D01*
X123802238Y-115769142D01*
X123849857Y-115673904D01*
X123849857Y-115578666D01*
X123802238Y-115483428D01*
X123754619Y-115435809D01*
X123659380Y-115388190D01*
X123468904Y-115340571D01*
X123373666Y-115292952D01*
X123326047Y-115245333D01*
X123278428Y-115150095D01*
X123278428Y-115054857D01*
X123326047Y-114959619D01*
X123373666Y-114912000D01*
X123468904Y-114864380D01*
X123707000Y-114864380D01*
X123849857Y-114912000D01*
X124183190Y-114864380D02*
X124421285Y-115864380D01*
X124611761Y-115150095D01*
X124802238Y-115864380D01*
X125040333Y-114864380D01*
X125373666Y-114959619D02*
X125421285Y-114912000D01*
X125516523Y-114864380D01*
X125754619Y-114864380D01*
X125849857Y-114912000D01*
X125897476Y-114959619D01*
X125945095Y-115054857D01*
X125945095Y-115150095D01*
X125897476Y-115292952D01*
X125326047Y-115864380D01*
X125945095Y-115864380D01*
X126326047Y-114959619D02*
X126373666Y-114912000D01*
X126468904Y-114864380D01*
X126707000Y-114864380D01*
X126802238Y-114912000D01*
X126849857Y-114959619D01*
X126897476Y-115054857D01*
X126897476Y-115150095D01*
X126849857Y-115292952D01*
X126278428Y-115864380D01*
X126897476Y-115864380D01*
X127087952Y-115959619D02*
X127849857Y-115959619D01*
X128230809Y-115864380D02*
X128135571Y-115816761D01*
X128087952Y-115721523D01*
X128087952Y-114864380D01*
X129135571Y-115864380D02*
X128564142Y-115864380D01*
X128849857Y-115864380D02*
X128849857Y-114864380D01*
X128754619Y-115007238D01*
X128659380Y-115102476D01*
X128564142Y-115150095D01*
X118515428Y-96766361D02*
X118658285Y-96813980D01*
X118896380Y-96813980D01*
X118991619Y-96766361D01*
X119039238Y-96718742D01*
X119086857Y-96623504D01*
X119086857Y-96528266D01*
X119039238Y-96433028D01*
X118991619Y-96385409D01*
X118896380Y-96337790D01*
X118705904Y-96290171D01*
X118610666Y-96242552D01*
X118563047Y-96194933D01*
X118515428Y-96099695D01*
X118515428Y-96004457D01*
X118563047Y-95909219D01*
X118610666Y-95861600D01*
X118705904Y-95813980D01*
X118944000Y-95813980D01*
X119086857Y-95861600D01*
X119420190Y-95813980D02*
X119658285Y-96813980D01*
X119848761Y-96099695D01*
X120039238Y-96813980D01*
X120277333Y-95813980D01*
X120610666Y-95909219D02*
X120658285Y-95861600D01*
X120753523Y-95813980D01*
X120991619Y-95813980D01*
X121086857Y-95861600D01*
X121134476Y-95909219D01*
X121182095Y-96004457D01*
X121182095Y-96099695D01*
X121134476Y-96242552D01*
X120563047Y-96813980D01*
X121182095Y-96813980D01*
X122134476Y-96813980D02*
X121563047Y-96813980D01*
X121848761Y-96813980D02*
X121848761Y-95813980D01*
X121753523Y-95956838D01*
X121658285Y-96052076D01*
X121563047Y-96099695D01*
X122324952Y-96909219D02*
X123086857Y-96909219D01*
X123467809Y-96813980D02*
X123372571Y-96766361D01*
X123324952Y-96671123D01*
X123324952Y-95813980D01*
X124372571Y-96813980D02*
X123801142Y-96813980D01*
X124086857Y-96813980D02*
X124086857Y-95813980D01*
X123991619Y-95956838D01*
X123896380Y-96052076D01*
X123801142Y-96099695D01*
X113753428Y-153916761D02*
X113896285Y-153964380D01*
X114134380Y-153964380D01*
X114229619Y-153916761D01*
X114277238Y-153869142D01*
X114324857Y-153773904D01*
X114324857Y-153678666D01*
X114277238Y-153583428D01*
X114229619Y-153535809D01*
X114134380Y-153488190D01*
X113943904Y-153440571D01*
X113848666Y-153392952D01*
X113801047Y-153345333D01*
X113753428Y-153250095D01*
X113753428Y-153154857D01*
X113801047Y-153059619D01*
X113848666Y-153012000D01*
X113943904Y-152964380D01*
X114182000Y-152964380D01*
X114324857Y-153012000D01*
X114658190Y-152964380D02*
X114896285Y-153964380D01*
X115086761Y-153250095D01*
X115277238Y-153964380D01*
X115515333Y-152964380D01*
X115848666Y-153059619D02*
X115896285Y-153012000D01*
X115991523Y-152964380D01*
X116229619Y-152964380D01*
X116324857Y-153012000D01*
X116372476Y-153059619D01*
X116420095Y-153154857D01*
X116420095Y-153250095D01*
X116372476Y-153392952D01*
X115801047Y-153964380D01*
X116420095Y-153964380D01*
X117039142Y-152964380D02*
X117134380Y-152964380D01*
X117229619Y-153012000D01*
X117277238Y-153059619D01*
X117324857Y-153154857D01*
X117372476Y-153345333D01*
X117372476Y-153583428D01*
X117324857Y-153773904D01*
X117277238Y-153869142D01*
X117229619Y-153916761D01*
X117134380Y-153964380D01*
X117039142Y-153964380D01*
X116943904Y-153916761D01*
X116896285Y-153869142D01*
X116848666Y-153773904D01*
X116801047Y-153583428D01*
X116801047Y-153345333D01*
X116848666Y-153154857D01*
X116896285Y-153059619D01*
X116943904Y-153012000D01*
X117039142Y-152964380D01*
X117562952Y-154059619D02*
X118324857Y-154059619D01*
X118705809Y-153964380D02*
X118610571Y-153916761D01*
X118562952Y-153821523D01*
X118562952Y-152964380D01*
X119610571Y-153964380D02*
X119039142Y-153964380D01*
X119324857Y-153964380D02*
X119324857Y-152964380D01*
X119229619Y-153107238D01*
X119134380Y-153202476D01*
X119039142Y-153250095D01*
X23741519Y-96766361D02*
X23884376Y-96813980D01*
X24122471Y-96813980D01*
X24217709Y-96766361D01*
X24265328Y-96718742D01*
X24312947Y-96623504D01*
X24312947Y-96528266D01*
X24265328Y-96433028D01*
X24217709Y-96385409D01*
X24122471Y-96337790D01*
X23931995Y-96290171D01*
X23836757Y-96242552D01*
X23789138Y-96194933D01*
X23741519Y-96099695D01*
X23741519Y-96004457D01*
X23789138Y-95909219D01*
X23836757Y-95861600D01*
X23931995Y-95813980D01*
X24170090Y-95813980D01*
X24312947Y-95861600D01*
X24646280Y-95813980D02*
X24884376Y-96813980D01*
X25074852Y-96099695D01*
X25265328Y-96813980D01*
X25503423Y-95813980D01*
X26408185Y-96813980D02*
X25836757Y-96813980D01*
X26122471Y-96813980D02*
X26122471Y-95813980D01*
X26027233Y-95956838D01*
X25931995Y-96052076D01*
X25836757Y-96099695D01*
X26598661Y-96909219D02*
X27360566Y-96909219D01*
X27741519Y-96813980D02*
X27646280Y-96766361D01*
X27598661Y-96671123D01*
X27598661Y-95813980D01*
X28646280Y-96813980D02*
X28074852Y-96813980D01*
X28360566Y-96813980D02*
X28360566Y-95813980D01*
X28265328Y-95956838D01*
X28170090Y-96052076D01*
X28074852Y-96099695D01*
X99465428Y-134866761D02*
X99608285Y-134914380D01*
X99846380Y-134914380D01*
X99941619Y-134866761D01*
X99989238Y-134819142D01*
X100036857Y-134723904D01*
X100036857Y-134628666D01*
X99989238Y-134533428D01*
X99941619Y-134485809D01*
X99846380Y-134438190D01*
X99655904Y-134390571D01*
X99560666Y-134342952D01*
X99513047Y-134295333D01*
X99465428Y-134200095D01*
X99465428Y-134104857D01*
X99513047Y-134009619D01*
X99560666Y-133962000D01*
X99655904Y-133914380D01*
X99894000Y-133914380D01*
X100036857Y-133962000D01*
X100370190Y-133914380D02*
X100608285Y-134914380D01*
X100798761Y-134200095D01*
X100989238Y-134914380D01*
X101227333Y-133914380D01*
X102132095Y-134914380D02*
X101560666Y-134914380D01*
X101846380Y-134914380D02*
X101846380Y-133914380D01*
X101751142Y-134057238D01*
X101655904Y-134152476D01*
X101560666Y-134200095D01*
X102608285Y-134914380D02*
X102798761Y-134914380D01*
X102894000Y-134866761D01*
X102941619Y-134819142D01*
X103036857Y-134676285D01*
X103084476Y-134485809D01*
X103084476Y-134104857D01*
X103036857Y-134009619D01*
X102989238Y-133962000D01*
X102894000Y-133914380D01*
X102703523Y-133914380D01*
X102608285Y-133962000D01*
X102560666Y-134009619D01*
X102513047Y-134104857D01*
X102513047Y-134342952D01*
X102560666Y-134438190D01*
X102608285Y-134485809D01*
X102703523Y-134533428D01*
X102894000Y-134533428D01*
X102989238Y-134485809D01*
X103036857Y-134438190D01*
X103084476Y-134342952D01*
X103274952Y-135009619D02*
X104036857Y-135009619D01*
X104417809Y-134914380D02*
X104322571Y-134866761D01*
X104274952Y-134771523D01*
X104274952Y-133914380D01*
X105322571Y-134914380D02*
X104751142Y-134914380D01*
X105036857Y-134914380D02*
X105036857Y-133914380D01*
X104941619Y-134057238D01*
X104846380Y-134152476D01*
X104751142Y-134200095D01*
X104228428Y-115816761D02*
X104371285Y-115864380D01*
X104609380Y-115864380D01*
X104704619Y-115816761D01*
X104752238Y-115769142D01*
X104799857Y-115673904D01*
X104799857Y-115578666D01*
X104752238Y-115483428D01*
X104704619Y-115435809D01*
X104609380Y-115388190D01*
X104418904Y-115340571D01*
X104323666Y-115292952D01*
X104276047Y-115245333D01*
X104228428Y-115150095D01*
X104228428Y-115054857D01*
X104276047Y-114959619D01*
X104323666Y-114912000D01*
X104418904Y-114864380D01*
X104657000Y-114864380D01*
X104799857Y-114912000D01*
X105133190Y-114864380D02*
X105371285Y-115864380D01*
X105561761Y-115150095D01*
X105752238Y-115864380D01*
X105990333Y-114864380D01*
X106895095Y-115864380D02*
X106323666Y-115864380D01*
X106609380Y-115864380D02*
X106609380Y-114864380D01*
X106514142Y-115007238D01*
X106418904Y-115102476D01*
X106323666Y-115150095D01*
X107466523Y-115292952D02*
X107371285Y-115245333D01*
X107323666Y-115197714D01*
X107276047Y-115102476D01*
X107276047Y-115054857D01*
X107323666Y-114959619D01*
X107371285Y-114912000D01*
X107466523Y-114864380D01*
X107657000Y-114864380D01*
X107752238Y-114912000D01*
X107799857Y-114959619D01*
X107847476Y-115054857D01*
X107847476Y-115102476D01*
X107799857Y-115197714D01*
X107752238Y-115245333D01*
X107657000Y-115292952D01*
X107466523Y-115292952D01*
X107371285Y-115340571D01*
X107323666Y-115388190D01*
X107276047Y-115483428D01*
X107276047Y-115673904D01*
X107323666Y-115769142D01*
X107371285Y-115816761D01*
X107466523Y-115864380D01*
X107657000Y-115864380D01*
X107752238Y-115816761D01*
X107799857Y-115769142D01*
X107847476Y-115673904D01*
X107847476Y-115483428D01*
X107799857Y-115388190D01*
X107752238Y-115340571D01*
X107657000Y-115292952D01*
X108037952Y-115959619D02*
X108799857Y-115959619D01*
X109180809Y-115864380D02*
X109085571Y-115816761D01*
X109037952Y-115721523D01*
X109037952Y-114864380D01*
X110085571Y-115864380D02*
X109514142Y-115864380D01*
X109799857Y-115864380D02*
X109799857Y-114864380D01*
X109704619Y-115007238D01*
X109609380Y-115102476D01*
X109514142Y-115150095D01*
X99465428Y-96766361D02*
X99608285Y-96813980D01*
X99846380Y-96813980D01*
X99941619Y-96766361D01*
X99989238Y-96718742D01*
X100036857Y-96623504D01*
X100036857Y-96528266D01*
X99989238Y-96433028D01*
X99941619Y-96385409D01*
X99846380Y-96337790D01*
X99655904Y-96290171D01*
X99560666Y-96242552D01*
X99513047Y-96194933D01*
X99465428Y-96099695D01*
X99465428Y-96004457D01*
X99513047Y-95909219D01*
X99560666Y-95861600D01*
X99655904Y-95813980D01*
X99894000Y-95813980D01*
X100036857Y-95861600D01*
X100370190Y-95813980D02*
X100608285Y-96813980D01*
X100798761Y-96099695D01*
X100989238Y-96813980D01*
X101227333Y-95813980D01*
X102132095Y-96813980D02*
X101560666Y-96813980D01*
X101846380Y-96813980D02*
X101846380Y-95813980D01*
X101751142Y-95956838D01*
X101655904Y-96052076D01*
X101560666Y-96099695D01*
X102465428Y-95813980D02*
X103132095Y-95813980D01*
X102703523Y-96813980D01*
X103274952Y-96909219D02*
X104036857Y-96909219D01*
X104417809Y-96813980D02*
X104322571Y-96766361D01*
X104274952Y-96671123D01*
X104274952Y-95813980D01*
X105322571Y-96813980D02*
X104751142Y-96813980D01*
X105036857Y-96813980D02*
X105036857Y-95813980D01*
X104941619Y-95956838D01*
X104846380Y-96052076D01*
X104751142Y-96099695D01*
X94702828Y-153916761D02*
X94845685Y-153964380D01*
X95083780Y-153964380D01*
X95179019Y-153916761D01*
X95226638Y-153869142D01*
X95274257Y-153773904D01*
X95274257Y-153678666D01*
X95226638Y-153583428D01*
X95179019Y-153535809D01*
X95083780Y-153488190D01*
X94893304Y-153440571D01*
X94798066Y-153392952D01*
X94750447Y-153345333D01*
X94702828Y-153250095D01*
X94702828Y-153154857D01*
X94750447Y-153059619D01*
X94798066Y-153012000D01*
X94893304Y-152964380D01*
X95131400Y-152964380D01*
X95274257Y-153012000D01*
X95607590Y-152964380D02*
X95845685Y-153964380D01*
X96036161Y-153250095D01*
X96226638Y-153964380D01*
X96464733Y-152964380D01*
X97369495Y-153964380D02*
X96798066Y-153964380D01*
X97083780Y-153964380D02*
X97083780Y-152964380D01*
X96988542Y-153107238D01*
X96893304Y-153202476D01*
X96798066Y-153250095D01*
X98226638Y-152964380D02*
X98036161Y-152964380D01*
X97940923Y-153012000D01*
X97893304Y-153059619D01*
X97798066Y-153202476D01*
X97750447Y-153392952D01*
X97750447Y-153773904D01*
X97798066Y-153869142D01*
X97845685Y-153916761D01*
X97940923Y-153964380D01*
X98131400Y-153964380D01*
X98226638Y-153916761D01*
X98274257Y-153869142D01*
X98321876Y-153773904D01*
X98321876Y-153535809D01*
X98274257Y-153440571D01*
X98226638Y-153392952D01*
X98131400Y-153345333D01*
X97940923Y-153345333D01*
X97845685Y-153392952D01*
X97798066Y-153440571D01*
X97750447Y-153535809D01*
X98512352Y-154059619D02*
X99274257Y-154059619D01*
X99655209Y-153964380D02*
X99559971Y-153916761D01*
X99512352Y-153821523D01*
X99512352Y-152964380D01*
X100559971Y-153964380D02*
X99988542Y-153964380D01*
X100274257Y-153964380D02*
X100274257Y-152964380D01*
X100179019Y-153107238D01*
X100083780Y-153202476D01*
X99988542Y-153250095D01*
X80415328Y-134866761D02*
X80558185Y-134914380D01*
X80796280Y-134914380D01*
X80891519Y-134866761D01*
X80939138Y-134819142D01*
X80986757Y-134723904D01*
X80986757Y-134628666D01*
X80939138Y-134533428D01*
X80891519Y-134485809D01*
X80796280Y-134438190D01*
X80605804Y-134390571D01*
X80510566Y-134342952D01*
X80462947Y-134295333D01*
X80415328Y-134200095D01*
X80415328Y-134104857D01*
X80462947Y-134009619D01*
X80510566Y-133962000D01*
X80605804Y-133914380D01*
X80843900Y-133914380D01*
X80986757Y-133962000D01*
X81320090Y-133914380D02*
X81558185Y-134914380D01*
X81748661Y-134200095D01*
X81939138Y-134914380D01*
X82177233Y-133914380D01*
X83081995Y-134914380D02*
X82510566Y-134914380D01*
X82796280Y-134914380D02*
X82796280Y-133914380D01*
X82701042Y-134057238D01*
X82605804Y-134152476D01*
X82510566Y-134200095D01*
X83986757Y-133914380D02*
X83510566Y-133914380D01*
X83462947Y-134390571D01*
X83510566Y-134342952D01*
X83605804Y-134295333D01*
X83843900Y-134295333D01*
X83939138Y-134342952D01*
X83986757Y-134390571D01*
X84034376Y-134485809D01*
X84034376Y-134723904D01*
X83986757Y-134819142D01*
X83939138Y-134866761D01*
X83843900Y-134914380D01*
X83605804Y-134914380D01*
X83510566Y-134866761D01*
X83462947Y-134819142D01*
X84224852Y-135009619D02*
X84986757Y-135009619D01*
X85367709Y-134914380D02*
X85272471Y-134866761D01*
X85224852Y-134771523D01*
X85224852Y-133914380D01*
X86272471Y-134914380D02*
X85701042Y-134914380D01*
X85986757Y-134914380D02*
X85986757Y-133914380D01*
X85891519Y-134057238D01*
X85796280Y-134152476D01*
X85701042Y-134200095D01*
X85177928Y-115816761D02*
X85320785Y-115864380D01*
X85558880Y-115864380D01*
X85654119Y-115816761D01*
X85701738Y-115769142D01*
X85749357Y-115673904D01*
X85749357Y-115578666D01*
X85701738Y-115483428D01*
X85654119Y-115435809D01*
X85558880Y-115388190D01*
X85368404Y-115340571D01*
X85273166Y-115292952D01*
X85225547Y-115245333D01*
X85177928Y-115150095D01*
X85177928Y-115054857D01*
X85225547Y-114959619D01*
X85273166Y-114912000D01*
X85368404Y-114864380D01*
X85606500Y-114864380D01*
X85749357Y-114912000D01*
X86082690Y-114864380D02*
X86320785Y-115864380D01*
X86511261Y-115150095D01*
X86701738Y-115864380D01*
X86939833Y-114864380D01*
X87844595Y-115864380D02*
X87273166Y-115864380D01*
X87558880Y-115864380D02*
X87558880Y-114864380D01*
X87463642Y-115007238D01*
X87368404Y-115102476D01*
X87273166Y-115150095D01*
X88701738Y-115197714D02*
X88701738Y-115864380D01*
X88463642Y-114816761D02*
X88225547Y-115531047D01*
X88844595Y-115531047D01*
X88987452Y-115959619D02*
X89749357Y-115959619D01*
X90130309Y-115864380D02*
X90035071Y-115816761D01*
X89987452Y-115721523D01*
X89987452Y-114864380D01*
X91035071Y-115864380D02*
X90463642Y-115864380D01*
X90749357Y-115864380D02*
X90749357Y-114864380D01*
X90654119Y-115007238D01*
X90558880Y-115102476D01*
X90463642Y-115150095D01*
X75652828Y-153916761D02*
X75795685Y-153964380D01*
X76033780Y-153964380D01*
X76129019Y-153916761D01*
X76176638Y-153869142D01*
X76224257Y-153773904D01*
X76224257Y-153678666D01*
X76176638Y-153583428D01*
X76129019Y-153535809D01*
X76033780Y-153488190D01*
X75843304Y-153440571D01*
X75748066Y-153392952D01*
X75700447Y-153345333D01*
X75652828Y-153250095D01*
X75652828Y-153154857D01*
X75700447Y-153059619D01*
X75748066Y-153012000D01*
X75843304Y-152964380D01*
X76081400Y-152964380D01*
X76224257Y-153012000D01*
X76557590Y-152964380D02*
X76795685Y-153964380D01*
X76986161Y-153250095D01*
X77176638Y-153964380D01*
X77414733Y-152964380D01*
X78319495Y-153964380D02*
X77748066Y-153964380D01*
X78033780Y-153964380D02*
X78033780Y-152964380D01*
X77938542Y-153107238D01*
X77843304Y-153202476D01*
X77748066Y-153250095D01*
X78700447Y-153059619D02*
X78748066Y-153012000D01*
X78843304Y-152964380D01*
X79081400Y-152964380D01*
X79176638Y-153012000D01*
X79224257Y-153059619D01*
X79271876Y-153154857D01*
X79271876Y-153250095D01*
X79224257Y-153392952D01*
X78652828Y-153964380D01*
X79271876Y-153964380D01*
X79462352Y-154059619D02*
X80224257Y-154059619D01*
X80605209Y-153964380D02*
X80509971Y-153916761D01*
X80462352Y-153821523D01*
X80462352Y-152964380D01*
X81509971Y-153964380D02*
X80938542Y-153964380D01*
X81224257Y-153964380D02*
X81224257Y-152964380D01*
X81129019Y-153107238D01*
X81033780Y-153202476D01*
X80938542Y-153250095D01*
X61365328Y-134866761D02*
X61508185Y-134914380D01*
X61746280Y-134914380D01*
X61841519Y-134866761D01*
X61889138Y-134819142D01*
X61936757Y-134723904D01*
X61936757Y-134628666D01*
X61889138Y-134533428D01*
X61841519Y-134485809D01*
X61746280Y-134438190D01*
X61555804Y-134390571D01*
X61460566Y-134342952D01*
X61412947Y-134295333D01*
X61365328Y-134200095D01*
X61365328Y-134104857D01*
X61412947Y-134009619D01*
X61460566Y-133962000D01*
X61555804Y-133914380D01*
X61793900Y-133914380D01*
X61936757Y-133962000D01*
X62270090Y-133914380D02*
X62508185Y-134914380D01*
X62698661Y-134200095D01*
X62889138Y-134914380D01*
X63127233Y-133914380D01*
X64031995Y-134914380D02*
X63460566Y-134914380D01*
X63746280Y-134914380D02*
X63746280Y-133914380D01*
X63651042Y-134057238D01*
X63555804Y-134152476D01*
X63460566Y-134200095D01*
X64984376Y-134914380D02*
X64412947Y-134914380D01*
X64698661Y-134914380D02*
X64698661Y-133914380D01*
X64603423Y-134057238D01*
X64508185Y-134152476D01*
X64412947Y-134200095D01*
X65174852Y-135009619D02*
X65936757Y-135009619D01*
X66317709Y-134914380D02*
X66222471Y-134866761D01*
X66174852Y-134771523D01*
X66174852Y-133914380D01*
X67222471Y-134914380D02*
X66651042Y-134914380D01*
X66936757Y-134914380D02*
X66936757Y-133914380D01*
X66841519Y-134057238D01*
X66746280Y-134152476D01*
X66651042Y-134200095D01*
X66127928Y-115816761D02*
X66270785Y-115864380D01*
X66508880Y-115864380D01*
X66604119Y-115816761D01*
X66651738Y-115769142D01*
X66699357Y-115673904D01*
X66699357Y-115578666D01*
X66651738Y-115483428D01*
X66604119Y-115435809D01*
X66508880Y-115388190D01*
X66318404Y-115340571D01*
X66223166Y-115292952D01*
X66175547Y-115245333D01*
X66127928Y-115150095D01*
X66127928Y-115054857D01*
X66175547Y-114959619D01*
X66223166Y-114912000D01*
X66318404Y-114864380D01*
X66556500Y-114864380D01*
X66699357Y-114912000D01*
X67032690Y-114864380D02*
X67270785Y-115864380D01*
X67461261Y-115150095D01*
X67651738Y-115864380D01*
X67889833Y-114864380D01*
X68794595Y-115864380D02*
X68223166Y-115864380D01*
X68508880Y-115864380D02*
X68508880Y-114864380D01*
X68413642Y-115007238D01*
X68318404Y-115102476D01*
X68223166Y-115150095D01*
X69413642Y-114864380D02*
X69508880Y-114864380D01*
X69604119Y-114912000D01*
X69651738Y-114959619D01*
X69699357Y-115054857D01*
X69746976Y-115245333D01*
X69746976Y-115483428D01*
X69699357Y-115673904D01*
X69651738Y-115769142D01*
X69604119Y-115816761D01*
X69508880Y-115864380D01*
X69413642Y-115864380D01*
X69318404Y-115816761D01*
X69270785Y-115769142D01*
X69223166Y-115673904D01*
X69175547Y-115483428D01*
X69175547Y-115245333D01*
X69223166Y-115054857D01*
X69270785Y-114959619D01*
X69318404Y-114912000D01*
X69413642Y-114864380D01*
X69937452Y-115959619D02*
X70699357Y-115959619D01*
X71080309Y-115864380D02*
X70985071Y-115816761D01*
X70937452Y-115721523D01*
X70937452Y-114864380D01*
X71985071Y-115864380D02*
X71413642Y-115864380D01*
X71699357Y-115864380D02*
X71699357Y-114864380D01*
X71604119Y-115007238D01*
X71508880Y-115102476D01*
X71413642Y-115150095D01*
X123563769Y-70699550D02*
X123230435Y-70223360D01*
X122992340Y-70699550D02*
X122992340Y-69699550D01*
X123373292Y-69699550D01*
X123468530Y-69747170D01*
X123516150Y-69794789D01*
X123563769Y-69890027D01*
X123563769Y-70032884D01*
X123516150Y-70128122D01*
X123468530Y-70175741D01*
X123373292Y-70223360D01*
X122992340Y-70223360D01*
X123992340Y-70175741D02*
X124325673Y-70175741D01*
X124468530Y-70699550D02*
X123992340Y-70699550D01*
X123992340Y-69699550D01*
X124468530Y-69699550D01*
X124849483Y-70651931D02*
X124992340Y-70699550D01*
X125230435Y-70699550D01*
X125325673Y-70651931D01*
X125373292Y-70604312D01*
X125420911Y-70509074D01*
X125420911Y-70413836D01*
X125373292Y-70318598D01*
X125325673Y-70270979D01*
X125230435Y-70223360D01*
X125039959Y-70175741D01*
X124944721Y-70128122D01*
X124897102Y-70080503D01*
X124849483Y-69985265D01*
X124849483Y-69890027D01*
X124897102Y-69794789D01*
X124944721Y-69747170D01*
X125039959Y-69699550D01*
X125278054Y-69699550D01*
X125420911Y-69747170D01*
X125849483Y-70175741D02*
X126182816Y-70175741D01*
X126325673Y-70699550D02*
X125849483Y-70699550D01*
X125849483Y-69699550D01*
X126325673Y-69699550D01*
X126611388Y-69699550D02*
X127182816Y-69699550D01*
X126897102Y-70699550D02*
X126897102Y-69699550D01*
X122504245Y-58290100D02*
X123075673Y-58290100D01*
X122789959Y-59290100D02*
X122789959Y-58290100D01*
X123980435Y-59290100D02*
X123647102Y-58813910D01*
X123409007Y-59290100D02*
X123409007Y-58290100D01*
X123789959Y-58290100D01*
X123885197Y-58337720D01*
X123932816Y-58385339D01*
X123980435Y-58480577D01*
X123980435Y-58623434D01*
X123932816Y-58718672D01*
X123885197Y-58766291D01*
X123789959Y-58813910D01*
X123409007Y-58813910D01*
X124980435Y-59290100D02*
X124647102Y-58813910D01*
X124409007Y-59290100D02*
X124409007Y-58290100D01*
X124789959Y-58290100D01*
X124885197Y-58337720D01*
X124932816Y-58385339D01*
X124980435Y-58480577D01*
X124980435Y-58623434D01*
X124932816Y-58718672D01*
X124885197Y-58766291D01*
X124789959Y-58813910D01*
X124409007Y-58813910D01*
X125361388Y-59242481D02*
X125504245Y-59290100D01*
X125742340Y-59290100D01*
X125837578Y-59242481D01*
X125885197Y-59194862D01*
X125932816Y-59099624D01*
X125932816Y-59004386D01*
X125885197Y-58909148D01*
X125837578Y-58861529D01*
X125742340Y-58813910D01*
X125551864Y-58766291D01*
X125456626Y-58718672D01*
X125409007Y-58671053D01*
X125361388Y-58575815D01*
X125361388Y-58480577D01*
X125409007Y-58385339D01*
X125456626Y-58337720D01*
X125551864Y-58290100D01*
X125789959Y-58290100D01*
X125932816Y-58337720D01*
M02*
