0
SECTION
2
HEADER
9
$INSUNITS
70
4
9
$ACADVER
1
AC1014
9
$HANDSEED
5
FFFF
0
ENDSEC
0
SECTION
2
TABLES
0
TABLE
2
VPORT
5
8
100
AcDbSymbolTable
0
ENDTAB
0
TABLE
2
LTYPE
5
5
100
AcDbSymbolTable
0
LTYPE
5
14
100
AcDbSymbolTableRecord
100
AcDbLinetypeTableRecord
2
BYBLOCK
70
0
0
LTYPE
5
15
100
AcDbSymbolTableRecord
100
AcDbLinetypeTableRecord
2
BYLAYER
70
0
0
ENDTAB
0
TABLE
2
LAYER
5
2
100
AcDbSymbolTable
70
2
0
LAYER
5
50
100
AcDbSymbolTableRecord
100
AcDbLayerTableRecord
2
0
70
0
6
CONTINUOUS
0
ENDTAB
0
TABLE
2
STYLE
5
3
100
AcDbSymbolTable
70
1
0
STYLE
5
11
100
AcDbSymbolTableRecord
100
AcDbTextStyleTableRecord
2
STANDARD
70
0
0
ENDTAB
0
TABLE
2
VIEW
5
6
100
AcDbSymbolTable
70
0
0
ENDTAB
0
TABLE
2
UCS
5
7
100
AcDbSymbolTable
70
0
0
ENDTAB
0
TABLE
2
APPID
5
9
100
AcDbSymbolTable
70
2
0
APPID
5
12
100
AcDbSymbolTableRecord
100
AcDbRegAppTableRecord
2
ACAD
70
0
0
ENDTAB
0
TABLE
2
DIMSTYLE
5
A
100
AcDbSymbolTable
70
1
0
ENDTAB
0
TABLE
2
BLOCK_RECORD
5
1
100
AcDbSymbolTable
70
1
0
BLOCK_RECORD
5
1F
100
AcDbSymbolTableRecord
100
AcDbBlockTableRecord
2
*MODEL_SPACE
0
BLOCK_RECORD
5
1B
100
AcDbSymbolTableRecord
100
AcDbBlockTableRecord
2
*PAPER_SPACE
0
ENDTAB
0
ENDSEC
0
SECTION
2
BLOCKS
0
BLOCK
5
20
100
AcDbEntity
100
AcDbBlockBegin
2
*MODEL_SPACE
0
ENDBLK
5
21
100
AcDbEntity
100
AcDbBlockEnd
0
BLOCK
5
1C
100
AcDbEntity
100
AcDbBlockBegin
2
*PAPER_SPACE
0
ENDBLK
5
1D
100
AcDbEntity
100
AcDbBlockEnd
0
ENDSEC
0
SECTION
2
ENTITIES
0
LWPOLYLINE
5
100
100
AcDbEntity
8
0
100
AcDbPolyline
90
6
70
1
43
0.0
10
103.38839692065238
20
-70.791288176579755
10
104.57372460650814
20
-70.53634057972144
10
104.94559735392292
20
-69.382342893532169
10
104.13214241548192
20
-68.483292804201227
10
102.9468147296262
20
-68.738240401059556
10
102.5749419822114
20
-69.892238087248813
0
LWPOLYLINE
5
101
100
AcDbEntity
8
0
100
AcDbPolyline
90
6
70
1
43
0.0
10
240.9310374933001
20
-69.951091905649307
10
240.61723607804126
20
-68.779969080416393
10
239.44611325280835
20
-68.46616766515757
10
238.58879184283424
20
-69.323489075131675
10
238.90259325809302
20
-70.494611900364589
10
240.07371608332596
20
-70.808413315623412
0
LWPOLYLINE
5
102
100
AcDbEntity
8
0
100
AcDbPolyline
90
6
70
1
43
0.0
10
92.589175842834237
20
29.676011924868384
10
92.902977258093074
20
28.504889099635449
10
94.074100083326016
20
28.191087684376626
10
94.931421493300121
20
29.048409094350745
10
94.617620078041284
20
30.219531919583677
10
93.446497252808342
20
30.533333334842496
0
LWPOLYLINE
5
103
100
AcDbEntity
8
0
100
AcDbPolyline
90
6
70
1
43
0.0
10
231.26646114219088
20
13.289456629336724
10
230.06154962332747
20
13.154592876941035
10
229.57588929952013
20
12.043677016094973
10
230.2951404945762
20
11.067624907644603
10
231.50005201343961
20
11.202488660040297
10
231.98571233724695
20
12.313404520886358
0
LWPOLYLINE
5
104
100
AcDbEntity
8
0
100
AcDbPolyline
90
16
70
1
43
0.0
10
92.260298668067179
20
-10.135949490390423
10
91.260298668067179
20
-9.135949490390427
10
91.260298668067179
20
30.862210509609564
10
92.260298668067179
20
31.862210509609561
10
133.26175766806716
20
31.862210509609561
10
134.26175766806716
20
30.862210509609561
10
134.26175766806716
20
26.86235405088345
10
222.06488643763345
20
26.863554367819621
10
223.65811482479799
20
26.058533827572575
10
241.66668628080919
20
1.6201953713553907
10
242.25991466806718
20
-0.18483883944021784
10
242.25991466806718
20
-71.137290490390498
10
241.25991466806715
20
-72.137290490390484
10
102.26026966806715
20
-72.137290490390484
10
101.26026966806717
20
-71.137290490390498
10
101.26026966806717
20
-10.135949490390423
0
ENDSEC
0
SECTION
2
OBJECTS
0
DICTIONARY
5
C
100
AcDbDictionary
3
ACAD_GROUP
350
D
3
ACAD_MLINESTYLE
350
17
0
DICTIONARY
5
D
100
AcDbDictionary
0
DICTIONARY
5
1A
330
C
100
AcDbDictionary
0
DICTIONARY
5
17
100
AcDbDictionary
0
ENDSEC
0
EOF
