0
SECTION
2
HEADER
9
$INSUNITS
70
4
9
$ACADVER
1
AC1014
9
$HANDSEED
5
FFFF
0
ENDSEC
0
SECTION
2
TABLES
0
TABLE
2
VPORT
5
8
100
AcDbSymbolTable
0
ENDTAB
0
TABLE
2
LTYPE
5
5
100
AcDbSymbolTable
0
LTYPE
5
14
100
AcDbSymbolTableRecord
100
AcDbLinetypeTableRecord
2
BYBLOCK
70
0
0
LTYPE
5
15
100
AcDbSymbolTableRecord
100
AcDbLinetypeTableRecord
2
BYLAYER
70
0
0
ENDTAB
0
TABLE
2
LAYER
5
2
100
AcDbSymbolTable
70
2
0
LAYER
5
50
100
AcDbSymbolTableRecord
100
AcDbLayerTableRecord
2
0
70
0
6
CONTINUOUS
0
ENDTAB
0
TABLE
2
STYLE
5
3
100
AcDbSymbolTable
70
1
0
STYLE
5
11
100
AcDbSymbolTableRecord
100
AcDbTextStyleTableRecord
2
STANDARD
70
0
0
ENDTAB
0
TABLE
2
VIEW
5
6
100
AcDbSymbolTable
70
0
0
ENDTAB
0
TABLE
2
UCS
5
7
100
AcDbSymbolTable
70
0
0
ENDTAB
0
TABLE
2
APPID
5
9
100
AcDbSymbolTable
70
2
0
APPID
5
12
100
AcDbSymbolTableRecord
100
AcDbRegAppTableRecord
2
ACAD
70
0
0
ENDTAB
0
TABLE
2
DIMSTYLE
5
A
100
AcDbSymbolTable
70
1
0
ENDTAB
0
TABLE
2
BLOCK_RECORD
5
1
100
AcDbSymbolTable
70
1
0
BLOCK_RECORD
5
1F
100
AcDbSymbolTableRecord
100
AcDbBlockTableRecord
2
*MODEL_SPACE
0
BLOCK_RECORD
5
1B
100
AcDbSymbolTableRecord
100
AcDbBlockTableRecord
2
*PAPER_SPACE
0
ENDTAB
0
ENDSEC
0
SECTION
2
BLOCKS
0
BLOCK
5
20
100
AcDbEntity
100
AcDbBlockBegin
2
*MODEL_SPACE
0
ENDBLK
5
21
100
AcDbEntity
100
AcDbBlockEnd
0
BLOCK
5
1C
100
AcDbEntity
100
AcDbBlockBegin
2
*PAPER_SPACE
0
ENDBLK
5
1D
100
AcDbEntity
100
AcDbBlockEnd
0
ENDSEC
0
SECTION
2
ENTITIES
0
LWPOLYLINE
5
100
100
AcDbEntity
8
0
100
AcDbPolyline
90
4
70
1
43
0.0
10
-195.29840972132735
20
-6.445178140972132
10
-209.29840972132737
20
-6.445178140972132
10
-209.29840972132737
20
-20.445178140972118
10
-195.29840972132735
20
-20.445178140972118
0
LWPOLYLINE
5
101
100
AcDbEntity
8
0
100
AcDbPolyline
90
4
70
1
43
0.0
10
-214.22677766806714
20
-6.4715494903904158
10
-228.22677766806717
20
-6.4715494903904158
10
-228.22677766806717
20
-20.471549490390437
10
-214.22677766806714
20
-20.471549490390437
0
LWPOLYLINE
5
102
100
AcDbEntity
8
0
100
AcDbPolyline
90
4
70
1
43
0.0
10
-114.38074266806716
20
-25.449141490390446
10
-128.38074266806717
20
-25.449141490390446
10
-128.38074266806717
20
-39.449141490390431
10
-114.38074266806716
20
-39.449141490390431
0
LWPOLYLINE
5
103
100
AcDbEntity
8
0
100
AcDbPolyline
90
4
70
1
43
0.0
10
-133.43072466806717
20
-25.449141490390446
10
-147.43072466806711
20
-25.449141490390446
10
-147.43072466806711
20
-39.449141490390431
10
-133.43072466806717
20
-39.449141490390431
0
LWPOLYLINE
5
104
100
AcDbEntity
8
0
100
AcDbPolyline
90
4
70
1
43
0.0
10
-214.46553766806716
20
-44.429273490390457
10
-228.46553766806716
20
-44.429273490390457
10
-228.46553766806716
20
-58.429273490390443
10
-214.46553766806716
20
-58.429273490390443
0
LWPOLYLINE
5
105
100
AcDbEntity
8
0
100
AcDbPolyline
90
4
70
1
43
0.0
10
-195.34443566806718
20
-44.500393490390451
10
-209.34443566806721
20
-44.500393490390451
10
-209.34443566806721
20
-58.500393490390437
10
-195.34443566806718
20
-58.500393490390437
0
LWPOLYLINE
5
106
100
AcDbEntity
8
0
100
AcDbPolyline
90
4
70
1
43
0.0
10
-176.29445366806718
20
-44.500393490390451
10
-190.29445366806721
20
-44.500393490390451
10
-190.29445366806721
20
-58.500393490390437
10
-176.29445366806718
20
-58.500393490390437
0
LWPOLYLINE
5
107
100
AcDbEntity
8
0
100
AcDbPolyline
90
4
70
1
43
0.0
10
-157.24447216806715
20
-44.500393490390451
10
-171.24447216806715
20
-44.500393490390451
10
-171.24447216806715
20
-58.500393490390437
10
-157.24447216806715
20
-58.500393490390437
0
LWPOLYLINE
5
108
100
AcDbEntity
8
0
100
AcDbPolyline
90
4
70
1
43
0.0
10
-138.19449016806718
20
-44.500393490390451
10
-152.19449016806718
20
-44.500393490390451
10
-152.19449016806718
20
-58.500393490390437
10
-138.19449016806718
20
-58.500393490390437
0
LWPOLYLINE
5
109
100
AcDbEntity
8
0
100
AcDbPolyline
90
4
70
1
43
0.0
10
-119.14450866806717
20
-44.500393490390451
10
-133.14450866806715
20
-44.500393490390451
10
-133.14450866806715
20
-58.500393490390437
10
-119.14450866806717
20
-58.500393490390437
0
LWPOLYLINE
5
110
100
AcDbEntity
8
0
100
AcDbPolyline
90
4
70
1
43
0.0
10
-209.63192216806718
20
-25.449141490390446
10
-223.63192216806715
20
-25.449141490390446
10
-223.63192216806715
20
-39.449141490390431
10
-209.63192216806718
20
-39.449141490390431
0
LWPOLYLINE
5
111
100
AcDbEntity
8
0
100
AcDbPolyline
90
4
70
1
43
0.0
10
-171.5319586680672
20
-25.449141490390446
10
-185.53195866806718
20
-25.449141490390446
10
-185.53195866806718
20
-39.449141490390431
10
-171.5319586680672
20
-39.449141490390431
0
LWPOLYLINE
5
112
100
AcDbEntity
8
0
100
AcDbPolyline
90
4
70
1
43
0.0
10
-190.58194016806715
20
-25.449141490390446
10
-204.58194016806718
20
-25.449141490390446
10
-204.58194016806718
20
-39.449141490390431
10
-190.58194016806715
20
-39.449141490390431
0
LWPOLYLINE
5
113
100
AcDbEntity
8
0
100
AcDbPolyline
90
4
70
1
43
0.0
10
-152.48197666806718
20
-25.449141490390446
10
-166.48197666806715
20
-25.449141490390446
10
-166.48197666806715
20
-39.449141490390431
10
-152.48197666806718
20
-39.449141490390431
0
CIRCLE
5
114
100
AcDbEntity
8
0
100
AcDbCircle
10
-234.75991466806718
20
-1.649730018690363
30
0
40
1.0500000000000131
210
0
220
-0
230
1
0
CIRCLE
5
115
100
AcDbEntity
8
0
100
AcDbCircle
10
-234.75991466806718
20
-33.143510254540445
30
0
40
1.0500000000000043
210
0
220
-0
230
1
0
CIRCLE
5
116
100
AcDbEntity
8
0
100
AcDbCircle
10
-219.27528803101964
20
19.363516231778277
30
0
40
1.0500000000000043
210
0
220
-0
230
1
0
CIRCLE
5
117
100
AcDbEntity
8
0
100
AcDbCircle
10
-173.01852284954336
20
19.362883876423318
30
0
40
1.0500000000000043
210
0
220
-0
230
1
0
CIRCLE
5
118
100
AcDbEntity
8
0
100
AcDbCircle
10
-126.76175766806715
20
21.862231015453233
30
0
40
1.0500000000000043
210
0
220
-0
230
1
0
CIRCLE
5
119
100
AcDbEntity
8
0
100
AcDbCircle
10
-98.760298668067179
20
24.362210509609561
30
0
40
1.0500000000000043
210
0
220
-0
230
1
0
CIRCLE
5
120
100
AcDbEntity
8
0
100
AcDbCircle
10
-103.76028416806716
20
-2.635949490390459
30
0
40
1.0500000000000043
210
0
220
-0
230
1
0
CIRCLE
5
121
100
AcDbEntity
8
0
100
AcDbCircle
10
-108.76026966806717
20
-33.636619990390457
30
0
40
1.0500000000000043
210
0
220
-0
230
1
0
CIRCLE
5
122
100
AcDbEntity
8
0
100
AcDbCircle
10
-108.76026966806717
20
-64.637290490390484
30
0
40
1.0500000000000043
210
0
220
-0
230
1
0
LWPOLYLINE
5
123
100
AcDbEntity
8
0
100
AcDbPolyline
90
4
70
1
43
0.0
10
-119.14450866806717
20
-6.3991599903904373
10
-133.14450866806715
20
-6.3991599903904373
10
-133.14450866806715
20
-20.399159990390459
10
-119.14450866806717
20
-20.399159990390459
0
LWPOLYLINE
5
124
100
AcDbEntity
8
0
100
AcDbPolyline
90
4
70
1
43
0.0
10
-200.10693116806721
20
12.650822009609541
10
-214.10693116806721
20
12.650822009609541
10
-214.10693116806721
20
-1.3491779903904444
10
-200.10693116806721
20
-1.3491779903904444
0
LWPOLYLINE
5
125
100
AcDbEntity
8
0
100
AcDbPolyline
90
4
70
1
43
0.0
10
-181.05694966806715
20
12.650822009609541
10
-195.05694966806718
20
12.650822009609541
10
-195.05694966806718
20
-1.3491779903904444
10
-181.05694966806715
20
-1.3491779903904444
0
LWPOLYLINE
5
126
100
AcDbEntity
8
0
100
AcDbPolyline
90
4
70
1
43
0.0
10
-162.00696766806715
20
12.650822009609541
10
-176.00696766806718
20
12.650822009609541
10
-176.00696766806718
20
-1.3491779903904444
10
-162.00696766806715
20
-1.3491779903904444
0
LWPOLYLINE
5
127
100
AcDbEntity
8
0
100
AcDbPolyline
90
4
70
1
43
0.0
10
-142.95698566806718
20
12.650822009609541
10
-156.95698566806718
20
12.650822009609541
10
-156.95698566806718
20
-1.3491779903904444
10
-142.95698566806718
20
-1.3491779903904444
0
LWPOLYLINE
5
128
100
AcDbEntity
8
0
100
AcDbPolyline
90
4
70
1
43
0.0
10
-123.90573366806717
20
12.650822009609541
10
-137.90573366806714
20
12.650822009609541
10
-137.90573366806714
20
-1.3491779903904444
10
-123.90573366806717
20
-1.3491779903904444
0
LWPOLYLINE
5
129
100
AcDbEntity
8
0
100
AcDbPolyline
90
4
70
1
43
0.0
10
-104.85575166806714
20
17.412047509609536
10
-118.85575166806717
20
17.412047509609536
10
-118.85575166806717
20
3.4120475096095504
10
-104.85575166806714
20
3.4120475096095504
0
CIRCLE
5
130
100
AcDbEntity
8
0
100
AcDbCircle
10
-234.75991466806718
20
-64.637290490390484
30
0
40
1.0500000000000043
210
0
220
-0
230
1
0
CIRCLE
5
131
100
AcDbEntity
8
0
100
AcDbCircle
10
-171.76009216806719
20
-64.637290490390484
30
0
40
1.0500000000000043
210
0
220
-0
230
1
0
LWPOLYLINE
5
132
100
AcDbEntity
8
0
100
AcDbPolyline
90
4
70
1
43
0.0
10
-138.19449016806718
20
-6.3991599903904373
10
-152.19449016806718
20
-6.3991599903904373
10
-152.19449016806718
20
-20.399159990390459
10
-138.19449016806718
20
-20.399159990390459
0
LWPOLYLINE
5
133
100
AcDbEntity
8
0
100
AcDbPolyline
90
4
70
1
43
0.0
10
-157.24447216806715
20
-6.3991599903904373
10
-171.24447216806715
20
-6.3991599903904373
10
-171.24447216806715
20
-20.399159990390459
10
-157.24447216806715
20
-20.399159990390459
0
LWPOLYLINE
5
134
100
AcDbEntity
8
0
100
AcDbPolyline
90
4
70
1
43
0.0
10
-176.29445366806718
20
-6.3991599903904373
10
-190.29445366806721
20
-6.3991599903904373
10
-190.29445366806721
20
-20.399159990390459
10
-176.29445366806718
20
-20.399159990390459
0
LWPOLYLINE
5
135
100
AcDbEntity
8
0
100
AcDbPolyline
90
9
70
1
43
0.0
10
-237.25991466806718
20
-0.82809962560698835
10
-220.53848749985974
20
21.863533500641594
10
-129.26175766806716
20
21.862285697673407
10
-129.26175766806716
20
26.862210509609561
10
-96.260298668067179
20
26.862210509609561
10
-96.260298668067179
20
-5.135949490390459
10
-106.26026966806717
20
-5.135949490390459
10
-106.26026966806717
20
-67.137290490390484
10
-237.25991466806718
20
-67.137290490390484
0
ENDSEC
0
SECTION
2
OBJECTS
0
DICTIONARY
5
C
100
AcDbDictionary
3
ACAD_GROUP
350
D
3
ACAD_MLINESTYLE
350
17
0
DICTIONARY
5
D
100
AcDbDictionary
0
DICTIONARY
5
1A
330
C
100
AcDbDictionary
0
DICTIONARY
5
17
100
AcDbDictionary
0
ENDSEC
0
EOF
